<?xml version="1.0" encoding="utf-8"?>
<!-- Generator: Adobe Illustrator 19.0.0, SVG Export Plug-In . SVG Version: 6.00 Build 0)  -->
<svg version="1.1" id="Layer_1" xmlns="http://www.w3.org/2000/svg" xmlns:xlink="http://www.w3.org/1999/xlink" x="0px" y="0px"
	 viewBox="0 0 206 32.5" style="enable-background:new 0 0 206 32.5;" xml:space="preserve">
<style type="text/css">
	.st0{fill-rule:evenodd;clip-rule:evenodd;fill:#414042;stroke:#414042;stroke-miterlimit:3.8637;}
	.st1{fill:#9374A6;}
	.st2{fill:#FFFFFF;}
</style>
<g id="XMLID_27_">
	<g>
		<path class="st0" d="M69.5,11.1h-6V9.4c0-1.7-0.5-2.8-1.4-3.3c-0.7-0.4-2.5-0.6-5.3-0.6c-3,0-4.9,0.4-5.8,1.3
			c-0.8,0.8-1.2,2.8-1.2,5.8v6.9c0,3.2,0.4,5.2,1.2,6.1c0.8,0.9,2.8,1.3,5.8,1.3c2.7,0,4.5-0.2,5.3-0.6c1.1-0.6,1.7-1.9,1.7-4v-1.7
			h6v2c0,2.9-0.6,5.1-1.7,6.5c-0.9,1.2-2.4,2-4.5,2.4c-1,0.2-3.3,0.4-6.8,0.5c-5.2,0.2-8.8-0.6-10.6-2.6c-1.6-1.7-2.4-4.9-2.4-9.7
			v-7.1c0-4.8,1-8.1,3.1-9.8c1.8-1.6,5.2-2.4,9.9-2.4c4.7,0,7.7,0.4,9.2,1.1c2.3,1.2,3.4,3.8,3.4,7.8V11.1z"/>
		<path class="st0" d="M83.3,9.8c4.4,0,7.2,0.8,8.5,2.4c1.1,1.4,1.7,4.3,1.7,8.7c0,4.4-0.6,7.3-1.7,8.7c-1.3,1.6-4.2,2.4-8.5,2.4
			c-4.4,0-7.2-0.8-8.5-2.4c-1.1-1.4-1.7-4.3-1.7-8.7c0-4.4,0.6-7.3,1.7-8.7C76.1,10.6,78.9,9.8,83.3,9.8z M83.3,13.8
			c-2.2,0-3.6,0.5-4.2,1.4c-0.5,0.8-0.8,2.7-0.8,5.8c0,3,0.3,4.9,0.8,5.7c0.6,0.9,2,1.4,4.2,1.4c2.2,0,3.7-0.5,4.3-1.4
			c0.5-0.8,0.7-2.7,0.7-5.7c0-3.1-0.2-5-0.7-5.8C86.9,14.2,85.5,13.8,83.3,13.8z"/>
		<polygon class="st0" points="115.8,10.1 109.5,31.8 101.7,31.8 95.1,10.1 100.4,10.1 105.5,28.2 105.6,28.2 110.4,10.1 		"/>
		<path class="st0" d="M132.3,24.9h5.2c0,3.1-0.9,5.2-2.7,6.1c-1.3,0.7-3.8,1-7.4,1c-4.1,0-6.8-0.8-8.1-2.4
			c-1.3-1.5-1.9-4.4-1.9-8.7c0-4.2,0.6-7,1.7-8.5c1.4-1.8,4.1-2.6,8.3-2.6c4.3,0,7.1,0.8,8.4,2.5c1.1,1.5,1.7,4.7,1.7,9.6h-14.9
			c0,2.6,0.2,4.2,0.7,4.8c0.6,0.9,1.9,1.3,4.1,1.3c1.8,0,3-0.1,3.6-0.4C131.8,27.3,132.3,26.3,132.3,24.9z M122.6,18.6h9.7
			c0-2.2-0.3-3.5-0.9-4.1c-0.5-0.5-1.9-0.7-4.1-0.7c-2.1,0-3.5,0.3-4.1,1C122.8,15.2,122.6,16.5,122.6,18.6z"/>
		<path class="st0" d="M141.4,10.1h5.1l-0.1,2.9h0.2c0.9-2.1,2.8-3.1,5.8-3.1c2.2,0,3.7,0.6,4.6,1.9c0.7,1.1,1.1,2.7,1.1,5v1.7h-4.9
			v-1.1c0-1.2-0.1-2.1-0.4-2.6c-0.4-0.6-1.1-0.9-2.2-0.9c-1.5,0-2.5,0.4-3.1,1.2c-0.5,0.7-0.8,1.8-0.8,3.3v13.4h-5.2V10.1z"/>
		<polygon class="st0" points="166.9,5.8 166.9,13.6 181.4,13.6 181.4,18.4 166.9,18.4 166.9,26.7 182.4,26.7 182.4,31.8 161,31.8 
			161,0.7 182.2,0.7 182.2,5.8 		"/>
		<polygon class="st0" points="204.4,10.1 198.1,20.3 205.1,31.8 199,31.8 194.6,23.8 190.3,31.8 184.1,31.8 191.2,20.3 184.9,10.1 
			190.8,10.1 194.6,17 198.4,10.1 		"/>
	</g>
	<g>
		<polygon class="st1" points="32.1,32.1 0,32.1 0,0.1 32.2,0 		"/>
		<g>
			
				<rect x="9.3" y="11.1" transform="matrix(0.7071 0.7071 -0.7071 0.7071 14.6801 -10.3702)" class="st2" width="21.2" height="2.9"/>
			<polygon class="st2" points="8.7,26.6 18.6,16.6 28.6,26.6 26.5,28.6 18.6,20.7 10.8,28.6 			"/>
			<polygon class="st2" points="3.8,21.6 11.7,13.7 3.8,5.9 5.8,3.8 15.8,13.7 5.8,23.7 			"/>
		</g>
	</g>
</g>
</svg>
