<?xml version="1.0" encoding="utf-8"?>
<!-- Generator: Adobe Illustrator 19.0.0, SVG Export Plug-In . SVG Version: 6.00 Build 0)  -->
<svg version="1.1" id="Foreground" xmlns="http://www.w3.org/2000/svg" xmlns:xlink="http://www.w3.org/1999/xlink" x="0px" y="0px"
	 viewBox="0 0 52 52" style="enable-background:new 0 0 52 52;" xml:space="preserve">
<style type="text/css">
	.st0{fill:#338C26;}
</style>
<path class="st0" d="M0,0v52h52V0H0z M38.8,31.6l-2.1,2.1l-5.6-5.6l-3,3l5.6,5.6l-2.1,2.1L26,33.2l-5.6,5.6l-2.1-2.1l5.6-5.6l-3-3
	l-5.6,5.6l-2.1-2.1l5.6-5.6l-5.6-5.6l2.1-2.1l5.6,5.6l3-3l-5.6-5.6l2.1-2.1l5.6,5.6l5.6-5.6l2.1,2.1l-5.6,5.6l3,3l5.6-5.6l2.1,2.1
	L33.2,26L38.8,31.6z"/>
<rect x="23.9" y="23.9" transform="matrix(0.7071 0.7071 -0.7071 0.7071 26.0003 -10.7694)" class="st0" width="4.2" height="4.2"/>
</svg>
