<?xml version="1.0" encoding="utf-8"?>
<!-- Generator: Adobe Illustrator 19.0.0, SVG Export Plug-In . SVG Version: 6.00 Build 0)  -->
<svg version="1.1" id="Foreground" xmlns="http://www.w3.org/2000/svg" xmlns:xlink="http://www.w3.org/1999/xlink" x="0px" y="0px"
	 viewBox="0 0 52 52" style="enable-background:new 0 0 52 52;" xml:space="preserve">
<style type="text/css">
	.st0{fill:#FFFFFF;}
	.st1{fill:none;}
	.st2{fill:#009CA3;}
</style>
<rect x="23.9" y="23.9" transform="matrix(0.7071 0.7071 -0.7071 0.7071 26.0003 -10.7694)" class="st0" width="4.2" height="4.2"/>
<path class="st1" d="M34.2,15.1l-1.7,2.2c-2.4,2.4,1.2,5.8,3.5,3.5c1-1,0.9-2.6,0-3.5L34.2,15.1z"/>
<g>
	<path class="st2" d="M34.2,15.1l-1.7,2.2c-2.4,2.4,1.2,5.8,3.5,3.5c1-1,0.9-2.6,0-3.5L34.2,15.1z"/>
	<path class="st2" d="M0,0v52h52V0H0z M17.1,31.1c0.9,0,1.7-0.6,2-1.4h-1.3v-1h3.1v3.1h-1v-1.3c-0.5,1-1.6,1.7-2.8,1.7
		s-2.2,1-2.2,2.2h-1C13.9,32.5,15.3,31.1,17.1,31.1z M22,36.5h-1v-1.3c-0.5,1-1.6,1.7-2.8,1.7c-1.2,0-2.2,1-2.2,2.2h-1
		c0-1.8,1.4-3.2,3.2-3.2c0.9,0,1.7-0.6,2-1.4h-1.3v-1H22V36.5z M30.7,35.8L16.3,21.3l2-2l14.4,14.4L30.7,35.8z M34.7,31.8L20.3,17.3
		l2-2l14.4,14.4L34.7,31.8z M31.6,21.8c-1.5-1.5-1.5-3.9,0-5.4l2.7-3.5l2.8,3.5C40.5,20,35.1,25.3,31.6,21.8z"/>
</g>
</svg>
