<?xml version="1.0" encoding="utf-8"?>
<!-- Generator: Adobe Illustrator 19.0.0, SVG Export Plug-In . SVG Version: 6.00 Build 0)  -->
<svg version="1.1" id="Layer_1" xmlns="http://www.w3.org/2000/svg" xmlns:xlink="http://www.w3.org/1999/xlink" x="0px" y="0px"
	 viewBox="0 0 97 80" style="enable-background:new 0 0 97 80;" xml:space="preserve">
<style type="text/css">
	.st0{fill:#117EE6;}
	.st1{fill:#FFFFFF;}
</style>
<g id="XMLID_81_">
	<g id="XMLID_1_">
		<rect id="XMLID_4_" y="68.9" class="st0" width="7.6" height="7.5"/>
	</g>
	<g id="XMLID_80_">
		<rect id="XMLID_2_" x="16.1" class="st0" width="80.9" height="80"/>
		<g id="XMLID_3_">
			<path id="XMLID_5_" class="st1" d="M21.3,42.2H26v12.1c0.8-0.8,1.8-1.5,2.8-2.1c0.9-0.5,2-0.8,3.2-0.8c2.8,0.1,4.9,1.1,6.2,3.1
				c0.6,0.7,1.1,1.7,1.3,2.9c0.2,1.2,0.3,3.2,0.3,6.1c0,2.8-0.1,4.8-0.3,6c-0.2,1.3-0.7,2.3-1.3,3c-0.6,0.9-1.5,1.6-2.5,2.2
				c-1,0.6-2.2,0.9-3.7,0.9c-2.4-0.1-4.4-1-5.9-2.7v2.5h-4.6V42.2z M30.5,56.2c-1,0-1.9,0.2-2.5,0.7c-0.6,0.4-1.1,1-1.4,1.7
				c-0.3,0.7-0.5,1.5-0.6,2.3C26,61.8,26,62.7,26,63.6c0,0.8,0,1.7,0.1,2.6c0.1,0.9,0.3,1.7,0.6,2.4c0.3,0.7,0.8,1.3,1.4,1.7
				c0.6,0.5,1.4,0.7,2.5,0.7c1.1,0,2-0.2,2.6-0.6c0.6-0.4,1.1-1,1.4-1.7c0.3-0.7,0.5-1.5,0.6-2.4c0-0.9,0-1.7,0-2.6
				c0-0.9,0-1.9,0-2.8c-0.1-0.8-0.3-1.6-0.6-2.3c-0.3-0.7-0.7-1.3-1.4-1.7C32.4,56.4,31.6,56.2,30.5,56.2z"/>
			<path id="XMLID_8_" class="st1" d="M43.3,42.2h4.6v27.2c0,1.1,0.6,1.6,1.7,1.6h1.6v4.5h-2.1c-1.7,0-3.1-0.4-4.2-1.3
				c-1.1-0.9-1.7-2.4-1.7-4.4V42.2z"/>
			<path id="XMLID_10_" class="st1" d="M53,51.8h4.6v14.1c0,1.6,0.4,2.9,1.3,3.8c0.9,0.9,1.9,1.3,3.3,1.3s2.4-0.4,3.3-1.3
				c0.9-0.9,1.3-2.1,1.3-3.8V51.8h4.6v23.7h-4.6V73h-0.1c-1.5,1.9-3.5,2.8-5.9,2.8c-1.9,0-3.6-0.7-5.2-2.1c-1.7-1.4-2.5-3.4-2.5-6.1
				V51.8z"/>
			<path id="XMLID_12_" class="st1" d="M79.3,65.4c0,1.9,0.5,3.4,1.6,4.3c1,1,2.3,1.5,3.9,1.5c1.9,0,3.5-0.8,5-2.3l3.3,2.9
				c-2.3,2.6-5.1,3.9-8.3,3.8c-1.2,0-2.4-0.2-3.5-0.5c-0.6-0.2-1.1-0.5-1.7-0.8c-0.6-0.3-1.1-0.6-1.6-1.1c-1-0.9-1.8-2.1-2.4-3.7
				c-0.7-1.5-1-3.5-1-5.9c0-2.3,0.3-4.3,0.9-5.8c0.6-1.6,1.3-2.8,2.2-3.7c0.9-0.9,1.9-1.6,3.1-2c1.1-0.4,2.2-0.6,3.3-0.6
				c2.6,0,4.8,0.9,6.7,2.7c1.8,1.8,2.8,4.2,2.8,7.4v3.9H79.3z M89,61.5c-0.1-1.9-0.5-3.3-1.4-4.2c-0.9-0.9-2-1.4-3.4-1.4
				s-2.5,0.5-3.4,1.4c-0.9,0.9-1.4,2.3-1.4,4.2H89z"/>
		</g>
	</g>
</g>
</svg>
