<?xml version="1.0" encoding="utf-8"?>
<!-- Generator: Adobe Illustrator 20.1.0, SVG Export Plug-In . SVG Version: 6.00 Build 0)  -->
<svg version="1.1" id="Layer_1" xmlns="http://www.w3.org/2000/svg" xmlns:xlink="http://www.w3.org/1999/xlink" x="0px" y="0px"
	 viewBox="0 0 193 83.5" style="enable-background:new 0 0 193 83.5;" xml:space="preserve">
<style type="text/css">
	.st0{fill:#07A3DD;}
	.st1{fill:#292763;}
	.st2{fill:#FFFFFF;}
</style>
<g>
	<rect x="98.7" y="0" class="st0" width="81" height="81"/>
	<polygon class="st1" points="0,58.7 175.1,58.7 177.5,58.7 177.5,64.3 184.8,64.3 184.8,56.8 179.7,56.8 179.7,54.3 179.7,0 
		182.8,0 182.8,54.3 187.2,54.3 187.2,58.9 193,58.9 193,62 187.2,62 187.2,66.7 182.7,66.7 182.7,72.8 179.7,72.8 179.7,66.7 
		175.2,66.7 175.1,62.1 0,62.1 	"/>
	<rect x="0" y="38.7" class="st1" width="3.4" height="16.8"/>
	<path class="st1" d="M15.8,42.6l1.9-2c0,0-1.7-1.9-6.2-1.9c-4.4,0-6.1,3-6.1,5.1c0,2.1,1.3,4.7,5.5,4.7c4.2,0,4.2,1.5,4.2,2.2
		c0,0.7-0.7,2.5-3.7,2.5c-2.9,0-4.7-1.9-4.7-1.9l-2.1,2.2c0,0,2.1,2.5,6.8,2.5c4.7,0,7.1-2.6,7.1-5.3c0-2.7-2.4-5-4.8-5
		s-5.1,0.1-5.1-2c0-2.1,2.4-2.3,3.5-2.3C14.3,41.3,15.8,42.6,15.8,42.6"/>
	<path class="st1" d="M20.7,34H24v5.1h3.2v2.6H24v9.5c0,0.9,0.7,1.6,1.6,1.6h1.5v2.8h-2.1c-2.4,0-4.4-2-4.4-4.4v-9.5h-1.8v-2.6h1.8
		V34z"/>
	<path class="st1" d="M44,38.7h3.4v1.6c0.7-0.6,2.4-1.8,4.5-1.8c2.8,0,5.5,1.9,5.5,5.4v11.7h-3.3V44.5c0,0-0.2-2.9-3.2-2.9
		c-1.9,0-3.5,1.5-3.5,3.3v10.7H44V38.7z"/>
	<path class="st1" d="M88.4,55.4H85v-1.6c-0.7,0.6-2.4,1.8-4.5,1.8c-2.8,0-5.5-1.9-5.5-5.4V38.6h3.3v11.1c0,0,0.2,2.9,3.2,2.9
		c1.9,0,3.5-1.5,3.5-3.3V38.6h3.4V55.4z"/>
	<path class="st1" d="M31.4,43.2L29.3,41c0,0,2-2.4,6.3-2.4c4.3,0,6.3,2.8,6.3,4.5v12.5h-3.2v-1.5c0,0-1.4,1.6-4.3,1.6
		s-5.6-1.2-5.6-5.1c0-3.9,3.1-4.7,4.6-4.7h5.4v-2c0,0-0.3-2.5-3.3-2.5C32.6,41.5,31.4,43.2,31.4,43.2 M38.6,48.1h-4
		c-2,0-2.7,1.8-2.7,2.3c0,0.5,0.1,2.7,3.1,2.7c3,0,3.6-2.2,3.6-2.2V48.1"/>
	<path class="st1" d="M90.5,31.9h3.3v19.3c0,0.9,0.7,1.6,1.6,1.6H97v2.8h-2.1c-2.4,0-4.4-2-4.4-4.4V31.9z"/>
	<path class="st1" d="M59.5,31.9h3.4v8.9c0.8-1.3,2.2-2.2,3.8-2.2h0.6c3.1,0,5.7,2.5,5.7,5.7v5.6c0,3.3-2.7,5.9-5.9,5.9h-0.4
		c-1.6,0-3.1-0.9-3.8-2.2v1.9h-3.4V31.9z M63.1,45.5v3.6c0,2.1,1.5,3.8,3.4,3.8c1.9,0,3.4-1.7,3.4-3.8v-3.6c0-2.1-1.5-3.8-3.4-3.8
		C64.6,41.7,63.1,43.4,63.1,45.5"/>
	<path class="st2" d="M102.1,34h3.3v5.1h3.2v2.6h-3.2v9.5c0,0.9,0.7,1.6,1.6,1.6h1.5v2.8h-2.1c-2.4,0-4.4-2-4.4-4.4v-9.5h-1.8v-2.6
		h1.8V34z"/>
	<path class="st2" d="M141.9,38.7h3.4v1.6c0.7-0.6,2.4-1.8,4.5-1.8c2.8,0,5.5,1.9,5.5,5.4v11.7H152V44.5c0,0-0.2-2.9-3.2-2.9
		c-1.9,0-3.5,1.5-3.5,3.3v10.7h-3.4V38.7z"/>
	<rect x="157.5" y="38.7" class="st2" width="3.4" height="16.8"/>
	<path class="st2" d="M113.2,48.2h10.7V46c0,0,0.1-7.4-7.2-7.4c-7,0-6.8,8.9-6.8,8.9s0.1,8.3,6.8,8.3c5.1,0,6.7-2.7,6.7-2.7l-2-2.1
		c0,0-1.3,1.9-4,1.9C112.9,52.9,113.2,48.2,113.2,48.2 M113.4,45.7c0,0-0.1-4.3,3.6-4.3c3.7,0,3.7,4.3,3.7,4.3H113.4"/>
	<polygon class="st2" points="135.8,38.7 139.7,38.7 133.9,45.3 140.4,55.6 136.3,55.6 131.8,47.8 129.4,50.6 129.4,55.6 126,55.6 
		126,31.9 129.4,31.9 129.4,46.4 	"/>
	<polygon class="st2" points="173.3,38.7 177.2,38.7 171.4,45.3 177.9,55.6 173.8,55.6 169.3,47.8 166.9,50.6 166.9,55.6 
		163.5,55.6 163.5,31.9 166.9,31.9 166.9,46.4 	"/>
	<rect x="0" y="33.7" class="st1" width="3.4" height="3.6"/>
	<rect x="157.5" y="33.7" class="st2" width="3.4" height="3.6"/>
	<rect x="177.3" y="56.8" class="st0" width="7.5" height="7.5"/>
	<path class="st1" d="M25.6,83.5v-0.6c0.4,0,0.7-0.1,0.9-0.3c0.1-0.1,0.2-0.4,0.3-0.9h-0.3L25,76.5h0.6L27,81h0l1.1-4.4h0.6
		l-1.4,5.6c-0.2,0.9-0.7,1.3-1.4,1.3C25.8,83.5,25.7,83.5,25.6,83.5"/>
	<path class="st1" d="M29.3,79.1c0-1.1,0.1-1.8,0.3-2.1c0.2-0.4,0.8-0.5,1.6-0.5c0.8,0,1.3,0.2,1.6,0.5c0.2,0.3,0.3,1,0.3,2.1
		c0,1-0.1,1.6-0.2,1.9c-0.2,0.5-0.8,0.7-1.6,0.7c-0.9,0-1.4-0.2-1.6-0.7C29.3,80.7,29.3,80.1,29.3,79.1 M30,79.1v1
		c0,0.3,0.1,0.6,0.3,0.7c0.2,0.2,0.5,0.3,0.9,0.3c0.4,0,0.7-0.1,0.9-0.3c0.2-0.2,0.2-0.4,0.3-0.7v-1v-1c0-0.3-0.1-0.6-0.3-0.7
		c-0.2-0.2-0.5-0.3-0.9-0.3c-0.4,0-0.7,0.1-0.9,0.3c-0.2,0.2-0.2,0.4-0.3,0.7V79.1z"/>
	<path class="st1" d="M37.5,76.5v5.1h-0.6V81h0c-0.2,0.3-0.4,0.5-0.6,0.6c-0.2,0.1-0.5,0.1-0.8,0.1c-0.5,0-0.9-0.1-1.2-0.4
		c-0.2-0.3-0.3-0.7-0.3-1.2v-3.6h0.6V80c0,0.8,0.3,1.1,1,1.1c0.9,0,1.3-0.5,1.3-1.4v-3.2H37.5z"/>
	<path class="st1" d="M38.6,81.6v-5.1h0.6v0.6h0c0.2-0.5,0.6-0.7,1.2-0.7c0.4,0,0.8,0.1,0.9,0.4c0.2,0.2,0.2,0.5,0.2,1v0.4H41
		c0-0.4,0-0.7-0.1-0.9c-0.1-0.2-0.4-0.3-0.7-0.3c-0.6,0-1,0.3-1,1v3.5H38.6z"/>
	<path class="st1" d="M48.5,78.2h-0.6c0-0.5-0.1-0.8-0.2-0.9c-0.1-0.2-0.4-0.3-0.8-0.3s-0.7,0.1-0.9,0.3c-0.2,0.2-0.2,0.4-0.3,0.7v1
		v1c0,0.3,0.1,0.6,0.3,0.7c0.2,0.2,0.5,0.3,0.9,0.3c0.5,0,0.8-0.1,0.9-0.3c0.1-0.2,0.2-0.5,0.2-1h0.6v0.3c0,0.6-0.1,1-0.4,1.3
		c-0.3,0.2-0.7,0.3-1.3,0.3c-0.8,0-1.3-0.2-1.6-0.5c-0.2-0.3-0.3-1-0.3-2.1c0-0.9,0.1-1.6,0.2-1.9c0.3-0.5,0.8-0.7,1.6-0.7
		c0.7,0,1.1,0.1,1.3,0.4C48.4,77.1,48.5,77.6,48.5,78.2"/>
	<path class="st1" d="M49.4,79.1c0-1.1,0.1-1.8,0.3-2.1c0.2-0.4,0.8-0.5,1.6-0.5c0.8,0,1.3,0.2,1.6,0.5c0.2,0.3,0.3,1,0.3,2.1
		c0,1-0.1,1.6-0.2,1.9c-0.2,0.5-0.8,0.7-1.6,0.7c-0.9,0-1.4-0.2-1.6-0.7C49.5,80.7,49.4,80.1,49.4,79.1 M50.1,79.1v1
		c0,0.3,0.1,0.6,0.3,0.7c0.2,0.2,0.5,0.3,0.9,0.3c0.4,0,0.7-0.1,0.9-0.3c0.2-0.2,0.2-0.4,0.3-0.7v-1v-1c0-0.3-0.1-0.6-0.3-0.7
		C52,77.1,51.7,77,51.3,77c-0.4,0-0.7,0.1-0.9,0.3c-0.2,0.2-0.2,0.4-0.3,0.7V79.1z"/>
	<path class="st1" d="M54.1,81.6v-5.1h0.6v0.7h0c0.2-0.3,0.4-0.5,0.6-0.6c0.2-0.1,0.5-0.2,0.8-0.2c0.5,0,0.9,0.1,1.1,0.4
		c0.2,0.3,0.3,0.7,0.3,1.2v3.6H57v-3.4c0-0.8-0.3-1.1-1-1.1c-0.9,0-1.3,0.5-1.3,1.4v3.2H54.1z"/>
	<path class="st1" d="M58.7,80.1h0.6c0,0.4,0.1,0.7,0.2,0.9c0.1,0.1,0.4,0.2,0.9,0.2c0.5,0,0.8,0,0.9-0.1c0.2-0.1,0.3-0.4,0.3-0.9
		c0-0.4-0.1-0.6-0.4-0.7c-0.1,0-0.4-0.1-0.9-0.1c-0.6,0-1-0.1-1.2-0.3c-0.3-0.2-0.4-0.6-0.4-1.1c0-0.6,0.1-1,0.3-1.1
		c0.2-0.2,0.7-0.3,1.4-0.3c0.7,0,1.1,0.1,1.3,0.2c0.3,0.2,0.4,0.6,0.4,1.2h-0.6c0-0.4-0.1-0.6-0.2-0.7c-0.1-0.1-0.5-0.1-1-0.1
		c-0.4,0-0.7,0-0.8,0.1c-0.2,0.1-0.2,0.4-0.2,0.8c0,0.4,0.1,0.6,0.3,0.7c0.1,0,0.4,0.1,0.9,0.1c0.7,0,1.1,0.1,1.3,0.2
		c0.3,0.2,0.4,0.5,0.4,1.1c0,0.6-0.1,1.1-0.3,1.3c-0.3,0.2-0.8,0.4-1.6,0.4c-0.6,0-1.1-0.1-1.3-0.3C58.8,81.2,58.7,80.8,58.7,80.1"
		/>
	<path class="st1" d="M63.5,80.7v-3.5H63v-0.6h0.5v-1.2h0.6v1.2h1.6v0.6h-1.6v3.4c0,0.4,0.2,0.6,0.5,0.6c0.3,0,0.5-0.1,0.6-0.4
		c0-0.1,0.1-0.4,0.1-0.8H66c0,0.7-0.1,1.2-0.3,1.5c-0.2,0.2-0.5,0.3-0.9,0.3c-0.4,0-0.7-0.1-0.9-0.2C63.6,81.4,63.5,81.1,63.5,80.7"
		/>
	<path class="st1" d="M66.6,81.6v-5.1h0.6v0.6h0c0.2-0.5,0.6-0.7,1.2-0.7c0.4,0,0.8,0.1,0.9,0.4c0.2,0.2,0.2,0.5,0.2,1v0.4h-0.6
		c0-0.4,0-0.7-0.1-0.9c-0.1-0.2-0.4-0.3-0.7-0.3c-0.6,0-1,0.3-1,1v3.5H66.6z"/>
	<path class="st1" d="M73.9,76.5v5.1h-0.6V81h0c-0.2,0.3-0.4,0.5-0.6,0.6c-0.2,0.1-0.5,0.1-0.8,0.1c-0.5,0-0.9-0.1-1.2-0.4
		c-0.2-0.3-0.3-0.7-0.3-1.2v-3.6H71V80c0,0.8,0.3,1.1,1,1.1c0.9,0,1.3-0.5,1.3-1.4v-3.2H73.9z"/>
	<path class="st1" d="M78.4,78.2h-0.6c0-0.5-0.1-0.8-0.2-0.9c-0.1-0.2-0.4-0.3-0.8-0.3s-0.7,0.1-0.9,0.3c-0.2,0.2-0.2,0.4-0.3,0.7v1
		v1c0,0.3,0.1,0.6,0.3,0.7c0.2,0.2,0.5,0.3,0.9,0.3c0.5,0,0.8-0.1,0.9-0.3c0.1-0.2,0.2-0.5,0.2-1h0.6v0.3c0,0.6-0.1,1-0.4,1.3
		c-0.3,0.2-0.7,0.3-1.3,0.3c-0.8,0-1.3-0.2-1.6-0.5c-0.2-0.3-0.3-1-0.3-2.1c0-0.9,0.1-1.6,0.2-1.9c0.3-0.5,0.8-0.7,1.6-0.7
		c0.7,0,1.1,0.1,1.3,0.4C78.3,77.1,78.4,77.6,78.4,78.2"/>
	<path class="st1" d="M79.5,80.7v-3.5H79v-0.6h0.5v-1.2h0.6v1.2h1.6v0.6h-1.6v3.4c0,0.4,0.2,0.6,0.5,0.6c0.3,0,0.5-0.1,0.6-0.4
		c0-0.1,0.1-0.4,0.1-0.8H82c0,0.7-0.1,1.2-0.3,1.5c-0.2,0.2-0.5,0.3-0.9,0.3c-0.4,0-0.7-0.1-0.9-0.2C79.6,81.4,79.5,81.1,79.5,80.7"
		/>
	<path class="st1" d="M82.9,81.6h0.6v-5.1h-0.6V81.6z M82.9,75.3h0.6v-0.8h-0.6V75.3z"/>
	<path class="st1" d="M84.6,79.1c0-1.1,0.1-1.8,0.3-2.1c0.2-0.4,0.8-0.5,1.6-0.5c0.8,0,1.3,0.2,1.6,0.5c0.2,0.3,0.3,1,0.3,2.1
		c0,1-0.1,1.6-0.2,1.9c-0.2,0.5-0.8,0.7-1.6,0.7c-0.9,0-1.4-0.2-1.6-0.7C84.7,80.7,84.6,80.1,84.6,79.1 M85.3,79.1v1
		c0,0.3,0.1,0.6,0.3,0.7c0.2,0.2,0.5,0.3,0.9,0.3c0.4,0,0.7-0.1,0.9-0.3c0.2-0.2,0.2-0.4,0.3-0.7v-1v-1c0-0.3-0.1-0.6-0.3-0.7
		c-0.2-0.2-0.5-0.3-0.9-0.3c-0.4,0-0.7,0.1-0.9,0.3c-0.2,0.2-0.2,0.4-0.3,0.7V79.1z"/>
	<path class="st1" d="M89.4,81.6v-5.1H90v0.7h0c0.2-0.3,0.4-0.5,0.6-0.6c0.2-0.1,0.5-0.2,0.8-0.2c0.5,0,0.9,0.1,1.1,0.4
		c0.2,0.3,0.3,0.7,0.3,1.2v3.6h-0.6v-3.4c0-0.8-0.3-1.1-1-1.1c-0.9,0-1.3,0.5-1.3,1.4v3.2H89.4z"/>
	<path class="st1" d="M95.9,74.4v1.1c0,0.3,0,0.6-0.1,0.7c-0.1,0.1-0.3,0.2-0.6,0.2V76c0.2,0,0.3-0.1,0.3-0.2c0-0.1,0-0.2,0-0.4
		h-0.3v-0.9H95.9z M94.6,74.4v1.1c0,0.3,0,0.6-0.1,0.7c-0.1,0.1-0.3,0.2-0.6,0.2V76c0.2,0,0.3-0.1,0.3-0.2c0-0.1,0-0.2,0-0.4h-0.3
		v-0.9H94.6z"/>
	<path class="st1" d="M0.5,66.4v-1.1c0-0.4,0.1-0.6,0.2-0.8c0.1-0.1,0.3-0.1,0.5-0.1v0.4c-0.1,0-0.2,0.1-0.3,0.2c0,0.1,0,0.2,0,0.4
		h0.3v0.9H0.5z M1.8,66.4v-1.1c0-0.4,0.1-0.6,0.2-0.8c0.1-0.1,0.3-0.1,0.5-0.1v0.4c-0.1,0-0.2,0.1-0.3,0.2c0,0.1,0,0.2,0,0.4h0.3
		v0.9H1.8z"/>
	<path class="st1" d="M4.3,65.1v2.9h2.3c0.7,0,1-0.5,1-1.5c0-0.6-0.1-1-0.2-1.2c-0.1-0.2-0.5-0.3-1.1-0.3H4.3z M3.6,71.7v-7.2h3
		c0.7,0,1.2,0.2,1.4,0.5c0.2,0.3,0.3,0.8,0.3,1.5c0,0.5,0,0.9-0.1,1.2c-0.1,0.4-0.4,0.7-0.8,0.8v0c0.5,0.1,0.8,0.6,0.8,1.3v2H7.4V70
		c0-0.5-0.1-0.8-0.3-1c-0.2-0.2-0.5-0.2-1.1-0.2H4.3v2.9H3.6z"/>
	<path class="st1" d="M12.9,69.3H10v0.5c0,0.5,0.1,0.9,0.1,1c0.1,0.3,0.5,0.4,0.9,0.4c0.5,0,0.9,0,1-0.1c0.2-0.1,0.2-0.4,0.2-0.9
		h0.6v0.2c0,0.6-0.1,1-0.4,1.2c-0.2,0.2-0.7,0.2-1.3,0.2c-0.8,0-1.3-0.2-1.6-0.5c-0.2-0.3-0.3-1-0.3-2.1c0-1,0.1-1.6,0.2-1.9
		c0.3-0.5,0.8-0.7,1.6-0.7c0.7,0,1.2,0.2,1.5,0.5c0.2,0.3,0.3,0.8,0.3,1.5V69.3z M10,68.6h2.3c0-0.6,0-1-0.1-1.2
		c-0.1-0.2-0.5-0.4-1-0.4c-0.5,0-0.9,0.1-1,0.4C10,67.6,10,68,10,68.6"/>
	<path class="st1" d="M14.6,70.1c0,0.4,0.1,0.7,0.3,0.8c0.2,0.1,0.5,0.2,0.9,0.2c0.4,0,0.7-0.1,0.9-0.2c0.2-0.1,0.3-0.4,0.3-0.8
		c0-0.4-0.1-0.7-0.3-0.8c-0.2-0.1-0.5-0.2-0.9-0.2c-0.4,0-0.7,0.1-0.9,0.2C14.7,69.5,14.6,69.7,14.6,70.1 M17,71.7v-0.4
		c-0.2,0.2-0.4,0.4-0.7,0.4c-0.2,0.1-0.5,0.1-0.8,0.1c-0.6,0-1-0.1-1.2-0.4c-0.2-0.3-0.4-0.7-0.4-1.2c0-0.6,0.1-1,0.3-1.2
		c0.2-0.2,0.6-0.4,1.2-0.4c0.4,0,0.6,0,0.8,0.1c0.3,0.1,0.5,0.2,0.6,0.4h0v-0.9c0-0.4-0.1-0.7-0.2-0.8c-0.1-0.1-0.5-0.2-1-0.2
		c-0.5,0-0.8,0.1-0.9,0.2c-0.1,0.1-0.1,0.3-0.1,0.7h-0.6v-0.3c0-0.5,0.2-0.8,0.5-1c0.3-0.1,0.7-0.2,1.2-0.2c0.6,0,1,0.1,1.3,0.3
		c0.3,0.2,0.4,0.6,0.4,1.2v3.7H17z"/>
	<path class="st1" d="M21.7,71.7V71h0c-0.2,0.5-0.7,0.7-1.3,0.7c-0.8,0-1.3-0.3-1.5-0.8c-0.2-0.3-0.3-1-0.3-1.9
		c0-0.9,0.1-1.5,0.2-1.8c0.2-0.5,0.7-0.8,1.5-0.8c0.7,0,1.1,0.2,1.4,0.7h0v-2.8h0.6v7.2H21.7z M19.2,69.1c0,0.7,0,1.2,0.1,1.4
		c0.2,0.4,0.5,0.6,1.1,0.6c0.6,0,1-0.2,1.1-0.7c0.1-0.2,0.1-0.7,0.1-1.5c0-0.6-0.1-1-0.2-1.2c-0.2-0.3-0.5-0.5-1-0.5
		c-0.6,0-1,0.2-1.1,0.6C19.3,67.9,19.2,68.4,19.2,69.1"/>
	<path class="st1" d="M23.6,73.5v-0.6c0.4,0,0.7-0.1,0.9-0.3c0.1-0.1,0.2-0.4,0.3-0.9h-0.3L23,66.6h0.6l1.3,4.4h0l1.1-4.4h0.6
		l-1.4,5.6c-0.2,0.9-0.7,1.3-1.4,1.3C23.7,73.5,23.6,73.5,23.6,73.5"/>
	<path class="st1" d="M30.2,70.7v-3.5h-0.5v-0.6h0.5v-1.2h0.6v1.2h1.6v0.6h-1.6v3.4c0,0.4,0.2,0.6,0.5,0.6c0.3,0,0.5-0.1,0.6-0.4
		c0-0.1,0.1-0.4,0.1-0.8h0.6c0,0.7-0.1,1.2-0.3,1.5c-0.2,0.2-0.5,0.3-0.9,0.3c-0.4,0-0.7-0.1-0.9-0.2C30.3,71.4,30.2,71.1,30.2,70.7
		"/>
	<path class="st1" d="M33.3,69.1c0-1.1,0.1-1.8,0.3-2.1c0.2-0.4,0.8-0.5,1.6-0.5c0.8,0,1.3,0.2,1.6,0.5c0.2,0.3,0.3,1,0.3,2.1
		c0,1-0.1,1.6-0.2,1.9c-0.2,0.5-0.8,0.7-1.6,0.7s-1.4-0.2-1.6-0.7C33.4,70.8,33.3,70.1,33.3,69.1 M34,69.1v1c0,0.3,0.1,0.6,0.3,0.7
		c0.2,0.2,0.5,0.3,0.9,0.3c0.4,0,0.7-0.1,0.9-0.3c0.2-0.2,0.2-0.4,0.3-0.7v-1v-1c0-0.3-0.1-0.6-0.3-0.7c-0.2-0.2-0.5-0.3-0.9-0.3
		c-0.4,0-0.7,0.1-0.9,0.3c-0.2,0.2-0.2,0.4-0.3,0.7V69.1z"/>
	<path class="st1" d="M41,71.7h0.6v-5.1H41V71.7z M41,65.3h0.6v-0.8H41V65.3z"/>
	<path class="st1" d="M42.8,71.7v-5.1h0.6v0.8h0c0.2-0.3,0.4-0.5,0.5-0.6c0.2-0.1,0.5-0.2,0.8-0.2c0.8,0,1.2,0.3,1.5,0.8
		c0.2-0.3,0.4-0.5,0.6-0.6c0.2-0.1,0.5-0.2,0.9-0.2c1,0,1.5,0.5,1.5,1.5v3.7h-0.6v-3.3c0-0.4-0.1-0.7-0.2-0.9
		c-0.2-0.2-0.4-0.3-0.8-0.3c-0.4,0-0.8,0.1-0.9,0.3c-0.2,0.2-0.3,0.5-0.3,1v3.2h-0.6v-3.5c0-0.4-0.1-0.6-0.2-0.8s-0.4-0.2-0.8-0.2
		c-0.9,0-1.3,0.5-1.3,1.6v2.9H42.8z"/>
	<path class="st1" d="M50.4,73.4v-6.9h0.6v0.6h0c0.3-0.5,0.7-0.7,1.4-0.7c0.7,0,1.2,0.3,1.5,0.8c0.2,0.3,0.2,0.9,0.2,1.8
		c0,0.9-0.1,1.5-0.3,1.9c-0.3,0.5-0.8,0.8-1.5,0.8c-0.7,0-1.1-0.2-1.3-0.7h0v2.4H50.4z M53.5,69.1c0-0.8,0-1.2-0.1-1.4
		c-0.1-0.4-0.5-0.6-1.1-0.6c-0.5,0-0.8,0.2-1,0.5c-0.1,0.2-0.2,0.6-0.2,1.2c0,0.8,0,1.3,0.1,1.5c0.1,0.5,0.5,0.7,1.1,0.7
		c0.6,0,1-0.2,1.1-0.6C53.5,70.3,53.5,69.9,53.5,69.1"/>
	<path class="st1" d="M55.2,71.7v-5.1h0.6v0.6h0c0.2-0.5,0.6-0.7,1.2-0.7c0.4,0,0.8,0.1,0.9,0.4c0.2,0.2,0.2,0.5,0.2,1v0.4h-0.6
		c0-0.4,0-0.7-0.1-0.9c-0.1-0.2-0.4-0.3-0.7-0.3c-0.6,0-1,0.3-1,1v3.5H55.2z"/>
	<path class="st1" d="M58.8,69.1c0-1.1,0.1-1.8,0.3-2.1c0.2-0.4,0.8-0.5,1.6-0.5c0.8,0,1.3,0.2,1.6,0.5c0.2,0.3,0.3,1,0.3,2.1
		c0,1-0.1,1.6-0.2,1.9c-0.2,0.5-0.8,0.7-1.6,0.7c-0.9,0-1.4-0.2-1.6-0.7C58.8,70.8,58.8,70.1,58.8,69.1 M59.5,69.1v1
		c0,0.3,0.1,0.6,0.3,0.7c0.2,0.2,0.5,0.3,0.9,0.3c0.4,0,0.7-0.1,0.9-0.3c0.2-0.2,0.2-0.4,0.3-0.7v-1v-1c0-0.3-0.1-0.6-0.3-0.7
		c-0.2-0.2-0.5-0.3-0.9-0.3c-0.4,0-0.7,0.1-0.9,0.3c-0.2,0.2-0.2,0.4-0.3,0.7V69.1z"/>
	<polygon class="st1" points="64.4,71.7 63,66.6 63.7,66.6 64.9,71 64.9,71 66.1,66.6 66.8,66.6 65.3,71.7 	"/>
	<path class="st1" d="M70.9,69.3h-3v0.5c0,0.5,0.1,0.9,0.1,1c0.1,0.3,0.5,0.4,0.9,0.4c0.5,0,0.9,0,1-0.1c0.2-0.1,0.2-0.4,0.2-0.9
		h0.6v0.2c0,0.6-0.1,1-0.4,1.2c-0.2,0.2-0.7,0.2-1.3,0.2c-0.8,0-1.3-0.2-1.6-0.5c-0.2-0.3-0.3-1-0.3-2.1c0-1,0.1-1.6,0.2-1.9
		c0.3-0.5,0.8-0.7,1.6-0.7c0.7,0,1.2,0.2,1.5,0.5c0.2,0.3,0.3,0.8,0.3,1.5V69.3z M68,68.6h2.3c0-0.6-0.1-1-0.1-1.2
		c-0.1-0.2-0.5-0.4-1-0.4c-0.5,0-0.9,0.1-1,0.4C68,67.6,68,68,68,68.6"/>
</g>
</svg>
