<?xml version="1.0" encoding="utf-8"?>
<!-- Generator: Adobe Illustrator 19.0.0, SVG Export Plug-In . SVG Version: 6.00 Build 0)  -->
<svg version="1.1" id="Isolation_Mode" xmlns="http://www.w3.org/2000/svg" xmlns:xlink="http://www.w3.org/1999/xlink" x="0px"
	 y="0px" viewBox="0 0 130 55" style="enable-background:new 0 0 130 55;" xml:space="preserve">
<style type="text/css">
	.st0{fill:#117FE6;}
	.st1{fill:#292664;}
	.st2{fill:#1B2975;}
	.st3{fill:#FFFFFF;}
	.st4{fill:none;}
	.st5{font-family:'OpenSans';}
	.st6{font-size:5.3px;}
</style>
<rect id="XMLID_80_" x="66.3" y="0" class="st0" width="54.4" height="54.9"/>
<polygon id="XMLID_79_" class="st1" points="0,39.8 117.6,39.8 119.2,39.8 119.2,43.6 124.2,43.6 124.2,38.5 120.7,38.5 120.7,36.8 
	120.7,0 122.8,0 122.8,36.8 125.8,36.8 125.8,40 129.7,40 129.7,42.1 125.8,42.1 125.8,45.2 122.8,45.2 122.8,49.4 120.7,49.4 
	120.7,45.2 117.7,45.2 117.7,42.2 0,42.2 "/>
<rect id="XMLID_78_" x="0" y="26.3" class="st2" width="2.3" height="11.4"/>
<path id="XMLID_77_" class="st2" d="M10.6,28.9l1.3-1.4c0,0-1.2-1.3-4.2-1.3c-3,0-4.1,2.1-4.1,3.5c0,1.4,0.9,3.2,3.7,3.2
	c2.8,0,2.8,1,2.8,1.5c0,0.5-0.5,1.7-2.5,1.7c-2,0-3.2-1.3-3.2-1.3l-1.4,1.5c0,0,1.4,1.7,4.6,1.7c3.2,0,4.8-1.8,4.8-3.6
	c0-1.8-1.6-3.4-3.2-3.4c-1.6,0-3.4,0-3.4-1.4c0-1.4,1.6-1.5,2.3-1.5C9.6,28,10.6,28.9,10.6,28.9"/>
<path id="XMLID_76_" class="st2" d="M13.9,23.1h2.2v3.5h2.1v1.8h-2.1v6.4c0,0.6,0.5,1.1,1.1,1.1h1v1.9h-1.4c-1.6,0-2.9-1.3-2.9-3
	v-6.4h-1.2v-1.8h1.2V23.1z"/>
<path id="XMLID_75_" class="st2" d="M29.5,26.3h2.3v1.1c0.5-0.4,1.6-1.2,3-1.2c1.9,0,3.7,1.3,3.7,3.6v7.9h-2.2v-7.5c0,0-0.1-2-2.1-2
	c-1.3,0-2.4,1-2.4,2.2v7.3h-2.3V26.3z"/>
<path id="XMLID_74_" class="st2" d="M59.4,37.6h-2.3v-1.1c-0.5,0.4-1.6,1.2-3,1.2c-1.9,0-3.7-1.3-3.7-3.6v-7.9h2.2v7.5
	c0,0,0.1,2,2.1,2c1.3,0,2.4-1,2.4-2.2v-7.3h2.3V37.6z"/>
<path id="XMLID_71_" class="st2" d="M21.1,29.3l-1.4-1.5c0,0,1.3-1.6,4.2-1.6s4.3,1.9,4.3,3.1v8.5H26v-1c0,0-1,1.1-2.9,1.1
	c-2,0-3.8-0.8-3.8-3.5s2.1-3.2,3.1-3.2H26v-1.4c0,0-0.2-1.7-2.2-1.7C21.9,28.2,21.1,29.3,21.1,29.3 M25.9,32.7h-2.7
	c-1.4,0-1.8,1.2-1.8,1.6c0,0.3,0,1.8,2.1,1.8c2,0,2.4-1.5,2.4-1.5V32.7"/>
<path id="XMLID_70_" class="st2" d="M60.8,21.7h2.2v13.1c0,0.6,0.5,1.1,1.1,1.1h1v1.9h-1.4c-1.6,0-2.9-1.3-2.9-3V21.7z"/>
<path id="XMLID_67_" class="st2" d="M39.9,21.7h2.3v6c0.5-0.9,1.5-1.5,2.6-1.5h0.4c2.1,0,3.8,1.7,3.8,3.8v3.8c0,2.2-1.8,4-4,4h-0.2
	c-1.1,0-2.1-0.6-2.6-1.5v1.3h-2.3V21.7z M42.4,30.9v2.4c0,1.4,1,2.6,2.3,2.6c1.2,0,2.3-1.2,2.3-2.6v-2.4c0-1.4-1-2.6-2.3-2.6
	C43.4,28.3,42.4,29.5,42.4,30.9"/>
<path id="XMLID_66_" class="st3" d="M68.6,23.1h2.2v3.5H73v1.8h-2.1v6.4c0,0.6,0.5,1.1,1.1,1.1h1v1.9h-1.4c-1.6,0-2.9-1.3-2.9-3
	v-6.4h-1.2v-1.8h1.2V23.1z"/>
<path id="XMLID_65_" class="st3" d="M95.3,26.3h2.3v1.1c0.5-0.4,1.6-1.2,3-1.2c1.9,0,3.7,1.3,3.7,3.6v7.9h-2.2v-7.5c0,0-0.1-2-2.1-2
	c-1.3,0-2.4,1-2.4,2.2v7.3h-2.3V26.3z"/>
<rect id="XMLID_64_" x="105.9" y="26.3" class="st3" width="2.3" height="11.4"/>
<path id="XMLID_61_" class="st3" d="M76.1,32.7h7.2v-1.5c0,0,0.1-5-4.8-5c-4.7,0-4.6,6-4.6,6s0.1,5.6,4.6,5.6c3.4,0,4.5-1.8,4.5-1.8
	l-1.4-1.4c0,0-0.9,1.3-2.7,1.3C75.9,35.9,76.1,32.7,76.1,32.7 M78.6,28.1c2.5,0,2.5,2.9,2.5,2.9h-4.9C76.2,31,76.1,28.1,78.6,28.1"
	/>
<polygon id="XMLID_60_" class="st3" points="91.2,26.3 93.9,26.3 90,30.8 94.4,37.7 91.6,37.7 88.5,32.5 86.9,34.3 86.9,37.7 
	84.6,37.7 84.6,21.7 86.9,21.7 86.9,31.5 "/>
<polygon id="XMLID_59_" class="st3" points="116.4,26.3 119.1,26.3 115.2,30.8 119.6,37.7 116.8,37.7 113.7,32.5 112.1,34.3 
	112.1,37.7 109.8,37.7 109.8,21.7 112.1,21.7 112.1,31.5 "/>
<rect id="XMLID_58_" x="0" y="22.8" class="st2" width="2.3" height="2.4"/>
<rect id="XMLID_57_" x="105.9" y="22.8" class="st3" width="2.3" height="2.4"/>
<rect id="XMLID_56_" x="119.1" y="38.5" class="st0" width="5" height="5.1"/>
<g id="XMLID_1_">
	<rect id="XMLID_2_" x="1" y="46.8" class="st4" width="65.2" height="6.6"/>
	<text id="XMLID_3_" transform="matrix(1 0 0 1 1.0196 50.8687)" class="st2 st5 st6">“Yasamı İyileştirmek İçin”</text>
</g>
</svg>
