<?xml version="1.0" encoding="utf-8"?>
<!-- Generator: Adobe Illustrator 19.0.0, SVG Export Plug-In . SVG Version: 6.00 Build 0)  -->
<svg version="1.1" id="Layer_1" xmlns="http://www.w3.org/2000/svg" xmlns:xlink="http://www.w3.org/1999/xlink" x="0px" y="0px"
	 viewBox="-1439 521 160 40" style="enable-background:new -1439 521 160 40;" xml:space="preserve">
<style type="text/css">
	.st0{fill:#059FF5;}
	.st1{fill:url(#SVGID_1_);}
	.st2{fill:url(#SVGID_2_);}
	.st3{fill:url(#SVGID_3_);}
	.st4{fill:#DD4E41;}
	.st5{fill-rule:evenodd;clip-rule:evenodd;fill:url(#SVGID_4_);}
	.st6{fill-rule:evenodd;clip-rule:evenodd;fill:#FFFFFF;}
	.st7{fill:#3D5A98;}
	.st8{fill:#FFFFFF;}
</style>
<path class="st0" d="M-1401.8,530.1c-1.3,0.6-2.7,1-4.1,1.1c1.5-0.9,2.6-2.3,3.2-4c-1.4,0.8-2.9,1.4-4.6,1.7
	c-1.3-1.4-3.2-2.3-5.3-2.3c-4,0-7.2,3.2-7.2,7.2c0,0.6,0.1,1.1,0.2,1.6c-6-0.3-11.3-3.2-14.8-7.5c-0.6,1.1-1,2.3-1,3.6
	c0,2.5,1.3,4.7,3.2,6c-1.2,0-2.3-0.4-3.3-0.9c0,0,0,0.1,0,0.1c0,3.5,2.5,6.4,5.8,7.1c-0.6,0.2-1.2,0.3-1.9,0.3c-0.5,0-0.9,0-1.4-0.1
	c0.9,2.9,3.6,4.9,6.7,5c-2.5,1.9-5.6,3.1-8.9,3.1c-0.6,0-1.2,0-1.7-0.1c3.2,2,7,3.2,11,3.2c13.2,0,20.5-11,20.5-20.5
	c0-0.3,0-0.6,0-0.9C-1404,532.8-1402.7,531.6-1401.8,530.1z"/>
<g>
	<linearGradient id="SVGID_1_" gradientUnits="userSpaceOnUse" x1="-1285.752" y1="525.8533" x2="-1309.5298" y2="552.5427">
		<stop  offset="0" style="stop-color:#C3009F"/>
		<stop  offset="0.5053" style="stop-color:#E20034"/>
		<stop  offset="1" style="stop-color:#FDB81D"/>
	</linearGradient>
	<path class="st1" d="M-1292.4,526.7h-13.8c-4.2,0-7.7,3.5-7.7,7.7v13.2c0,4.2,3.5,7.7,7.7,7.7h13.8c4.2,0,7.7-3.5,7.7-7.7v-13.2
		C-1284.7,530.2-1288.1,526.7-1292.4,526.7z M-1287.3,547.4c0,2.9-2.4,5.3-5.3,5.3h-13.3c-2.9,0-5.3-2.4-5.3-5.3v-12.8
		c0-2.9,2.4-5.3,5.3-5.3l13.3,0c2.9,0,5.3,2.4,5.3,5.3V547.4z"/>
	<linearGradient id="SVGID_2_" gradientUnits="userSpaceOnUse" x1="-1285.752" y1="525.8533" x2="-1309.5298" y2="552.5427">
		<stop  offset="0" style="stop-color:#C3009F"/>
		<stop  offset="0.5053" style="stop-color:#E20034"/>
		<stop  offset="1" style="stop-color:#FDB81D"/>
	</linearGradient>
	<path class="st2" d="M-1299.2,533.7c-4,0-7.3,3.3-7.3,7.3s3.3,7.3,7.3,7.3c4,0,7.3-3.3,7.3-7.3
		C-1291.9,537-1295.2,533.7-1299.2,533.7z M-1299.2,545.7c-2.6,0-4.7-2.1-4.7-4.7c0-2.6,2.1-4.7,4.7-4.7c2.6,0,4.7,2.1,4.7,4.7
		C-1294.5,543.6-1296.6,545.7-1299.2,545.7z"/>
	<linearGradient id="SVGID_3_" gradientUnits="userSpaceOnUse" x1="-1285.2828" y1="526.2712" x2="-1309.0607" y2="552.9606">
		<stop  offset="0" style="stop-color:#C3009F"/>
		<stop  offset="0.5053" style="stop-color:#E20034"/>
		<stop  offset="1" style="stop-color:#FDB81D"/>
	</linearGradient>
	<circle class="st3" cx="-1291.5" cy="533.3" r="1.7"/>
</g>
<g>
	<circle class="st4" cx="-1338.7" cy="541" r="14.3"/>
	<linearGradient id="SVGID_4_" gradientUnits="userSpaceOnUse" x1="-1346.6243" y1="545.6953" x2="-1325.5638" y2="545.6953">
		<stop  offset="0" style="stop-color:#C14439"/>
		<stop  offset="1" style="stop-color:#C14439;stop-opacity:0"/>
	</linearGradient>
	<path class="st5" d="M-1336.3,554.4l-10.4-10.5l0.6-4.7l2.5-2.4l2.7-0.1l2.4,0.3l3.1,3.2l2.3,0.4l0-2.1l0.6-0.3l6.5,6.6l0.3,7
		l-8.8,3L-1336.3,554.4z"/>
	<g>
		<path class="st6" d="M-1342.2,539.9v1.9h3.2c-0.1,0.8-1,2.4-3.2,2.4c-1.9,0-3.5-1.6-3.5-3.5s1.6-3.5,3.5-3.5
			c1.1,0,1.8,0.5,2.2,0.9l1.5-1.5c-1-0.9-2.2-1.5-3.8-1.5c-3.1,0-5.6,2.5-5.6,5.6c0,3.1,2.5,5.6,5.6,5.6c3.2,0,5.4-2.3,5.4-5.5
			c0-0.4,0-0.6-0.1-0.9H-1342.2L-1342.2,539.9L-1342.2,539.9z"/>
		<polygon class="st6" points="-1330.2,539.9 -1331.8,539.9 -1331.8,538.3 -1333.4,538.3 -1333.4,539.9 -1335,539.9 -1335,541.5 
			-1333.4,541.5 -1333.4,543.1 -1331.8,543.1 -1331.8,541.5 -1330.2,541.5 		"/>
	</g>
</g>
<g>
	<path id="Blue_1_" class="st7" d="M-1366.2,555.3c0.9,0,1.6-0.7,1.6-1.6v-25.4c0-0.9-0.7-1.6-1.6-1.6h-25.4c-0.9,0-1.6,0.7-1.6,1.6
		v25.4c0,0.9,0.7,1.6,1.6,1.6H-1366.2z"/>
	<path id="f_1_" class="st8" d="M-1373.4,555.3v-11h3.7l0.6-4.3h-4.3v-2.7c0-1.2,0.3-2.1,2.1-2.1l2.3,0v-3.8
		c-0.4-0.1-1.7-0.2-3.3-0.2c-3.3,0-5.5,2-5.5,5.7v3.2h-3.7v4.3h3.7v11H-1373.4z"/>
</g>
</svg>
