<?xml version="1.0" encoding="UTF-8" standalone="no"?>
<!DOCTYPE svg  PUBLIC '-//W3C//DTD SVG 1.1//EN'  'http://www.w3.org/Graphics/SVG/1.1/DTD/svg11.dtd'>
<svg xmlns="http://www.w3.org/2000/svg" version="1.1">
<defs>
<font id="Roboto-Thin" horiz-adv-x="1121">
<font-face ascent="1638" descent="-410" units-per-em="2048" font-weight="250" underline-position="-300" x-height="1082" underline-thickness="100" font-family="Roboto" bbox="-1500 -555 2308 2163" cap-height="1456" unicode-range="U+0002-FFFD" panose-1="2 0 0 0 0 0 0 0 0 0"/>
<missing-glyph d="M451 796l258 606h-515zM194 54h515l-258 606zM154 1359v-1263l268 632zM754 84v1287l-274 -643zM808 0h-708v1456h708v-1456z" horiz-adv-x="908"/>
<glyph glyph-name="fi" unicode="fi" d="M803 1420q0 23 16 39.5t39 16.5t39.5 -16.5t16.5 -39.5t-16.5 -39t-39.5 -16t-39 16t-16 39zM254 0v1027h-188v55h188v158q1 150 75.5 233.5t207.5 83.5q74 0 128 -17l-8 -52q-52 15 -119 15q-107 0 -168.5 -69.5t-61.5 -197.5v-154h286v-55h-286v-1027h-54zM884 0h-54 v1082h54v-1082z" horiz-adv-x="1067"/>
<glyph glyph-name="fl" unicode="fl" d="M830 1460q-190 43 -292 43q-107 0 -168.5 -69.5t-61.5 -197.5v-154h286v-55h-286v-1027h-54v1027h-188v55h188v158q1 150 75.5 233.5t207.5 83.5q123 0 347 -61v-1496h-54v1460z" horiz-adv-x="1067"/>
<glyph glyph-name=".notdef" d="M451 796l258 606h-515zM194 54h515l-258 606zM154 1359v-1263l268 632zM754 84v1287l-274 -643zM808 0h-708v1456h708v-1456z" horiz-adv-x="908"/>
<glyph glyph-name=".null" horiz-adv-x="0"/>
<glyph glyph-name="nonmarkingreturn" unicode="" horiz-adv-x="490"/>
<glyph glyph-name="NULL" horiz-adv-x="0"/>
<glyph glyph-name="NULL" horiz-adv-x="0"/>
<glyph glyph-name="uni0002" horiz-adv-x="0"/>
<glyph glyph-name="space" unicode=" " horiz-adv-x="490"/>
<glyph glyph-name="exclam" unicode="!" d="M147 49q0 23 16 39.5t39 16.5t39.5 -16.5t16.5 -39.5t-16.5 -39t-39.5 -16t-39 16t-16 39zM221 401h-54v1055h54v-1055z" horiz-adv-x="397"/>
<glyph glyph-name="quotedbl" unicode='&quot;' d="M411 1393l-10 -271h-50l6 268v146h54v-143zM210 1393l-10 -271h-50q5 268 5 414h55v-143z" horiz-adv-x="521"/>
<glyph glyph-name="numbersign" unicode="#" d="M388 462h363l96 524h-365zM742 410h-364l-74 -410h-56l74 410h-271v52h281l95 524h-300v54h310l75 416h56l-76 -416h365l76 416h56l-76 -416h254v-54h-264l-96 -524h285v-52h-294l-75 -410h-56z"/>
<glyph glyph-name="dollar" unicode="$" d="M947 344q0 91 -34.5 150.5t-116.5 109.5t-242.5 105.5t-236.5 108t-112.5 122.5t-36.5 170q0 163 107 261.5t279 104.5v187h55v-187q184 -10 284 -122.5t100 -306.5h-54q0 170 -96.5 273.5t-263.5 103.5q-162 0 -259.5 -87t-97.5 -225q0 -98 32.5 -155t108 -103.5 t212.5 -93.5t210 -83.5t121 -84.5t71.5 -107t23.5 -139q0 -159 -103.5 -257.5t-277.5 -108.5v-188h-55v187q-212 8 -328 120.5t-116 309.5h54q0 -177 110.5 -277t300.5 -100q157 0 259 90t102 222z"/>
<glyph glyph-name="percent" unicode="%" d="M422 131l-45 31l711 1138l45 -31zM925 279q0 -107 59.5 -176t158.5 -69q98 0 156.5 69.5t58.5 180.5v73q0 113 -58.5 179t-158.5 66q-99 0 -157.5 -67.5t-58.5 -181.5v-74zM870 357q0 129 77.5 214.5t193.5 85.5q117 0 194.5 -85.5t77.5 -221.5v-71q0 -129 -77.5 -214.5 t-192.5 -85.5q-116 0 -194.5 85t-78.5 220v73zM169 1099q0 -104 59.5 -174t159.5 -70q96 0 155 69t59 180v72q0 108 -59.5 177t-156.5 69q-95 0 -156 -69t-61 -184v-70zM114 1176q0 129 78 215t194 86q117 0 194 -86.5t77 -219.5v-72q0 -127 -76.5 -213t-192.5 -86 q-117 0 -195.5 85t-78.5 220v71z" horiz-adv-x="1527"/>
<glyph glyph-name="ampersand" unicode="&amp;" d="M312 1169q0 -158 150 -335l175 139q145 121 145 240q0 92 -61.5 151t-158.5 59q-113 0 -181.5 -70.5t-68.5 -183.5zM549 34q111 0 211.5 47.5t176.5 135.5l-483 547l-52 -41q-118 -102 -175.5 -191t-57.5 -180q0 -142 103.5 -230t276.5 -88zM422 802q-88 108 -126.5 194 t-38.5 171q0 141 84.5 225.5t220.5 84.5q125 0 200.5 -73.5t75.5 -190.5q0 -136 -188 -292l-156 -124l475 -539q115 160 115 374h55q0 -237 -133 -416l190 -216h-67l-157 176q-196 -196 -423 -196q-201 0 -317.5 100.5t-116.5 271.5q0 98 56.5 193.5t199.5 216.5z" horiz-adv-x="1247"/>
<glyph glyph-name="quotesingle" unicode="&apos;" d="M200 1367l-14 -245h-50l9 243v171h55v-169z" horiz-adv-x="340"/>
<glyph glyph-name="parenleft" unicode="(" d="M148 586q0 216 53 425t150.5 375t210.5 237l19 -43q-98 -65 -185 -217t-139 -352t-55 -395v-52q0 -198 50 -401.5t139 -363t190 -226.5l-19 -43q-116 73 -211.5 231.5t-149 369t-53.5 455.5z" horiz-adv-x="607"/>
<glyph glyph-name="parenright" unicode=")" d="M461 566q0 -225 -53.5 -435.5t-149 -369t-211.5 -231.5l-19 43q104 70 193 232t137.5 362t48.5 423q0 202 -51 405.5t-139.5 361t-188.5 223.5l19 43q113 -71 210.5 -237t150.5 -375t53 -445z" horiz-adv-x="623"/>
<glyph glyph-name="asterisk" unicode="*" d="M393 1017l-363 124l18 54l362 -133l1 394h56l-7 -395l352 143l20 -53l-360 -137l249 -317l-47 -33l-242 322l-228 -325l-45 32z" horiz-adv-x="856"/>
<glyph glyph-name="plus" unicode="+" d="M590 702h481v-53h-481v-503h-55v503h-462v53h462v504h55v-504z" horiz-adv-x="1151"/>
<glyph glyph-name="comma" unicode="," d="M129 -255l-37 32q81 104 88 215l1 167h54v-146q-4 -159 -106 -268z" horiz-adv-x="383"/>
<glyph glyph-name="hyphen" unicode="-" d="M531 639h-470v54h470v-54z" horiz-adv-x="607"/>
<glyph glyph-name="period" unicode="." d="M147 49q0 23 16 39.5t39 16.5t39.5 -16.5t16.5 -39.5t-16.5 -39t-39.5 -16t-39 16t-16 39z" horiz-adv-x="439"/>
<glyph glyph-name="slash" unicode="/" d="M101 -125h-59l608 1581h59z" horiz-adv-x="782"/>
<glyph glyph-name="zero" unicode="0" d="M942 862q0 265 -99.5 413t-282.5 148q-184 0 -282.5 -148.5t-98.5 -417.5v-261q0 -264 101 -413t282 -149q182 0 281 149t99 418v261zM996 594q0 -293 -114 -453.5t-320 -160.5q-205 0 -321 162t-116 456v264q0 290 114.5 452.5t320.5 162.5q207 0 321.5 -162.5 t114.5 -456.5v-264z"/>
<glyph glyph-name="one" unicode="1" d="M659 0h-54v1388l-418 -157v59l461 170h11v-1460z"/>
<glyph glyph-name="two" unicode="2" d="M1024 0h-871v54l497 573q122 143 181.5 254t59.5 204q0 160 -93 248.5t-262 88.5q-102 0 -186 -49t-131.5 -135.5t-47.5 -192.5h-54q0 117 54 217t150 157t215 57q194 0 302 -103t108 -288q0 -170 -191 -407l-91 -111l-440 -513h800v-54z"/>
<glyph glyph-name="three" unicode="3" d="M417 770h122q171 3 276.5 91t105.5 224q0 155 -94.5 246t-262.5 91q-164 0 -270 -96t-106 -252h-54q0 116 56 208t155 143t219 51q189 0 300 -106.5t111 -288.5q0 -116 -73.5 -207t-198.5 -129q143 -33 223.5 -124t80.5 -235q0 -186 -119 -296t-315 -110q-132 0 -244 57 t-169 151t-57 217h54q0 -160 118 -265.5t298 -105.5q179 0 279.5 92.5t100.5 255.5q0 161 -107.5 246t-314.5 86h-114v56z"/>
<glyph glyph-name="four" unicode="4" d="M166 451h622v940l-84 -138zM842 451h252v-54h-252v-397h-54v397h-706v30l695 1029h65v-1005z"/>
<glyph glyph-name="five" unicode="5" d="M231 762l68 694h710v-53h-661l-59 -584q52 43 137.5 70t167.5 27q196 0 313 -124t117 -328q0 -237 -106 -360.5t-304 -123.5q-187 0 -302 107t-130 296h55q16 -171 112 -260t265 -89q180 0 267.5 108.5t87.5 319.5q0 182 -101.5 291t-272.5 109q-105 0 -183 -28t-140 -88 z"/>
<glyph glyph-name="six" unicode="6" d="M585 903q-140 0 -256.5 -80.5t-146.5 -201.5v-128q0 -206 117 -333t303 -127q155 0 256 129.5t101 317.5q0 194 -100 308.5t-274 114.5zM840 1476v-54q-306 0 -475 -181t-182 -508q58 103 168 163.5t241 60.5q192 0 306.5 -131t114.5 -346q0 -139 -52 -254t-147 -180.5 t-212 -65.5q-134 0 -242 62t-169 177t-63 262v179q0 388 183 602t529 214z"/>
<glyph glyph-name="seven" unicode="7" d="M1007 1422l-641 -1422h-55l634 1402h-868v54h930v-34z"/>
<glyph glyph-name="eight" unicode="8" d="M932 1091q0 142 -107 236.5t-264 94.5q-161 0 -263.5 -91t-102.5 -240q0 -142 102 -230.5t266 -88.5q162 0 265.5 89.5t103.5 229.5zM973 374q0 150 -115 247t-295 97q-181 0 -295 -96.5t-114 -247.5q0 -154 111.5 -247t299.5 -93q184 0 296 93.5t112 246.5zM986 1086 q0 -122 -75.5 -213.5t-195.5 -127.5q143 -38 228 -138t85 -228q0 -185 -126.5 -292t-336.5 -107q-214 0 -339.5 107t-125.5 292q0 129 82.5 228.5t225.5 137.5q-120 36 -193.5 127.5t-73.5 213.5q0 180 115.5 285t304.5 105q190 0 307.5 -107t117.5 -283z"/>
<glyph glyph-name="nine" unicode="9" d="M523 522q148 0 262 87t154 231v62q0 253 -104.5 386.5t-299.5 133.5q-107 0 -194 -63t-135.5 -171.5t-48.5 -229.5q0 -119 47 -220.5t130 -158.5t189 -57zM939 724q-53 -115 -164.5 -185.5t-251.5 -70.5q-120 0 -216 64.5t-150 177.5t-54 248q0 143 55 262.5t154 187.5 t219 68q225 0 343 -146.5t119 -422.5v-167q0 -369 -164 -562.5t-483 -197.5h-48l2 54h43q292 3 444 178t152 512z"/>
<glyph glyph-name="colon" unicode=":" d="M120 49q0 23 16 39.5t39 16.5t39.5 -16.5t16.5 -39.5t-16.5 -39t-39.5 -16t-39 16t-16 39zM125 1011q0 23 16 39.5t39 16.5t39.5 -16.5t16.5 -39.5t-16.5 -39t-39.5 -16t-39 16t-16 39z" horiz-adv-x="364"/>
<glyph glyph-name="semicolon" unicode=";" d="M126 1011q0 23 16 39.5t39 16.5t39.5 -16.5t16.5 -39.5t-16.5 -39t-39.5 -16t-39 16t-16 39zM118 -255l-37 32q81 104 88 215l1 167h54v-146q-4 -159 -106 -268z" horiz-adv-x="364"/>
<glyph glyph-name="less" unicode="&lt;" d="M155 669l764 -345v-59l-837 379v50l837 378v-58z" horiz-adv-x="1053"/>
<glyph glyph-name="equal" unicode="=" d="M981 436h-834v54h834v-54zM981 843h-834v54h834v-54z" horiz-adv-x="1142"/>
<glyph glyph-name="greater" unicode="&gt;" d="M872 668l-758 345v59l836 -378v-50l-836 -379v59z" horiz-adv-x="1053"/>
<glyph glyph-name="question" unicode="?" d="M371 49q0 23 16 39.5t39 16.5t39.5 -16.5t16.5 -39.5t-16.5 -39t-39.5 -16t-39 16t-16 39zM395 400q2 112 34.5 183.5t122.5 155.5t126 135t52.5 106t16.5 132q0 145 -77 228t-212 83q-144 0 -226.5 -86t-84.5 -221h-54q2 162 105 261t260 99t250 -99t93 -267 q0 -115 -45 -204.5t-175 -207.5q-132 -103 -132 -298h-54z" horiz-adv-x="893"/>
<glyph glyph-name="at" unicode="@" d="M634 279q11 -116 62.5 -180.5t133.5 -64.5q125 0 206 77.5t132 232.5l43 507q-69 82 -196 82t-223.5 -100t-136.5 -276q-25 -110 -25 -206q0 -37 4 -72zM1770 523q-5 -154 -55 -283t-131 -194.5t-184 -65.5q-100 0 -162 61t-73 169q-110 -230 -333 -230 q-136 0 -195.5 111t-59.5 261q0 40 4 84q24 251 145 401.5t292 150.5q115 0 198 -66l52 -44l-49 -585q-2 -23 -2 -44q0 -92 44 -153t142 -61q134 0 216.5 129t93.5 359q2 44 2 86q0 347 -172 546t-543 199q-224 0 -407 -112t-288 -312t-118 -452q-1 -32 -1 -63 q0 -217 78.5 -404t248.5 -298t400 -111q90 0 178 21.5t152 58.5l24 -46q-64 -42 -165.5 -65.5t-192.5 -23.5q-250 0 -430 112.5t-264 311.5t-84 441q0 32 1 66q12 280 123 492t305.5 326.5t443.5 114.5q392 0 580 -219.5t188 -594.5q0 -36 -2 -74z" horiz-adv-x="1902"/>
<glyph glyph-name="A" unicode="A" d="M274 489h673l-336 902zM967 435h-713l-162 -435h-59l545 1456h66l545 -1456h-59z" horiz-adv-x="1223"/>
<glyph glyph-name="B" unicode="B" d="M254 773h349q199 0 300 76.5t101 237.5q0 310 -409 315h-341v-629zM254 719v-665h421q185 0 290.5 91.5t105.5 253.5q0 138 -102 227.5t-273 92.5h-442zM200 0v1456h383q235 0 355.5 -95.5t120.5 -277.5q0 -132 -67 -219t-189 -111q138 -18 230 -119.5t92 -232.5 q0 -186 -120.5 -293.5t-335.5 -107.5h-469z" horiz-adv-x="1235"/>
<glyph glyph-name="C" unicode="C" d="M1190 446q-21 -225 -155 -345.5t-364 -120.5q-155 0 -274.5 78.5t-185.5 223t-67 330.5v225q0 186 65 332.5t185.5 226.5t276.5 80q228 0 363 -120t156 -344h-54q-23 201 -140 305.5t-325 104.5q-212 0 -342.5 -160t-130.5 -429v-214q0 -172 58 -304.5t166.5 -206.5 t248.5 -74q209 0 326.5 103t138.5 309h54z" horiz-adv-x="1327"/>
<glyph glyph-name="D" unicode="D" d="M254 1402v-1348h349q153 0 278.5 74.5t196.5 208t72 296.5v187q0 163 -69.5 296t-194 208.5t-275.5 77.5h-357zM200 0v1456h403q169 0 306 -80t215 -224.5t80 -323.5v-189q0 -182 -76.5 -328t-213.5 -228t-306 -83h-408z" horiz-adv-x="1340"/>
<glyph glyph-name="E" unicode="E" d="M984 722h-730v-668h832v-54h-886v1456h886v-54h-832v-626h730v-54z" horiz-adv-x="1166"/>
<glyph glyph-name="F" unicode="F" d="M1000 716h-746v-716h-54v1456h902v-54h-848v-630h746v-56z" horiz-adv-x="1172"/>
<glyph glyph-name="G" unicode="G" d="M1226 156q-55 -76 -193 -126t-304 -50q-162 0 -289 79t-198.5 223t-73.5 326v250q0 179 69 321t194 219.5t281 77.5q217 0 353.5 -111t158.5 -303h-54q-27 174 -145 267t-313 93q-220 0 -355 -157t-135 -413v-232q0 -171 63.5 -305t179 -207.5t264.5 -73.5q146 0 271 43 t172 104v424h-445v55h499v-504z" horiz-adv-x="1406"/>
<glyph glyph-name="H" unicode="H" d="M1238 0h-54v722h-930v-722h-54v1456h54v-680h930v680h54v-1456z" horiz-adv-x="1438"/>
<glyph glyph-name="I" unicode="I" d="M294 0h-54v1456h54v-1456z" horiz-adv-x="534"/>
<glyph glyph-name="J" unicode="J" d="M876 1456h54v-1014q0 -211 -115 -336.5t-305 -125.5q-204 0 -312 109t-108 312h54q0 -178 91.5 -272.5t274.5 -94.5q160 0 261.5 107t104.5 291v1024z" horiz-adv-x="1125"/>
<glyph glyph-name="K" unicode="K" d="M487 766l-233 -215v-551h-54v1456h54v-842l240 235l604 607h78l-649 -653l699 -803h-70z" horiz-adv-x="1300"/>
<glyph glyph-name="L" unicode="L" d="M255 54h747v-54h-802v1456h55v-1402z" horiz-adv-x="1057"/>
<glyph glyph-name="M" unicode="M" d="M277 1456l599 -1377l601 1377h79v-1456h-54v1376l-604 -1376h-43l-601 1369v-1369h-54v1456h77z" horiz-adv-x="1756"/>
<glyph glyph-name="N" unicode="N" d="M1249 0h-54l-940 1364v-1364h-55v1456h55l940 -1361v1361h54v-1456z" horiz-adv-x="1449"/>
<glyph glyph-name="O" unicode="O" d="M1177 839q0 264 -134 423.5t-362 159.5q-225 0 -359 -158.5t-134 -431.5v-213q0 -174 60.5 -307.5t172.5 -205.5t262 -72q228 0 361 159t133 434v212zM1231 619q0 -189 -67.5 -334.5t-192.5 -225t-288 -79.5q-246 0 -398 175t-152 472v210q0 188 67.5 334t193 225.5 t287.5 79.5q163 0 288.5 -79.5t193.5 -226t68 -333.5v-218z" horiz-adv-x="1364"/>
<glyph glyph-name="P" unicode="P" d="M254 669h401q197 0 306.5 95t109.5 265q0 176 -109.5 274.5t-306.5 98.5h-401v-733zM254 615v-615h-54v1456h455q223 0 346.5 -112.5t123.5 -312.5q0 -198 -120.5 -306t-342.5 -110h-408z" horiz-adv-x="1230"/>
<glyph glyph-name="Q" unicode="Q" d="M1177 839q0 264 -134 423.5t-362 159.5q-225 0 -359 -158.5t-134 -431.5v-213q0 -174 60.5 -307.5t172.5 -205.5t262 -72q228 0 361 159t133 434v212zM1231 619q0 -204 -79.5 -358t-227.5 -228l267 -261l-39 -35l-284 273q-90 -30 -185 -30q-246 0 -398 175t-152 472v210 q0 188 67.5 334t193 225.5t287.5 79.5q163 0 288.5 -79.5t193.5 -226t68 -333.5v-218z" horiz-adv-x="1364"/>
<glyph glyph-name="R" unicode="R" d="M249 677h459q168 0 271.5 102t103.5 257q0 170 -114.5 268t-313.5 98h-406v-725zM754 623h-505v-623h-54v1456h464q219 0 348.5 -113t129.5 -307q0 -149 -92.5 -260.5t-235.5 -138.5l389 -623v-14h-57z" horiz-adv-x="1340"/>
<glyph glyph-name="S" unicode="S" d="M1072 349q0 93 -43.5 157.5t-137 114t-282.5 101.5t-283.5 105t-138.5 123t-44 170q0 159 134 257.5t349 98.5q140 0 251.5 -54.5t172.5 -153t61 -222.5h-54q0 163 -120 269.5t-311 106.5q-192 0 -310.5 -85.5t-118.5 -214.5q0 -131 103 -211t340 -141.5t347 -142.5 q140 -103 140 -276q0 -110 -62 -194.5t-176 -130.5t-256 -46q-158 0 -284 52.5t-189.5 149.5t-63.5 229h54q0 -179 134 -278t349 -99q191 0 315 87.5t124 227.5z" horiz-adv-x="1211"/>
<glyph glyph-name="T" unicode="T" d="M1169 1402h-530v-1402h-54v1402h-530v54h1114v-54z" horiz-adv-x="1224"/>
<glyph glyph-name="U" unicode="U" d="M1180 1456v-986q0 -231 -134 -360.5t-363 -129.5t-363 129.5t-135 356.5v990h54v-984q0 -202 121.5 -320t322.5 -118t322 118t121 321v983h54z" horiz-adv-x="1365"/>
<glyph glyph-name="V" unicode="V" d="M583 142l29 -88l29 88l489 1314h59l-544 -1456h-66l-544 1456h59z" horiz-adv-x="1223"/>
<glyph glyph-name="W" unicode="W" d="M489 90l66 240l344 1126h60l342 -1126l65 -240l68 240l300 1126h59l-392 -1456h-61l-361 1214l-51 154l-49 -154l-364 -1214h-61l-393 1456h60l302 -1126z" horiz-adv-x="1855"/>
<glyph glyph-name="X" unicode="X" d="M611 785l470 671h68l-504 -713l523 -743h-67l-490 701l-492 -701h-65l523 743l-504 713h68z" horiz-adv-x="1223"/>
<glyph glyph-name="Y" unicode="Y" d="M609 602l510 854h66l-549 -903v-553h-54v553l-549 903h72z" horiz-adv-x="1223"/>
<glyph glyph-name="Z" unicode="Z" d="M168 54h962v-54h-1036v44l929 1359h-889v53h964v-38z" horiz-adv-x="1224"/>
<glyph glyph-name="bracketleft" unicode="[" d="M464 1610h-229v-1868h229v-54h-283v1976h283v-54z" horiz-adv-x="439"/>
<glyph glyph-name="backslash" unicode="\" d="M57 1456h58l608 -1581h-58z" horiz-adv-x="774"/>
<glyph glyph-name="bracketright" unicode="]" d="M-8 1664h283v-1976h-283v54h228v1868h-228v54z" horiz-adv-x="439"/>
<glyph glyph-name="asciicircum" unicode="^" d="M416 1382l-266 -653h-59l299 727h52l299 -727h-61z" horiz-adv-x="849"/>
<glyph glyph-name="underscore" unicode="_" d="M845 -54h-846v54h846v-54z" horiz-adv-x="845"/>
<glyph glyph-name="grave" unicode="`" d="M403 1250h-59l-195 266h66z" horiz-adv-x="537"/>
<glyph glyph-name="a" unicode="a" d="M425 33q152 0 261.5 68t164.5 191v257h-250q-232 0 -355 -92q-100 -75 -100 -187q0 -99 79 -168t200 -69zM871 0q-20 69 -20 198q-64 -104 -175 -161t-251 -57q-150 0 -241.5 81.5t-91.5 212.5q0 149 134.5 238.5t357.5 91.5h267v158q0 136 -85.5 211t-244.5 75 q-148 0 -247 -76t-99 -188l-54 2q0 132 116 224t284 92q175 0 278 -87.5t106 -246.5v-517q0 -178 28 -242v-9h-62z" horiz-adv-x="1081"/>
<glyph glyph-name="b" unicode="b" d="M943 552q0 233 -92.5 364.5t-258.5 131.5q-136 0 -230.5 -70t-137.5 -208v-496q43 -115 137.5 -177.5t232.5 -62.5q167 0 258 133t91 385zM999 531q0 -253 -109 -402t-297 -149q-122 0 -218 50.5t-151 140.5v-171h-54v1536h54v-651q57 107 150.5 162t216.5 55 q190 0 299 -145.5t109 -408.5v-17z"/>
<glyph glyph-name="c" unicode="c" d="M539 34q147 0 242.5 78t104.5 216h54q-8 -157 -121 -252.5t-280 -95.5q-203 0 -322.5 147t-119.5 399v36q0 246 119.5 393t320.5 147q172 0 284 -103t119 -274h-54q-7 146 -102.5 234.5t-246.5 88.5q-181 0 -283.5 -130.5t-102.5 -362.5v-35q0 -227 103.5 -356.5 t284.5 -129.5z" horiz-adv-x="1039"/>
<glyph glyph-name="d" unicode="d" d="M178 531q0 -230 91 -363.5t258 -133.5q134 0 229 59.5t141 174.5v507q-93 273 -368 273q-166 0 -258.5 -131t-92.5 -386zM122 552q0 259 109 404.5t299 145.5q122 0 215.5 -55t151.5 -164v653h54v-1536h-54v173q-55 -92 -151 -142.5t-218 -50.5q-188 0 -297 149t-109 409 v14z"/>
<glyph glyph-name="e" unicode="e" d="M541 1048q-158 0 -268 -117.5t-129 -299.5h754v13q0 110 -46.5 204.5t-128 147t-182.5 52.5zM561 -20q-131 0 -240.5 70.5t-171.5 193.5t-62 273v45q0 150 60 275t165 195t229 70q181 0 296 -129t115 -339v-57h-811v-59q0 -132 55.5 -244.5t153 -176.5t211.5 -64 q109 0 185.5 36.5t135.5 112.5l38 -27q-121 -175 -359 -175z" horiz-adv-x="1032"/>
<glyph glyph-name="f" unicode="f" d="M254 0v1027h-188v55h188v158q1 150 75.5 233.5t207.5 83.5q74 0 128 -17l-8 -52q-52 15 -119 15q-107 0 -168.5 -69.5t-61.5 -197.5v-154h286v-55h-286v-1027h-54z" horiz-adv-x="645"/>
<glyph glyph-name="g" unicode="g" d="M176 531q0 -232 92 -364.5t258 -132.5q137 0 233 63.5t136 178.5v491q-88 281 -367 281q-167 0 -259.5 -131t-92.5 -386zM121 552q0 259 109 404.5t299 145.5q121 0 215 -55.5t151 -162.5v198h55v-1063q0 -214 -110 -334.5t-299 -120.5q-109 0 -199.5 47t-154.5 135 l38 36q63 -80 138 -122.5t176 -42.5q167 0 260 101.5t96 286.5v166q-56 -92 -151.5 -141.5t-216.5 -49.5q-188 0 -297 149t-109 409v14z" horiz-adv-x="1123"/>
<glyph glyph-name="h" unicode="h" d="M226 830q53 126 156 199t228 73q174 0 258.5 -98.5t85.5 -297.5v-706h-54v708q-1 174 -71 257.5t-222 83.5q-140 0 -242.5 -99.5t-138.5 -256.5v-693h-54v1536h54v-706z"/>
<glyph glyph-name="i" unicode="i" d="M157 1420q0 23 16 39.5t39 16.5t39.5 -16.5t16.5 -39.5t-16.5 -39t-39.5 -16t-39 16t-16 39zM239 0h-54v1082h54v-1082z" horiz-adv-x="422"/>
<glyph glyph-name="j" unicode="j" d="M163 1420q0 23 16 39.5t39 16.5t39.5 -16.5t16.5 -39.5t-16.5 -39t-39.5 -16t-39 16t-16 39zM240 1082v-1211q0 -150 -75 -229t-210 -79q-49 0 -98 20l3 52q48 -18 95 -18q112 0 171.5 66.5t59.5 187.5v1211h54z" horiz-adv-x="445"/>
<glyph glyph-name="k" unicode="k" d="M385 585l-2 -2l-157 -135v-448h-54v1536h54v-1029l127 120l492 455h77l-497 -461l528 -621h-70z" horiz-adv-x="969"/>
<glyph glyph-name="l" unicode="l" d="M239 0h-54v1536h54v-1536z" horiz-adv-x="422"/>
<glyph glyph-name="m" unicode="m" d="M946 0h-54v727q-1 163 -71.5 242.5t-224.5 79.5q-178 0 -291 -157q-67 -94 -89 -208v-684h-55v1082h55v-256q55 132 157 204t226 72q136 0 222.5 -60t113.5 -196q48 117 156 186.5t242 69.5q175 0 260.5 -99t86.5 -297v-706h-54v702q0 178 -72 264q-70 84 -217 83h-7 q-197 -3 -312 -157q-66 -89 -72 -172v-720z" horiz-adv-x="1836"/>
<glyph glyph-name="n" unicode="n" d="M226 830q53 126 156 199t228 73q174 0 258.5 -98.5t85.5 -297.5v-706h-54v708q-1 174 -71 257.5t-222 83.5q-140 0 -242.5 -99.5t-138.5 -256.5v-693h-54v1082h54v-252z"/>
<glyph glyph-name="o" unicode="o" d="M144 520q0 -135 53.5 -247.5t149 -175.5t218.5 -63q185 0 301.5 139t116.5 358v31q0 133 -54 246t-149.5 176.5t-216.5 63.5q-185 0 -302 -141t-117 -355v-32zM90 562q0 155 59.5 278.5t168 192.5t245.5 69q136 0 244 -67t168.5 -190t61.5 -277v-48q0 -156 -59 -279 t-167.5 -192t-245.5 -69t-245.5 68t-168.5 190.5t-61 275.5v48z" horiz-adv-x="1127"/>
<glyph glyph-name="p" unicode="p" d="M944 552q0 233 -92.5 364.5t-259.5 131.5q-136 0 -231 -70.5t-137 -202.5v-506q42 -112 137.5 -173.5t232.5 -61.5q166 0 258 132t92 386zM999 531q0 -253 -109 -402t-297 -149q-123 0 -219 50t-150 138v-584h-54v1498h54v-193q56 103 151 158t216 55q190 0 299 -145.5 t109 -408.5v-17z"/>
<glyph glyph-name="q" unicode="q" d="M178 531q0 -230 91 -363.5t258 -133.5q134 0 229 59.5t141 174.5v507q-47 135 -142 204t-226 69q-166 0 -258.5 -131t-92.5 -386zM122 552q0 259 109 404.5t299 145.5q121 0 216 -55t151 -158v193h54v-1498h-54v584q-58 -91 -153.5 -139.5t-215.5 -48.5q-188 0 -297 149 t-109 409v14z"/>
<glyph glyph-name="r" unicode="r" d="M649 1043l-70 6q-138 0 -231 -89.5t-122 -250.5v-709h-54v1082h54v-225q44 113 132 179t221 66q47 0 76 -11z" horiz-adv-x="685"/>
<glyph glyph-name="s" unicode="s" d="M839 265q0 197 -336 268q-202 43 -281 110.5t-79 185.5q0 119 100.5 196t261.5 77q175 0 281 -83.5t106 -225.5h-55q0 109 -92 182t-240 73q-142 0 -225 -62t-83 -155q0 -73 31 -114.5t101 -75t204 -64.5t212 -73t113 -99.5t35 -140.5q0 -128 -105 -206t-275 -78 q-182 0 -293.5 82.5t-111.5 212.5h54q8 -114 100.5 -177.5t250.5 -63.5q145 0 235.5 67.5t90.5 163.5z" horiz-adv-x="1019"/>
<glyph glyph-name="t" unicode="t" d="M293 1374v-292h246v-55h-246v-768q0 -115 37.5 -170t125.5 -55q44 0 107 9l9 -51q-33 -12 -113 -12q-118 0 -169 65.5t-52 206.5v775h-200v55h200v292h55z" horiz-adv-x="648"/>
<glyph glyph-name="u" unicode="u" d="M897 0v175q-48 -90 -140 -142.5t-233 -52.5q-177 0 -265.5 103.5t-90.5 301.5v697h54v-699q2 -172 78 -260.5t222 -88.5q155 0 252 73t123 214v761h55v-1082h-55z"/>
<glyph glyph-name="v" unicode="v" d="M490 86l389 996h58l-421 -1082h-53l-420 1082h58z" horiz-adv-x="978"/>
<glyph glyph-name="w" unicode="w" d="M366 313l59 -233l317 1002h55l315 -1002l61 233l220 769h63l-315 -1082h-54l-267 813l-51 194l-55 -194l-263 -813h-54l-314 1082h62z" horiz-adv-x="1550"/>
<glyph glyph-name="x" unicode="x" d="M489 602l345 480h68l-380 -527l400 -555h-67l-367 508l-366 -508h-67l400 555l-380 527h68z" horiz-adv-x="978"/>
<glyph glyph-name="y" unicode="y" d="M503 84l7 20l374 978h60l-484 -1270l-24 -60q-78 -189 -258 -189q-58 0 -80 11l-1 51q32 -9 73 -9q85 0 141 49.5t97 161.5l66 179l-431 1076h59z" horiz-adv-x="978"/>
<glyph glyph-name="z" unicode="z" d="M160 54h770v-54h-843v44l711 983h-680v55h753v-48z" horiz-adv-x="978"/>
<glyph glyph-name="braceleft" unicode="{" d="M642 -441q-160 50 -239.5 163t-79.5 298v241q0 282 -250 282v66q250 0 250 280v247q1 185 80.5 298t238.5 163l15 -45q-280 -91 -280 -427v-228q0 -272 -211 -321q211 -53 211 -321v-229q0 -325 285 -421z" horiz-adv-x="660"/>
<glyph glyph-name="bar" unicode="|" d="M235 -270h-54v1726h54v-1726z" horiz-adv-x="406"/>
<glyph glyph-name="braceright" unicode="}" d="M0 -395q284 97 284 417v233q0 268 211 321q-211 49 -211 321v227q0 338 -279 428l14 45q160 -50 238.5 -162.5t80.5 -293.5v-249q0 -283 250 -283v-66q-250 0 -250 -285v-237q0 -186 -78.5 -298.5t-240.5 -163.5z" horiz-adv-x="660"/>
<glyph glyph-name="asciitilde" unicode="~" d="M1246 752q0 -138 -73.5 -223.5t-195.5 -85.5q-71 0 -132 28t-158.5 115t-147.5 110.5t-111 23.5q-100 0 -156.5 -65t-56.5 -193h-55q0 143 71.5 227.5t196.5 84.5q72 0 135 -29.5t160 -116t147 -109.5t107 -23q101 0 157 67.5t56 189.5z" horiz-adv-x="1412"/>
<glyph glyph-name="uni00A0" unicode=" " horiz-adv-x="490"/>
<glyph glyph-name="exclamdown" unicode="¡" d="M253 1048q0 -23 -16 -39.5t-39 -16.5t-39.5 16.5t-16.5 39.5t16.5 39t39.5 16t39 -16t16 -39zM179 696h54v-1055h-54v1055z" horiz-adv-x="406"/>
<glyph glyph-name="cent" unicode="¢" d="M576 34q147 0 242.5 78t104.5 216h54q-8 -150 -113 -244.5t-260 -102.5v-226h-55v226q-191 10 -303 155t-112 390v36q0 240 112 384.5t303 154.5v217h55v-217q163 -11 264.5 -112t108.5 -264h-54q-7 146 -102.5 234.5t-246.5 88.5q-181 0 -283.5 -130.5t-102.5 -362.5 v-35q0 -227 103.5 -356.5t284.5 -129.5z" horiz-adv-x="1110"/>
<glyph glyph-name="sterling" unicode="£" d="M360 667l10 -331v-20q0 -178 -67 -262h757l1 -54h-962v54h120q48 14 72.5 91.5t24.5 175.5v15l-10 331h-211v54h209l-9 318q0 204 99 320.5t267 116.5q173 0 273.5 -104t100.5 -283h-54q0 159 -85.5 246t-234.5 87q-147 0 -229.5 -100t-82.5 -283l9 -318h370v-54h-368z " horiz-adv-x="1150"/>
<glyph glyph-name="currency" unicode="¤" d="M204 608q0 -154 73.5 -288t198.5 -210.5t269 -76.5q143 0 268 76.5t198.5 210.5t73.5 288q0 153 -72.5 285.5t-198 210t-269.5 77.5t-270 -77.5t-198.5 -210t-72.5 -285.5zM1159 156q-81 -83 -187 -129.5t-227 -46.5t-227.5 46t-187.5 128l-176 -180l-40 39l179 182 q-144 176 -144 413q0 246 154 424l-189 193l40 39l188 -192q171 162 403 162q118 0 220.5 -43.5t182.5 -120.5l191 195l41 -40l-193 -196q152 -178 152 -421q0 -234 -141 -409l182 -186l-41 -40z" horiz-adv-x="1502"/>
<glyph glyph-name="yen" unicode="¥" d="M1079 1456h66l-489 -780h424v-55h-452v-240h452v-55h-452v-326h-54v326h-450v55h450v240h-450v55h421l-487 780h65l452 -718l24 -51h5l24 51z" horiz-adv-x="1207"/>
<glyph glyph-name="brokenbar" unicode="¦" d="M226 698h-54v758h54v-758zM172 -270v752h54v-752h-54z" horiz-adv-x="398"/>
<glyph glyph-name="section" unicode="§" d="M590 766q-59 13 -108 30q-143 -5 -225 -70.5t-82 -172.5q0 -93 39 -147t133.5 -97.5t345.5 -112.5q157 2 252 66.5t95 165.5q0 85 -41 141t-134 101t-275 96zM1094 431q0 -105 -82 -176t-222 -91q142 -54 201 -127.5t59 -185.5q0 -160 -121.5 -253t-328.5 -93 q-226 0 -355.5 112.5t-129.5 318.5l54 2q0 -180 116 -279.5t315 -99.5q183 0 289 79.5t106 210.5q0 88 -36.5 141.5t-118.5 94.5t-233 81q-271 64 -378.5 153.5t-107.5 231.5q0 109 77 180t209 91q-129 51 -185 125t-56 182q0 157 122.5 252t329.5 95q215 0 334.5 -112.5 t119.5 -318.5h-54q0 167 -109 272t-291 105q-184 0 -291 -77t-107 -213q0 -91 36 -145t118.5 -96t241.5 -87q208 -52 298.5 -99t135 -112.5t44.5 -161.5z" horiz-adv-x="1223"/>
<glyph glyph-name="dieresis" unicode="¨" d="M629 1421q0 23 16 39.5t39 16.5t39.5 -16.5t16.5 -39.5t-16.5 -39t-39.5 -16t-39 16t-16 39zM184 1421q0 23 16 39.5t39 16.5t39.5 -16.5t16.5 -39.5t-16.5 -39t-39.5 -16t-39 16t-16 39z" horiz-adv-x="906"/>
<glyph glyph-name="copyright" unicode="©" d="M123 729q0 202 93.5 375t259 272.5t357.5 99.5t357.5 -99.5t259 -272.5t93.5 -375q0 -199 -91 -371t-256.5 -275.5t-362.5 -103.5t-362.5 103.5t-256.5 275.5t-91 371zM179 729q0 -188 88.5 -349.5t240 -253.5t325.5 -92q176 0 328 94t239 254.5t87 346.5 q0 187 -87 346.5t-239.5 252.5t-327.5 93q-173 0 -325 -91t-240.5 -251.5t-88.5 -349.5zM1124 616q0 -152 -78.5 -233t-219.5 -81q-144 0 -232 107.5t-88 283.5v75q0 173 89 280t231 107q143 0 221 -82.5t78 -230.5h-52q0 131 -64 195.5t-183 64.5t-192 -92t-73 -247v-74 q0 -149 72.5 -240.5t192.5 -91.5q246 0 246 259h52z" horiz-adv-x="1666"/>
<glyph glyph-name="ordfeminine" unicode="ª" d="M418 746q70 0 144.5 47t94.5 106v179h-167q-268 0 -268 -174q0 -158 196 -158zM680 705q-18 54 -22 118q-39 -60 -104.5 -96t-136.5 -36q-121 0 -185 57t-64 152q0 109 83.5 170.5t235.5 61.5h170v69q0 104 -49.5 162.5t-149.5 58.5q-109 0 -173 -44t-64 -135h-54 q0 102 81 167.5t210 65.5q116 0 185 -72t69 -204v-316q0 -92 26 -179h-58z" horiz-adv-x="898"/>
<glyph glyph-name="guillemotleft" unicode="«" d="M216 525l294 -379h-70l-295 370v19l295 370h70zM503 525l294 -379h-70l-295 370v19l295 370h70z" horiz-adv-x="905"/>
<glyph glyph-name="logicalnot" unicode="¬" d="M915 396h-54v304h-739v53h793v-357z" horiz-adv-x="1101"/>
<glyph glyph-name="uni00AD" unicode="­" d="M531 639h-470v54h470v-54z" horiz-adv-x="607"/>
<glyph glyph-name="registered" unicode="®" d="M648 734h205q96 0 154.5 50.5t58.5 132.5q0 98 -51.5 140t-168.5 44h-198v-367zM648 678v-352h-55v830h239q289 0 289 -240q0 -144 -153 -206q132 -39 132 -208q0 -111 17 -160v-16h-59q-14 36 -14 176q0 92 -38.5 133t-132.5 43h-225zM170 729q0 -186 87 -346.5 t239 -254.5t329 -94q176 0 328 94t239 254.5t87 346.5q0 187 -87 346.5t-239.5 252.5t-327.5 93q-176 0 -328.5 -93t-239.5 -252.5t-87 -346.5zM115 729q0 202 93.5 375t259 272.5t357.5 99.5t357.5 -99.5t259 -272.5t93.5 -375q0 -199 -91 -371t-256.5 -275.5 t-362.5 -103.5t-362.5 103.5t-256.5 275.5t-91 371z" horiz-adv-x="1674"/>
<glyph glyph-name="macron" unicode="¯" d="M719 1403h-627v53h627v-53z" horiz-adv-x="811"/>
<glyph glyph-name="degree" unicode="°" d="M211 1236q0 -77 51 -129t130 -52q76 0 126 50.5t50 130.5q0 82 -50.5 133.5t-125.5 51.5q-78 0 -129.5 -53t-51.5 -132zM156 1236q0 97 69 168.5t167 71.5q96 0 164 -71.5t68 -168.5q0 -98 -68 -167.5t-164 -69.5q-98 0 -167 69t-69 168z" horiz-adv-x="783"/>
<glyph glyph-name="plusminus" unicode="±" d="M957 -1h-835v54h835v-54zM569 805h419v-54h-419v-462h-54v462h-443v54h443v462h54v-462z" horiz-adv-x="1077"/>
<glyph glyph-name="twosuperior" unicode="²" d="M651 664h-543v44l290 295q79 77 116 135t37 109q0 77 -49 122.5t-146 45.5q-102 0 -159 -52t-57 -137h-54q0 103 75.5 170.5t194.5 67.5q116 0 182.5 -59t66.5 -157q0 -94 -113 -217l-66 -70l-251 -248h476v-49z" horiz-adv-x="728"/>
<glyph glyph-name="threesuperior" unicode="³" d="M270 1090h75q101 1 160 45.5t59 113.5q0 77 -53.5 121.5t-148.5 44.5q-91 0 -151.5 -46.5t-60.5 -122.5h-53q0 96 75.5 157t189.5 61q119 0 187.5 -58t68.5 -160q0 -57 -40 -106.5t-115 -72.5q86 -20 130 -70t44 -122q0 -100 -74 -161t-196 -61q-124 0 -205.5 63.5 t-81.5 164.5h54q0 -78 65 -129t168 -51t159.5 46t56.5 127q0 167 -253 167h-60v49z" horiz-adv-x="728"/>
<glyph glyph-name="acute" unicode="´" d="M315 1516h66l-195 -266h-60z" horiz-adv-x="511"/>
<glyph glyph-name="mu" unicode="µ" d="M223 1082v-661q3 -189 79.5 -288t226.5 -99q176 0 265.5 90.5t104.5 289.5v668h54v-1082h-51l-3 203q-96 -223 -361 -223q-114 0 -193.5 50t-121.5 141v-587h-52v1498h52z"/>
<glyph glyph-name="paragraph" unicode="¶" d="M716 0v520h-127q-150 0 -261 58t-170 164.5t-59 245.5q0 213 133 340.5t361 127.5h177v-1456h-54z" horiz-adv-x="946"/>
<glyph glyph-name="periodcentered" unicode="·" d="M179 706q0 23 16 39.5t39 16.5t39.5 -16.5t16.5 -39.5t-16.5 -39t-39.5 -16t-39 16t-16 39z" horiz-adv-x="472"/>
<glyph glyph-name="cedilla" unicode="¸" d="M207 0l-11 -76q177 -16 177 -169q0 -85 -76 -137.5t-209 -52.5l-7 49q101 0 169 39.5t68 101.5q0 56 -38.5 84t-150.5 40l25 121h53z" horiz-adv-x="490"/>
<glyph glyph-name="onesuperior" unicode="¹" d="M433 664h-54v722l-248 -81v53l293 97h9v-791z" horiz-adv-x="728"/>
<glyph glyph-name="ordmasculine" unicode="º" d="M202 1024q0 -131 66.5 -205.5t185.5 -74.5q116 0 183 76.5t67 207.5v113q0 128 -68.5 204.5t-183.5 76.5q-114 0 -182 -76t-68 -211v-111zM148 1141q0 150 83.5 242.5t220.5 92.5t221 -92t84 -248v-112q0 -151 -83.5 -242.5t-219.5 -91.5q-137 0 -221.5 91t-84.5 248v112 z" horiz-adv-x="914"/>
<glyph glyph-name="guillemotright" unicode="»" d="M198 940l294 -380v-19l-294 -370h-70l293 379l-293 390h70zM488 940l294 -380v-19l-294 -370h-70l293 379l-293 390h70z" horiz-adv-x="897"/>
<glyph glyph-name="onequarter" unicode="¼" d="M447 664h-54v722l-248 -81v53l293 97h9v-791zM386 139l-45 31l711 1138l45 -31zM818 253h354v474l-44 -71zM1225 253h147v-49h-147v-204h-53v204h-423l-1 32l417 553h60v-536z" horiz-adv-x="1467"/>
<glyph glyph-name="onehalf" unicode="½" d="M343 139l-45 31l711 1138l45 -31zM424 664h-54v722l-248 -81v53l293 97h9v-791zM1392 0h-543v44l290 295q79 77 116 135t37 109q0 77 -49 122.5t-146 45.5q-102 0 -159 -52t-57 -137h-54q0 103 75.5 170.5t194.5 67.5q116 0 182.5 -59t66.5 -157q0 -94 -113 -217l-66 -70 l-251 -248h476v-49z" horiz-adv-x="1508"/>
<glyph glyph-name="threequarters" unicode="¾" d="M548 139l-45 31l711 1138l45 -31zM958 253h354v474l-44 -71zM1365 253h147v-49h-147v-204h-53v204h-423l-1 32l417 553h60v-536zM314 1090h75q101 1 160 45.5t59 113.5q0 77 -53.5 121.5t-148.5 44.5q-91 0 -151.5 -46.5t-60.5 -122.5h-53q0 96 75.5 157t189.5 61 q119 0 187.5 -58t68.5 -160q0 -57 -40 -106.5t-115 -72.5q86 -20 130 -70t44 -122q0 -100 -74 -161t-196 -61q-124 0 -205.5 63.5t-81.5 164.5h54q0 -78 65 -129t168 -51t159.5 46t56.5 127q0 167 -253 167h-60v49z" horiz-adv-x="1586"/>
<glyph glyph-name="questiondown" unicode="¿" d="M538 1046q0 -23 -16 -39.5t-39 -16.5t-39.5 16.5t-16.5 39.5t16.5 39t39.5 16t39 -16t16 -39zM514 695q-2 -102 -11.5 -138.5t-33.5 -69.5t-80 -84l-78 -76q-79 -79 -114 -161t-35 -183q0 -149 79 -230t220 -81q138 0 217.5 82.5t83.5 224.5h54q-2 -167 -97.5 -263.5 t-257.5 -96.5q-165 0 -259 100.5t-94 265.5q0 121 52 222.5t201 237.5q51 40 73.5 81t24.5 100l1 69h54z" horiz-adv-x="912"/>
<glyph glyph-name="Agrave" unicode="À" d="M274 489h673l-336 902zM967 435h-713l-162 -435h-59l545 1456h66l545 -1456h-59zM655 1569h-59l-195 266h66z" horiz-adv-x="1223"/>
<glyph glyph-name="Aacute" unicode="Á" d="M274 489h673l-336 902zM967 435h-713l-162 -435h-59l545 1456h66l545 -1456h-59zM761 1835h66l-195 -266h-60z" horiz-adv-x="1223"/>
<glyph glyph-name="Acircumflex" unicode="Â" d="M274 489h673l-336 902zM967 435h-713l-162 -435h-59l545 1456h66l545 -1456h-59zM866 1593v-10h-68l-187 196l-185 -196h-64v14l230 239h40z" horiz-adv-x="1223"/>
<glyph glyph-name="Atilde" unicode="Ã" d="M274 489h673l-336 902zM967 435h-713l-162 -435h-59l545 1456h66l545 -1456h-59zM940 1806q0 -82 -50.5 -134t-125.5 -52q-81 0 -153 62.5t-134 62.5q-56 0 -88.5 -34t-32.5 -91h-55q0 80 50 129.5t126 49.5q78 0 153.5 -62t133.5 -62q54 0 87.5 36t33.5 95h55z" horiz-adv-x="1223"/>
<glyph glyph-name="Adieresis" unicode="Ä" d="M274 489h673l-336 902zM967 435h-713l-162 -435h-59l545 1456h66l545 -1456h-59zM791 1740q0 23 16 39.5t39 16.5t39.5 -16.5t16.5 -39.5t-16.5 -39t-39.5 -16t-39 16t-16 39zM346 1740q0 23 16 39.5t39 16.5t39.5 -16.5t16.5 -39.5t-16.5 -39t-39.5 -16t-39 16t-16 39z " horiz-adv-x="1223"/>
<glyph glyph-name="Aring" unicode="Å" d="M274 489h673l-336 902zM967 435h-713l-162 -435h-59l545 1456h66l545 -1456h-59zM497 1701q0 -52 33 -84t84 -32t84 32t33 84q0 54 -33 87t-84 33t-84 -33t-33 -87zM614 1875q72 0 121.5 -51t49.5 -123t-49.5 -121t-121.5 -49q-69 0 -120 47.5t-51 122.5t50.5 124.5 t120.5 49.5z" horiz-adv-x="1223"/>
<glyph glyph-name="AE" unicode="Æ" d="M403 478h593l-39 920zM1768 0h-752l-18 425h-627l-256 -425h-65l881 1456h776v-54h-696l26 -616h588v-54h-586l28 -678h701v-54z" horiz-adv-x="1816"/>
<glyph glyph-name="Ccedilla" unicode="Ç" d="M1190 446q-21 -225 -155 -345.5t-364 -120.5q-155 0 -274.5 78.5t-185.5 223t-67 330.5v225q0 186 65 332.5t185.5 226.5t276.5 80q228 0 363 -120t156 -344h-54q-23 201 -140 305.5t-325 104.5q-212 0 -342.5 -160t-130.5 -429v-214q0 -172 58 -304.5t166.5 -206.5 t248.5 -74q209 0 326.5 103t138.5 309h54zM706 -9l-11 -76q177 -16 177 -169q0 -85 -76 -137.5t-209 -52.5l-7 49q101 0 169 39.5t68 101.5q0 56 -38.5 84t-150.5 40l25 121h53z" horiz-adv-x="1327"/>
<glyph glyph-name="Egrave" unicode="È" d="M984 722h-730v-668h832v-54h-886v1456h886v-54h-832v-626h730v-54zM662 1569h-59l-195 266h66z" horiz-adv-x="1166"/>
<glyph glyph-name="Eacute" unicode="É" d="M984 722h-730v-668h832v-54h-886v1456h886v-54h-832v-626h730v-54zM768 1835h66l-195 -266h-60z" horiz-adv-x="1166"/>
<glyph glyph-name="Ecircumflex" unicode="Ê" d="M984 722h-730v-668h832v-54h-886v1456h886v-54h-832v-626h730v-54zM873 1593v-10h-68l-187 196l-185 -196h-64v14l230 239h40z" horiz-adv-x="1166"/>
<glyph glyph-name="Edieresis" unicode="Ë" d="M984 722h-730v-668h832v-54h-886v1456h886v-54h-832v-626h730v-54zM798 1740q0 23 16 39.5t39 16.5t39.5 -16.5t16.5 -39.5t-16.5 -39t-39.5 -16t-39 16t-16 39zM353 1740q0 23 16 39.5t39 16.5t39.5 -16.5t16.5 -39.5t-16.5 -39t-39.5 -16t-39 16t-16 39z" horiz-adv-x="1166"/>
<glyph glyph-name="Igrave" unicode="Ì" d="M294 0h-54v1456h54v-1456zM312 1569h-59l-195 266h66z" horiz-adv-x="534"/>
<glyph glyph-name="Iacute" unicode="Í" d="M294 0h-54v1456h54v-1456zM417 1835h66l-195 -266h-60z" horiz-adv-x="534"/>
<glyph glyph-name="Icircumflex" unicode="Î" d="M294 0h-54v1456h54v-1456zM523 1593v-10h-68l-187 196l-185 -196h-64v14l230 239h40z" horiz-adv-x="534"/>
<glyph glyph-name="Idieresis" unicode="Ï" d="M294 0h-54v1456h54v-1456zM448 1740q0 23 16 39.5t39 16.5t39.5 -16.5t16.5 -39.5t-16.5 -39t-39.5 -16t-39 16t-16 39zM3 1740q0 23 16 39.5t39 16.5t39.5 -16.5t16.5 -39.5t-16.5 -39t-39.5 -16t-39 16t-16 39z" horiz-adv-x="534"/>
<glyph glyph-name="Eth" unicode="Ð" d="M647 713h-363v-659h339q247 0 402 166t155 427v173q0 163 -69.5 296t-194 208.5t-275.5 77.5h-357v-635h363v-54zM230 0v713h-170v54h170v689h403q169 0 306 -80t215 -224.5t80 -323.5v-189q0 -182 -76.5 -328t-213.5 -228t-306 -83h-408z" horiz-adv-x="1370"/>
<glyph glyph-name="Ntilde" unicode="Ñ" d="M1249 0h-54l-940 1364v-1364h-55v1456h55l940 -1361v1361h54v-1456zM1054 1806q0 -82 -50.5 -134t-125.5 -52q-81 0 -153 62.5t-134 62.5q-56 0 -88.5 -34t-32.5 -91h-55q0 80 50 129.5t126 49.5q78 0 153.5 -62t133.5 -62q54 0 87.5 36t33.5 95h55z" horiz-adv-x="1449"/>
<glyph glyph-name="Ograve" unicode="Ò" d="M1177 839q0 264 -134 423.5t-362 159.5q-225 0 -359 -158.5t-134 -431.5v-213q0 -174 60.5 -307.5t172.5 -205.5t262 -72q228 0 361 159t133 434v212zM1231 619q0 -189 -67.5 -334.5t-192.5 -225t-288 -79.5q-246 0 -398 175t-152 472v210q0 188 67.5 334t193 225.5 t287.5 79.5q163 0 288.5 -79.5t193.5 -226t68 -333.5v-218zM719 1590h-59l-195 266h66z" horiz-adv-x="1364"/>
<glyph glyph-name="Oacute" unicode="Ó" d="M1177 839q0 264 -134 423.5t-362 159.5q-225 0 -359 -158.5t-134 -431.5v-213q0 -174 60.5 -307.5t172.5 -205.5t262 -72q228 0 361 159t133 434v212zM1231 619q0 -189 -67.5 -334.5t-192.5 -225t-288 -79.5q-246 0 -398 175t-152 472v210q0 188 67.5 334t193 225.5 t287.5 79.5q163 0 288.5 -79.5t193.5 -226t68 -333.5v-218zM825 1856h66l-195 -266h-60z" horiz-adv-x="1364"/>
<glyph glyph-name="Ocircumflex" unicode="Ô" d="M1177 839q0 264 -134 423.5t-362 159.5q-225 0 -359 -158.5t-134 -431.5v-213q0 -174 60.5 -307.5t172.5 -205.5t262 -72q228 0 361 159t133 434v212zM1231 619q0 -189 -67.5 -334.5t-192.5 -225t-288 -79.5q-246 0 -398 175t-152 472v210q0 188 67.5 334t193 225.5 t287.5 79.5q163 0 288.5 -79.5t193.5 -226t68 -333.5v-218zM930 1593v-10h-68l-187 196l-185 -196h-64v14l230 239h40z" horiz-adv-x="1364"/>
<glyph glyph-name="Otilde" unicode="Õ" d="M1177 839q0 264 -134 423.5t-362 159.5q-225 0 -359 -158.5t-134 -431.5v-213q0 -174 60.5 -307.5t172.5 -205.5t262 -72q228 0 361 159t133 434v212zM1231 619q0 -189 -67.5 -334.5t-192.5 -225t-288 -79.5q-246 0 -398 175t-152 472v210q0 188 67.5 334t193 225.5 t287.5 79.5q163 0 288.5 -79.5t193.5 -226t68 -333.5v-218zM1004 1827q0 -82 -50.5 -134t-125.5 -52q-81 0 -153 62.5t-134 62.5q-56 0 -88.5 -34t-32.5 -91h-55q0 80 50 129.5t126 49.5q78 0 153.5 -62t133.5 -62q54 0 87.5 36t33.5 95h55z" horiz-adv-x="1364"/>
<glyph glyph-name="Odieresis" unicode="Ö" d="M1177 839q0 264 -134 423.5t-362 159.5q-225 0 -359 -158.5t-134 -431.5v-213q0 -174 60.5 -307.5t172.5 -205.5t262 -72q228 0 361 159t133 434v212zM1231 619q0 -189 -67.5 -334.5t-192.5 -225t-288 -79.5q-246 0 -398 175t-152 472v210q0 188 67.5 334t193 225.5 t287.5 79.5q163 0 288.5 -79.5t193.5 -226t68 -333.5v-218zM855 1761q0 23 16 39.5t39 16.5t39.5 -16.5t16.5 -39.5t-16.5 -39t-39.5 -16t-39 16t-16 39zM410 1761q0 23 16 39.5t39 16.5t39.5 -16.5t16.5 -39.5t-16.5 -39t-39.5 -16t-39 16t-16 39z" horiz-adv-x="1364"/>
<glyph glyph-name="multiply" unicode="×" d="M98 36l384 393l-357 364l39 39l356 -364l357 364l39 -39l-357 -364l385 -393l-39 -37l-384 391l-384 -391z" horiz-adv-x="1052"/>
<glyph glyph-name="Oslash" unicode="Ø" d="M1177 839q0 237 -107 388l-692 -1090q124 -103 305 -103q228 0 361 159t133 434v212zM188 619q0 -284 149 -443l696 1097q-132 149 -352 149q-225 0 -359 -158.5t-134 -431.5v-213zM1231 619q0 -189 -67.5 -334.5t-192.5 -225t-288 -79.5q-195 0 -334 112l-106 -167h-66 l130 205q-174 176 -174 499v208q0 188 67.5 334t193 225.5t287.5 79.5q231 0 382 -157l111 176h66l-140 -220q130 -172 131 -436v-220z" horiz-adv-x="1364"/>
<glyph glyph-name="Ugrave" unicode="Ù" d="M1180 1456v-986q0 -231 -134 -360.5t-363 -129.5t-363 129.5t-135 356.5v990h54v-984q0 -202 121.5 -320t322.5 -118t322 118t121 321v983h54zM740 1569h-59l-195 266h66z" horiz-adv-x="1365"/>
<glyph glyph-name="Uacute" unicode="Ú" d="M1180 1456v-986q0 -231 -134 -360.5t-363 -129.5t-363 129.5t-135 356.5v990h54v-984q0 -202 121.5 -320t322.5 -118t322 118t121 321v983h54zM846 1835h66l-195 -266h-60z" horiz-adv-x="1365"/>
<glyph glyph-name="Ucircumflex" unicode="Û" d="M1180 1456v-986q0 -231 -134 -360.5t-363 -129.5t-363 129.5t-135 356.5v990h54v-984q0 -202 121.5 -320t322.5 -118t322 118t121 321v983h54zM951 1593v-10h-68l-187 196l-185 -196h-64v14l230 239h40z" horiz-adv-x="1365"/>
<glyph glyph-name="Udieresis" unicode="Ü" d="M1180 1456v-986q0 -231 -134 -360.5t-363 -129.5t-363 129.5t-135 356.5v990h54v-984q0 -202 121.5 -320t322.5 -118t322 118t121 321v983h54zM876 1740q0 23 16 39.5t39 16.5t39.5 -16.5t16.5 -39.5t-16.5 -39t-39.5 -16t-39 16t-16 39zM431 1740q0 23 16 39.5t39 16.5 t39.5 -16.5t16.5 -39.5t-16.5 -39t-39.5 -16t-39 16t-16 39z" horiz-adv-x="1365"/>
<glyph glyph-name="Yacute" unicode="Ý" d="M609 602l510 854h66l-549 -903v-553h-54v553l-549 903h72zM757 1824h66l-195 -266h-60z" horiz-adv-x="1223"/>
<glyph glyph-name="Thorn" unicode="Þ" d="M254 1089v-701h371q181 0 288.5 98t107.5 250q0 153 -103.5 251t-277.5 102h-386zM254 1456v-313h377q206 -2 325 -113t119 -292q0 -180 -117.5 -290t-318.5 -114h-385v-334h-54v1456h54z" horiz-adv-x="1219"/>
<glyph glyph-name="germandbls" unicode="ß" d="M218 0h-54v1143q0 191 84.5 291.5t244.5 100.5q126 0 218.5 -79.5t92.5 -198.5q0 -100 -59.5 -207t-59.5 -221q0 -59 42.5 -112t143.5 -128.5t146 -143.5t45 -148q0 -90 -52 -162.5t-139 -114t-176 -41.5q-91 0 -182.5 27.5t-129.5 61.5l25 49q44 -35 125 -60t154 -25 q135 0 228 79t93 195q0 65 -41.5 122t-145 133t-147 137.5t-43.5 132.5q0 111 56.5 224t56.5 204q0 90 -73 156t-168 66q-281 0 -285 -328v-1153z" horiz-adv-x="1183"/>
<glyph glyph-name="agrave" unicode="à" d="M425 33q152 0 261.5 68t164.5 191v257h-250q-232 0 -355 -92q-100 -75 -100 -187q0 -99 79 -168t200 -69zM871 0q-20 69 -20 198q-64 -104 -175 -161t-251 -57q-150 0 -241.5 81.5t-91.5 212.5q0 149 134.5 238.5t357.5 91.5h267v158q0 136 -85.5 211t-244.5 75 q-148 0 -247 -76t-99 -188l-54 2q0 132 116 224t284 92q175 0 278 -87.5t106 -246.5v-517q0 -178 28 -242v-9h-62zM620 1250h-59l-195 266h66z" horiz-adv-x="1081"/>
<glyph glyph-name="aacute" unicode="á" d="M425 33q152 0 261.5 68t164.5 191v257h-250q-232 0 -355 -92q-100 -75 -100 -187q0 -99 79 -168t200 -69zM871 0q-20 69 -20 198q-64 -104 -175 -161t-251 -57q-150 0 -241.5 81.5t-91.5 212.5q0 149 134.5 238.5t357.5 91.5h267v158q0 136 -85.5 211t-244.5 75 q-148 0 -247 -76t-99 -188l-54 2q0 132 116 224t284 92q175 0 278 -87.5t106 -246.5v-517q0 -178 28 -242v-9h-62zM726 1516h66l-195 -266h-60z" horiz-adv-x="1081"/>
<glyph glyph-name="acircumflex" unicode="â" d="M425 33q152 0 261.5 68t164.5 191v257h-250q-232 0 -355 -92q-100 -75 -100 -187q0 -99 79 -168t200 -69zM871 0q-20 69 -20 198q-64 -104 -175 -161t-251 -57q-150 0 -241.5 81.5t-91.5 212.5q0 149 134.5 238.5t357.5 91.5h267v158q0 136 -85.5 211t-244.5 75 q-148 0 -247 -76t-99 -188l-54 2q0 132 116 224t284 92q175 0 278 -87.5t106 -246.5v-517q0 -178 28 -242v-9h-62zM831 1274v-10h-68l-187 196l-185 -196h-64v14l230 239h40z" horiz-adv-x="1081"/>
<glyph glyph-name="atilde" unicode="ã" d="M425 33q152 0 261.5 68t164.5 191v257h-250q-232 0 -355 -92q-100 -75 -100 -187q0 -99 79 -168t200 -69zM871 0q-20 69 -20 198q-64 -104 -175 -161t-251 -57q-150 0 -241.5 81.5t-91.5 212.5q0 149 134.5 238.5t357.5 91.5h267v158q0 136 -85.5 211t-244.5 75 q-148 0 -247 -76t-99 -188l-54 2q0 132 116 224t284 92q175 0 278 -87.5t106 -246.5v-517q0 -178 28 -242v-9h-62zM905 1486q0 -82 -50.5 -134t-125.5 -52q-81 0 -153 62.5t-134 62.5q-56 0 -88.5 -34t-32.5 -91h-55q0 80 50 129.5t126 49.5q78 0 153.5 -62t133.5 -62 q54 0 87.5 36t33.5 95h55z" horiz-adv-x="1081"/>
<glyph glyph-name="adieresis" unicode="ä" d="M425 33q152 0 261.5 68t164.5 191v257h-250q-232 0 -355 -92q-100 -75 -100 -187q0 -99 79 -168t200 -69zM871 0q-20 69 -20 198q-64 -104 -175 -161t-251 -57q-150 0 -241.5 81.5t-91.5 212.5q0 149 134.5 238.5t357.5 91.5h267v158q0 136 -85.5 211t-244.5 75 q-148 0 -247 -76t-99 -188l-54 2q0 132 116 224t284 92q175 0 278 -87.5t106 -246.5v-517q0 -178 28 -242v-9h-62zM756 1421q0 23 16 39.5t39 16.5t39.5 -16.5t16.5 -39.5t-16.5 -39t-39.5 -16t-39 16t-16 39zM311 1421q0 23 16 39.5t39 16.5t39.5 -16.5t16.5 -39.5 t-16.5 -39t-39.5 -16t-39 16t-16 39z" horiz-adv-x="1081"/>
<glyph glyph-name="aring" unicode="å" d="M425 33q152 0 261.5 68t164.5 191v257h-250q-232 0 -355 -92q-100 -75 -100 -187q0 -99 79 -168t200 -69zM871 0q-20 69 -20 198q-64 -104 -175 -161t-251 -57q-150 0 -241.5 81.5t-91.5 212.5q0 149 134.5 238.5t357.5 91.5h267v158q0 136 -85.5 211t-244.5 75 q-148 0 -247 -76t-99 -188l-54 2q0 132 116 224t284 92q175 0 278 -87.5t106 -246.5v-517q0 -178 28 -242v-9h-62zM462 1382q0 -52 33 -84t84 -32t84 32t33 84q0 54 -33 87t-84 33t-84 -33t-33 -87zM579 1556q72 0 121.5 -51t49.5 -123t-49.5 -121t-121.5 -49 q-69 0 -120 47.5t-51 122.5t50.5 124.5t120.5 49.5z" horiz-adv-x="1081"/>
<glyph glyph-name="ae" unicode="æ" d="M1253 1048q-153 0 -257 -113.5t-123 -302.5h730v32q0 174 -93.5 279t-256.5 105zM447 32q81 0 159 28.5t135.5 75.5t71.5 89v350h-301q-167 -3 -265.5 -83t-98.5 -212q0 -116 76.5 -182t222.5 -66zM1268 -20q-147 0 -247.5 67.5t-152.5 182.5v-12h1 q-48 -107 -162.5 -172.5t-258.5 -65.5q-168 0 -261.5 82t-93.5 222q0 158 110.5 251t312.5 95h297v90q0 156 -72 242t-220 86q-158 0 -252.5 -76t-94.5 -201l-53 7q0 145 111.5 234.5t288.5 89.5q141 0 228.5 -74t110.5 -214q56 137 159.5 212.5t233.5 75.5 q186 0 295 -116.5t109 -329.5v-79h-787v-77q0 -218 104.5 -342t293.5 -124q204 0 332 130l30 -42q-79 -79 -165.5 -110.5t-196.5 -31.5z" horiz-adv-x="1735"/>
<glyph glyph-name="ccedilla" unicode="ç" d="M539 34q147 0 242.5 78t104.5 216h54q-8 -157 -121 -252.5t-280 -95.5q-203 0 -322.5 147t-119.5 399v36q0 246 119.5 393t320.5 147q172 0 284 -103t119 -274h-54q-7 146 -102.5 234.5t-246.5 88.5q-181 0 -283.5 -130.5t-102.5 -362.5v-35q0 -227 103.5 -356.5 t284.5 -129.5zM575 -9l-11 -76q177 -16 177 -169q0 -85 -76 -137.5t-209 -52.5l-7 49q101 0 169 39.5t68 101.5q0 56 -38.5 84t-150.5 40l25 121h53z" horiz-adv-x="1039"/>
<glyph glyph-name="egrave" unicode="è" d="M541 1048q-158 0 -268 -117.5t-129 -299.5h754v13q0 110 -46.5 204.5t-128 147t-182.5 52.5zM561 -20q-131 0 -240.5 70.5t-171.5 193.5t-62 273v45q0 150 60 275t165 195t229 70q181 0 296 -129t115 -339v-57h-811v-59q0 -132 55.5 -244.5t153 -176.5t211.5 -64 q109 0 185.5 36.5t135.5 112.5l38 -27q-121 -175 -359 -175zM610 1249h-59l-195 266h66z" horiz-adv-x="1032"/>
<glyph glyph-name="eacute" unicode="é" d="M541 1048q-158 0 -268 -117.5t-129 -299.5h754v13q0 110 -46.5 204.5t-128 147t-182.5 52.5zM561 -20q-131 0 -240.5 70.5t-171.5 193.5t-62 273v45q0 150 60 275t165 195t229 70q181 0 296 -129t115 -339v-57h-811v-59q0 -132 55.5 -244.5t153 -176.5t211.5 -64 q109 0 185.5 36.5t135.5 112.5l38 -27q-121 -175 -359 -175zM716 1515h66l-195 -266h-60z" horiz-adv-x="1032"/>
<glyph glyph-name="ecircumflex" unicode="ê" d="M541 1048q-158 0 -268 -117.5t-129 -299.5h754v13q0 110 -46.5 204.5t-128 147t-182.5 52.5zM561 -20q-131 0 -240.5 70.5t-171.5 193.5t-62 273v45q0 150 60 275t165 195t229 70q181 0 296 -129t115 -339v-57h-811v-59q0 -132 55.5 -244.5t153 -176.5t211.5 -64 q109 0 185.5 36.5t135.5 112.5l38 -27q-121 -175 -359 -175zM821 1274v-10h-68l-187 196l-185 -196h-64v14l230 239h40z" horiz-adv-x="1032"/>
<glyph glyph-name="edieresis" unicode="ë" d="M541 1048q-158 0 -268 -117.5t-129 -299.5h754v13q0 110 -46.5 204.5t-128 147t-182.5 52.5zM561 -20q-131 0 -240.5 70.5t-171.5 193.5t-62 273v45q0 150 60 275t165 195t229 70q181 0 296 -129t115 -339v-57h-811v-59q0 -132 55.5 -244.5t153 -176.5t211.5 -64 q109 0 185.5 36.5t135.5 112.5l38 -27q-121 -175 -359 -175zM746 1420q0 23 16 39.5t39 16.5t39.5 -16.5t16.5 -39.5t-16.5 -39t-39.5 -16t-39 16t-16 39zM301 1420q0 23 16 39.5t39 16.5t39.5 -16.5t16.5 -39.5t-16.5 -39t-39.5 -16t-39 16t-16 39z" horiz-adv-x="1032"/>
<glyph glyph-name="igrave" unicode="ì" d="M235 0h-54v1082h54v-1082zM253 1227h-59l-195 266h66z" horiz-adv-x="406"/>
<glyph glyph-name="iacute" unicode="í" d="M235 0h-54v1082h54v-1082zM358 1493h66l-195 -266h-60z" horiz-adv-x="406"/>
<glyph glyph-name="icircumflex" unicode="î" d="M235 0h-54v1082h54v-1082zM464 1274v-10h-68l-187 196l-185 -196h-64v14l230 239h40z" horiz-adv-x="406"/>
<glyph glyph-name="idieresis" unicode="ï" d="M235 0h-54v1082h54v-1082zM389 1398q0 23 16 39.5t39 16.5t39.5 -16.5t16.5 -39.5t-16.5 -39t-39.5 -16t-39 16t-16 39zM-56 1398q0 23 16 39.5t39 16.5t39.5 -16.5t16.5 -39.5t-16.5 -39t-39.5 -16t-39 16t-16 39z" horiz-adv-x="406"/>
<glyph glyph-name="eth" unicode="ð" d="M987 617l-1 55q-46 105 -149 164t-236 59q-177 0 -275 -113.5t-98 -316.5q0 -115 51.5 -215t143.5 -156t210 -56q156 0 253 133.5t101 348.5v97zM802 1308q121 -125 180 -294.5t59 -398.5v-80q0 -159 -51.5 -285.5t-146.5 -198t-214 -71.5q-129 0 -233.5 63t-163.5 175 t-59 247q0 231 113 359.5t315 128.5q113 0 214.5 -44.5t161.5 -128.5q-20 168 -78 289t-147 211l-235 -131l-28 48l220 123q-138 121 -371 207l20 50q252 -92 402 -229l202 113l29 -48z" horiz-adv-x="1183"/>
<glyph glyph-name="ntilde" unicode="ñ" d="M226 830q53 126 156 199t228 73q174 0 258.5 -98.5t85.5 -297.5v-706h-54v708q-1 174 -71 257.5t-222 83.5q-140 0 -242.5 -99.5t-138.5 -256.5v-693h-54v1082h54v-252zM906 1484q0 -82 -50.5 -134t-125.5 -52q-81 0 -153 62.5t-134 62.5q-56 0 -88.5 -34t-32.5 -91h-55 q0 80 50 129.5t126 49.5q78 0 153.5 -62t133.5 -62q54 0 87.5 36t33.5 95h55z"/>
<glyph glyph-name="ograve" unicode="ò" d="M144 520q0 -135 53.5 -247.5t149 -175.5t218.5 -63q185 0 301.5 139t116.5 358v31q0 133 -54 246t-149.5 176.5t-216.5 63.5q-185 0 -302 -141t-117 -355v-32zM90 562q0 155 59.5 278.5t168 192.5t245.5 69q136 0 244 -67t168.5 -190t61.5 -277v-48q0 -156 -59 -279 t-167.5 -192t-245.5 -69t-245.5 68t-168.5 190.5t-61 275.5v48zM610 1248h-59l-195 266h66z" horiz-adv-x="1127"/>
<glyph glyph-name="oacute" unicode="ó" d="M144 520q0 -135 53.5 -247.5t149 -175.5t218.5 -63q185 0 301.5 139t116.5 358v31q0 133 -54 246t-149.5 176.5t-216.5 63.5q-185 0 -302 -141t-117 -355v-32zM90 562q0 155 59.5 278.5t168 192.5t245.5 69q136 0 244 -67t168.5 -190t61.5 -277v-48q0 -156 -59 -279 t-167.5 -192t-245.5 -69t-245.5 68t-168.5 190.5t-61 275.5v48zM716 1514h66l-195 -266h-60z" horiz-adv-x="1127"/>
<glyph glyph-name="ocircumflex" unicode="ô" d="M144 520q0 -135 53.5 -247.5t149 -175.5t218.5 -63q185 0 301.5 139t116.5 358v31q0 133 -54 246t-149.5 176.5t-216.5 63.5q-185 0 -302 -141t-117 -355v-32zM90 562q0 155 59.5 278.5t168 192.5t245.5 69q136 0 244 -67t168.5 -190t61.5 -277v-48q0 -156 -59 -279 t-167.5 -192t-245.5 -69t-245.5 68t-168.5 190.5t-61 275.5v48zM821 1274v-10h-68l-187 196l-185 -196h-64v14l230 239h40z" horiz-adv-x="1127"/>
<glyph glyph-name="otilde" unicode="õ" d="M144 520q0 -135 53.5 -247.5t149 -175.5t218.5 -63q185 0 301.5 139t116.5 358v31q0 133 -54 246t-149.5 176.5t-216.5 63.5q-185 0 -302 -141t-117 -355v-32zM90 562q0 155 59.5 278.5t168 192.5t245.5 69q136 0 244 -67t168.5 -190t61.5 -277v-48q0 -156 -59 -279 t-167.5 -192t-245.5 -69t-245.5 68t-168.5 190.5t-61 275.5v48zM895 1484q0 -82 -50.5 -134t-125.5 -52q-81 0 -153 62.5t-134 62.5q-56 0 -88.5 -34t-32.5 -91h-55q0 80 50 129.5t126 49.5q78 0 153.5 -62t133.5 -62q54 0 87.5 36t33.5 95h55z" horiz-adv-x="1127"/>
<glyph glyph-name="odieresis" unicode="ö" d="M144 520q0 -135 53.5 -247.5t149 -175.5t218.5 -63q185 0 301.5 139t116.5 358v31q0 133 -54 246t-149.5 176.5t-216.5 63.5q-185 0 -302 -141t-117 -355v-32zM90 562q0 155 59.5 278.5t168 192.5t245.5 69q136 0 244 -67t168.5 -190t61.5 -277v-48q0 -156 -59 -279 t-167.5 -192t-245.5 -69t-245.5 68t-168.5 190.5t-61 275.5v48zM746 1419q0 23 16 39.5t39 16.5t39.5 -16.5t16.5 -39.5t-16.5 -39t-39.5 -16t-39 16t-16 39zM301 1419q0 23 16 39.5t39 16.5t39.5 -16.5t16.5 -39.5t-16.5 -39t-39.5 -16t-39 16t-16 39z" horiz-adv-x="1127"/>
<glyph glyph-name="divide" unicode="÷" d="M529 301q0 23 16 39.5t39 16.5t39.5 -16.5t16.5 -39.5t-16.5 -39t-39.5 -16t-39 16t-16 39zM529 1079q0 23 16 39.5t39 16.5t39.5 -16.5t16.5 -39.5t-16.5 -39t-39.5 -16t-39 16t-16 39zM1071 686h-998v52h998v-52z" horiz-adv-x="1159"/>
<glyph glyph-name="oslash" unicode="ø" d="M980 562q0 122 -45.5 228t-128.5 173l-430 -886q83 -43 186 -43q185 0 301.5 139t116.5 358v31zM141 520q0 -132 49.5 -240.5t136.5 -172.5l432 888q-88 53 -199 53q-185 0 -302 -141t-117 -355v-32zM87 562q0 155 59.5 278.5t168 192.5t245.5 69q120 0 224 -55l84 172 h63l-99 -203q95 -70 148.5 -187t53.5 -267v-42q0 -156 -59 -279t-167.5 -192t-245.5 -69q-112 0 -210 48l-84 -173h-63l98 201q-103 69 -159.5 191.5t-56.5 274.5v40z"/>
<glyph glyph-name="ugrave" unicode="ù" d="M897 0v175q-48 -90 -140 -142.5t-233 -52.5q-177 0 -265.5 103.5t-90.5 301.5v697h54v-699q2 -172 78 -260.5t222 -88.5q155 0 252 73t123 214v761h55v-1082h-55zM623 1250h-59l-195 266h66z"/>
<glyph glyph-name="uacute" unicode="ú" d="M897 0v175q-48 -90 -140 -142.5t-233 -52.5q-177 0 -265.5 103.5t-90.5 301.5v697h54v-699q2 -172 78 -260.5t222 -88.5q155 0 252 73t123 214v761h55v-1082h-55zM729 1516h66l-195 -266h-60z"/>
<glyph glyph-name="ucircumflex" unicode="û" d="M897 0v175q-48 -90 -140 -142.5t-233 -52.5q-177 0 -265.5 103.5t-90.5 301.5v697h54v-699q2 -172 78 -260.5t222 -88.5q155 0 252 73t123 214v761h55v-1082h-55zM834 1274v-10h-68l-187 196l-185 -196h-64v14l230 239h40z"/>
<glyph glyph-name="udieresis" unicode="ü" d="M897 0v175q-48 -90 -140 -142.5t-233 -52.5q-177 0 -265.5 103.5t-90.5 301.5v697h54v-699q2 -172 78 -260.5t222 -88.5q155 0 252 73t123 214v761h55v-1082h-55zM759 1421q0 23 16 39.5t39 16.5t39.5 -16.5t16.5 -39.5t-16.5 -39t-39.5 -16t-39 16t-16 39zM314 1421 q0 23 16 39.5t39 16.5t39.5 -16.5t16.5 -39.5t-16.5 -39t-39.5 -16t-39 16t-16 39z"/>
<glyph glyph-name="yacute" unicode="ý" d="M503 84l7 20l374 978h60l-484 -1270l-24 -60q-78 -189 -258 -189q-58 0 -80 11l-1 51q32 -9 73 -9q85 0 141 49.5t97 161.5l66 179l-431 1076h59zM668 1516h66l-195 -266h-60z" horiz-adv-x="978"/>
<glyph glyph-name="thorn" unicode="þ" d="M944 552q0 233 -92.5 364.5t-259.5 131.5q-136 0 -231 -70.5t-137 -202.5v-506q42 -112 137.5 -173.5t232.5 -61.5q166 0 258 132t92 386zM999 531q0 -253 -109 -402t-297 -149q-123 0 -219 50t-150 138v-584h-54v1952h54v-647q56 103 151 158t216 55q190 0 299 -145.5 t109 -408.5v-17z"/>
<glyph glyph-name="ydieresis" unicode="ÿ" d="M503 84l7 20l374 978h60l-484 -1270l-24 -60q-78 -189 -258 -189q-58 0 -80 11l-1 51q32 -9 73 -9q85 0 141 49.5t97 161.5l66 179l-431 1076h59zM698 1421q0 23 16 39.5t39 16.5t39.5 -16.5t16.5 -39.5t-16.5 -39t-39.5 -16t-39 16t-16 39zM253 1421q0 23 16 39.5 t39 16.5t39.5 -16.5t16.5 -39.5t-16.5 -39t-39.5 -16t-39 16t-16 39z" horiz-adv-x="978"/>
<glyph glyph-name="Amacron" unicode="Ā" d="M274 489h673l-336 902zM967 435h-713l-162 -435h-59l545 1456h66l545 -1456h-59zM918 1733h-627v53h627v-53z" horiz-adv-x="1223"/>
<glyph glyph-name="amacron" unicode="ā" d="M425 33q152 0 261.5 68t164.5 191v257h-250q-232 0 -355 -92q-100 -75 -100 -187q0 -99 79 -168t200 -69zM871 0q-20 69 -20 198q-64 -104 -175 -161t-251 -57q-150 0 -241.5 81.5t-91.5 212.5q0 149 134.5 238.5t357.5 91.5h267v158q0 136 -85.5 211t-244.5 75 q-148 0 -247 -76t-99 -188l-54 2q0 132 116 224t284 92q175 0 278 -87.5t106 -246.5v-517q0 -178 28 -242v-9h-62zM883 1413h-627v53h627v-53z" horiz-adv-x="1081"/>
<glyph glyph-name="Abreve" unicode="Ă" d="M274 489h673l-336 902zM967 435h-713l-162 -435h-59l545 1456h66l545 -1456h-59zM889 1810q0 -112 -75.5 -180t-202.5 -68q-128 0 -203.5 68t-75.5 180h54q0 -91 57 -141.5t168 -50.5q107 0 165.5 51.5t58.5 140.5h54z" horiz-adv-x="1223"/>
<glyph glyph-name="abreve" unicode="ă" d="M425 33q152 0 261.5 68t164.5 191v257h-250q-232 0 -355 -92q-100 -75 -100 -187q0 -99 79 -168t200 -69zM871 0q-20 69 -20 198q-64 -104 -175 -161t-251 -57q-150 0 -241.5 81.5t-91.5 212.5q0 149 134.5 238.5t357.5 91.5h267v158q0 136 -85.5 211t-244.5 75 q-148 0 -247 -76t-99 -188l-54 2q0 132 116 224t284 92q175 0 278 -87.5t106 -246.5v-517q0 -178 28 -242v-9h-62zM854 1490q0 -112 -75.5 -180t-202.5 -68q-128 0 -203.5 68t-75.5 180h54q0 -91 57 -141.5t168 -50.5q107 0 165.5 51.5t58.5 140.5h54z" horiz-adv-x="1081"/>
<glyph glyph-name="Aogonek" unicode="Ą" d="M274 489h673l-336 902zM644 1456l545 -1456q-112 -87 -150 -140.5t-38 -105.5q0 -95 93 -95q57 0 110 38l16 -48q-56 -44 -126 -44q-67 0 -107 36.5t-40 112.5q0 109 180 252l-160 429h-713l-162 -435h-59l545 1456h66z" horiz-adv-x="1223"/>
<glyph glyph-name="aogonek" unicode="ą" d="M425 33q152 0 261.5 68t164.5 191v257h-250q-232 0 -355 -92q-100 -75 -100 -187q0 -99 79 -168t200 -69zM870 4q-19 72 -19 194q-64 -104 -175 -161t-251 -57q-150 0 -241.5 81.5t-91.5 212.5q0 149 134.5 238.5t357.5 91.5h267v158q0 136 -85.5 211t-244.5 75 q-148 0 -247 -76t-99 -188l-54 2q0 132 116 224t284 92q175 0 278 -87.5t106 -246.5v-517q0 -178 28 -242v-9q-112 -87 -150 -140.5t-38 -105.5q0 -95 93 -95q57 0 110 38l16 -48q-56 -44 -126 -44q-67 0 -107 36.5t-40 112.5q0 113 179 250z" horiz-adv-x="1081"/>
<glyph glyph-name="Cacute" unicode="Ć" d="M1190 446q-21 -225 -155 -345.5t-364 -120.5q-155 0 -274.5 78.5t-185.5 223t-67 330.5v225q0 186 65 332.5t185.5 226.5t276.5 80q228 0 363 -120t156 -344h-54q-23 201 -140 305.5t-325 104.5q-212 0 -342.5 -160t-130.5 -429v-214q0 -172 58 -304.5t166.5 -206.5 t248.5 -74q209 0 326.5 103t138.5 309h54zM827 1856h66l-195 -266h-60z" horiz-adv-x="1327"/>
<glyph glyph-name="cacute" unicode="ć" d="M539 34q147 0 242.5 78t104.5 216h54q-8 -157 -121 -252.5t-280 -95.5q-203 0 -322.5 147t-119.5 399v36q0 246 119.5 393t320.5 147q172 0 284 -103t119 -274h-54q-7 146 -102.5 234.5t-246.5 88.5q-181 0 -283.5 -130.5t-102.5 -362.5v-35q0 -227 103.5 -356.5 t284.5 -129.5zM696 1514h66l-195 -266h-60z" horiz-adv-x="1039"/>
<glyph glyph-name="Ccircumflex" unicode="Ĉ" d="M1190 446q-21 -225 -155 -345.5t-364 -120.5q-155 0 -274.5 78.5t-185.5 223t-67 330.5v225q0 186 65 332.5t185.5 226.5t276.5 80q228 0 363 -120t156 -344h-54q-23 201 -140 305.5t-325 104.5q-212 0 -342.5 -160t-130.5 -429v-214q0 -172 58 -304.5t166.5 -206.5 t248.5 -74q209 0 326.5 103t138.5 309h54zM932 1614v-10h-68l-187 196l-185 -196h-64v14l230 239h40z" horiz-adv-x="1327"/>
<glyph glyph-name="ccircumflex" unicode="ĉ" d="M539 34q147 0 242.5 78t104.5 216h54q-8 -157 -121 -252.5t-280 -95.5q-203 0 -322.5 147t-119.5 399v36q0 246 119.5 393t320.5 147q172 0 284 -103t119 -274h-54q-7 146 -102.5 234.5t-246.5 88.5q-181 0 -283.5 -130.5t-102.5 -362.5v-35q0 -227 103.5 -356.5 t284.5 -129.5zM801 1272v-10h-68l-187 196l-185 -196h-64v14l230 239h40z" horiz-adv-x="1039"/>
<glyph glyph-name="Cdotaccent" unicode="Ċ" d="M1190 446q-21 -225 -155 -345.5t-364 -120.5q-155 0 -274.5 78.5t-185.5 223t-67 330.5v225q0 186 65 332.5t185.5 226.5t276.5 80q228 0 363 -120t156 -344h-54q-23 201 -140 305.5t-325 104.5q-212 0 -342.5 -160t-130.5 -429v-214q0 -172 58 -304.5t166.5 -206.5 t248.5 -74q209 0 326.5 103t138.5 309h54zM630 1737q0 23 16 39.5t39 16.5t39.5 -16.5t16.5 -39.5t-16.5 -39t-39.5 -16t-39 16t-16 39z" horiz-adv-x="1327"/>
<glyph glyph-name="cdotaccent" unicode="ċ" d="M539 34q147 0 242.5 78t104.5 216h54q-8 -157 -121 -252.5t-280 -95.5q-203 0 -322.5 147t-119.5 399v36q0 246 119.5 393t320.5 147q172 0 284 -103t119 -274h-54q-7 146 -102.5 234.5t-246.5 88.5q-181 0 -283.5 -130.5t-102.5 -362.5v-35q0 -227 103.5 -356.5 t284.5 -129.5zM499 1395q0 23 16 39.5t39 16.5t39.5 -16.5t16.5 -39.5t-16.5 -39t-39.5 -16t-39 16t-16 39z" horiz-adv-x="1039"/>
<glyph glyph-name="Ccaron" unicode="Č" d="M1190 446q-21 -225 -155 -345.5t-364 -120.5q-155 0 -274.5 78.5t-185.5 223t-67 330.5v225q0 186 65 332.5t185.5 226.5t276.5 80q228 0 363 -120t156 -344h-54q-23 201 -140 305.5t-325 104.5q-212 0 -342.5 -160t-130.5 -429v-214q0 -172 58 -304.5t166.5 -206.5 t248.5 -74q209 0 326.5 103t138.5 309h54zM677 1634l194 217h53v-13l-218 -250h-59l-220 252v11h57z" horiz-adv-x="1327"/>
<glyph glyph-name="ccaron" unicode="č" d="M539 34q147 0 242.5 78t104.5 216h54q-8 -157 -121 -252.5t-280 -95.5q-203 0 -322.5 147t-119.5 399v36q0 246 119.5 393t320.5 147q172 0 284 -103t119 -274h-54q-7 146 -102.5 234.5t-246.5 88.5q-181 0 -283.5 -130.5t-102.5 -362.5v-35q0 -227 103.5 -356.5 t284.5 -129.5zM546 1291l194 217h53v-13l-218 -250h-59l-220 252v11h57z" horiz-adv-x="1039"/>
<glyph glyph-name="Dcaron" unicode="Ď" d="M254 1402v-1348h349q153 0 278.5 74.5t196.5 208t72 296.5v187q0 163 -69.5 296t-194 208.5t-275.5 77.5h-357zM200 0v1456h403q169 0 306 -80t215 -224.5t80 -323.5v-189q0 -182 -76.5 -328t-213.5 -228t-306 -83h-408zM589 1613l194 217h53v-13l-218 -250h-59l-220 252 v11h57z" horiz-adv-x="1340"/>
<glyph glyph-name="dcaron" unicode="ď" d="M178 531q0 -230 91 -363.5t258 -133.5q134 0 229 59.5t141 174.5v507q-93 273 -368 273q-166 0 -258.5 -131t-92.5 -386zM122 552q0 259 109 404.5t299 145.5q122 0 215.5 -55t151.5 -164v653h54v-1536h-54v173q-55 -92 -151 -142.5t-218 -50.5q-188 0 -297 149t-109 409 v14zM1111 1217l-37 32q62 86 68 176l1 111h54v-79q-1 -143 -86 -240z" horiz-adv-x="1271"/>
<glyph glyph-name="Dcroat" unicode="Đ" d="M647 713h-363v-659h339q247 0 402 166t155 427v173q0 163 -69.5 296t-194 208.5t-275.5 77.5h-357v-635h363v-54zM230 0v713h-170v54h170v689h403q169 0 306 -80t215 -224.5t80 -323.5v-189q0 -182 -76.5 -328t-213.5 -228t-306 -83h-408z" horiz-adv-x="1370"/>
<glyph glyph-name="dcroat" unicode="đ" d="M178 531q0 -230 91 -363.5t258 -133.5q134 0 229 59.5t141 174.5v507q-93 273 -368 273q-166 0 -258.5 -131t-92.5 -386zM1111 1281h-160v-1281h-54v173q-55 -92 -151 -142.5t-218 -50.5q-188 0 -297 149t-109 409v14q0 259 109 404.5t299 145.5q122 0 215.5 -55 t151.5 -164v398h-373v54h373v201h54v-201h160v-54z" horiz-adv-x="1151"/>
<glyph glyph-name="Emacron" unicode="Ē" d="M984 722h-730v-668h832v-54h-886v1456h886v-54h-832v-626h730v-54zM925 1733h-627v53h627v-53z" horiz-adv-x="1166"/>
<glyph glyph-name="emacron" unicode="ē" d="M541 1048q-158 0 -268 -117.5t-129 -299.5h754v13q0 110 -46.5 204.5t-128 147t-182.5 52.5zM561 -20q-131 0 -240.5 70.5t-171.5 193.5t-62 273v45q0 150 60 275t165 195t229 70q181 0 296 -129t115 -339v-57h-811v-59q0 -132 55.5 -244.5t153 -176.5t211.5 -64 q109 0 185.5 36.5t135.5 112.5l38 -27q-121 -175 -359 -175zM873 1412h-627v53h627v-53z" horiz-adv-x="1032"/>
<glyph glyph-name="Ebreve" unicode="Ĕ" d="M984 722h-730v-668h832v-54h-886v1456h886v-54h-832v-626h730v-54zM896 1810q0 -112 -75.5 -180t-202.5 -68q-128 0 -203.5 68t-75.5 180h54q0 -91 57 -141.5t168 -50.5q107 0 165.5 51.5t58.5 140.5h54z" horiz-adv-x="1166"/>
<glyph glyph-name="ebreve" unicode="ĕ" d="M541 1048q-158 0 -268 -117.5t-129 -299.5h754v13q0 110 -46.5 204.5t-128 147t-182.5 52.5zM561 -20q-131 0 -240.5 70.5t-171.5 193.5t-62 273v45q0 150 60 275t165 195t229 70q181 0 296 -129t115 -339v-57h-811v-59q0 -132 55.5 -244.5t153 -176.5t211.5 -64 q109 0 185.5 36.5t135.5 112.5l38 -27q-121 -175 -359 -175zM844 1489q0 -112 -75.5 -180t-202.5 -68q-128 0 -203.5 68t-75.5 180h54q0 -91 57 -141.5t168 -50.5q107 0 165.5 51.5t58.5 140.5h54z" horiz-adv-x="1032"/>
<glyph glyph-name="Edotaccent" unicode="Ė" d="M984 722h-730v-668h832v-54h-886v1456h886v-54h-832v-626h730v-54zM571 1716q0 23 16 39.5t39 16.5t39.5 -16.5t16.5 -39.5t-16.5 -39t-39.5 -16t-39 16t-16 39z" horiz-adv-x="1166"/>
<glyph glyph-name="edotaccent" unicode="ė" d="M541 1048q-158 0 -268 -117.5t-129 -299.5h754v13q0 110 -46.5 204.5t-128 147t-182.5 52.5zM561 -20q-131 0 -240.5 70.5t-171.5 193.5t-62 273v45q0 150 60 275t165 195t229 70q181 0 296 -129t115 -339v-57h-811v-59q0 -132 55.5 -244.5t153 -176.5t211.5 -64 q109 0 185.5 36.5t135.5 112.5l38 -27q-121 -175 -359 -175zM519 1396q0 23 16 39.5t39 16.5t39.5 -16.5t16.5 -39.5t-16.5 -39t-39.5 -16t-39 16t-16 39z" horiz-adv-x="1032"/>
<glyph glyph-name="Eogonek" unicode="Ę" d="M984 722h-730v-668h832v-54h-59q-112 -87 -150 -140.5t-38 -105.5q0 -95 93 -95q57 0 110 38l16 -48q-56 -44 -126 -44q-67 0 -107 36.5t-40 112.5q0 110 173 246h-758v1456h886v-54h-832v-626h730v-54z" horiz-adv-x="1166"/>
<glyph glyph-name="eogonek" unicode="ę" d="M541 1048q-158 0 -268 -117.5t-129 -299.5h754v13q0 110 -46.5 204.5t-128 147t-182.5 52.5zM561 -20q-131 0 -240.5 70.5t-171.5 193.5t-62 273v45q0 150 60 275t165 195t229 70q181 0 296 -129t115 -339v-57h-811v-59q0 -132 55.5 -244.5t153 -176.5t211.5 -64 q109 0 185.5 36.5t135.5 112.5l38 -27q-39 -56 -92 -95l4 -2q-112 -87 -150 -140.5t-38 -105.5q0 -95 93 -95q57 0 110 38l16 -48q-56 -44 -126 -44q-67 0 -107 36.5t-40 112.5q0 82 103 185q-64 -17 -132 -17z" horiz-adv-x="1032"/>
<glyph glyph-name="Ecaron" unicode="Ě" d="M984 722h-730v-668h832v-54h-886v1456h886v-54h-832v-626h730v-54zM618 1613l194 217h53v-13l-218 -250h-59l-220 252v11h57z" horiz-adv-x="1166"/>
<glyph glyph-name="ecaron" unicode="ě" d="M541 1048q-158 0 -268 -117.5t-129 -299.5h754v13q0 110 -46.5 204.5t-128 147t-182.5 52.5zM561 -20q-131 0 -240.5 70.5t-171.5 193.5t-62 273v45q0 150 60 275t165 195t229 70q181 0 296 -129t115 -339v-57h-811v-59q0 -132 55.5 -244.5t153 -176.5t211.5 -64 q109 0 185.5 36.5t135.5 112.5l38 -27q-121 -175 -359 -175zM566 1292l194 217h53v-13l-218 -250h-59l-220 252v11h57z" horiz-adv-x="1032"/>
<glyph glyph-name="Gcircumflex" unicode="Ĝ" d="M1226 156q-55 -76 -193 -126t-304 -50q-162 0 -289 79t-198.5 223t-73.5 326v250q0 179 69 321t194 219.5t281 77.5q217 0 353.5 -111t158.5 -303h-54q-27 174 -145 267t-313 93q-220 0 -355 -157t-135 -413v-232q0 -171 63.5 -305t179 -207.5t264.5 -73.5q146 0 271 43 t172 104v424h-445v55h499v-504zM957 1614v-10h-68l-187 196l-185 -196h-64v14l230 239h40z" horiz-adv-x="1406"/>
<glyph glyph-name="gcircumflex" unicode="ĝ" d="M176 531q0 -232 92 -364.5t258 -132.5q137 0 233 63.5t136 178.5v491q-88 281 -367 281q-167 0 -259.5 -131t-92.5 -386zM121 552q0 259 109 404.5t299 145.5q121 0 215 -55.5t151 -162.5v198h55v-1063q0 -214 -110 -334.5t-299 -120.5q-109 0 -199.5 47t-154.5 135 l38 36q63 -80 138 -122.5t176 -42.5q167 0 260 101.5t96 286.5v166q-56 -92 -151.5 -141.5t-216.5 -49.5q-188 0 -297 149t-109 409v14zM821 1274v-10h-68l-187 196l-185 -196h-64v14l230 239h40z" horiz-adv-x="1123"/>
<glyph glyph-name="Gbreve" unicode="Ğ" d="M1226 156q-55 -76 -193 -126t-304 -50q-162 0 -289 79t-198.5 223t-73.5 326v250q0 179 69 321t194 219.5t281 77.5q217 0 353.5 -111t158.5 -303h-54q-27 174 -145 267t-313 93q-220 0 -355 -157t-135 -413v-232q0 -171 63.5 -305t179 -207.5t264.5 -73.5q146 0 271 43 t172 104v424h-445v55h499v-504zM980 1831q0 -112 -75.5 -180t-202.5 -68q-128 0 -203.5 68t-75.5 180h54q0 -91 57 -141.5t168 -50.5q107 0 165.5 51.5t58.5 140.5h54z" horiz-adv-x="1406"/>
<glyph glyph-name="gbreve" unicode="ğ" d="M176 531q0 -232 92 -364.5t258 -132.5q137 0 233 63.5t136 178.5v491q-88 281 -367 281q-167 0 -259.5 -131t-92.5 -386zM121 552q0 259 109 404.5t299 145.5q121 0 215 -55.5t151 -162.5v198h55v-1063q0 -214 -110 -334.5t-299 -120.5q-109 0 -199.5 47t-154.5 135 l38 36q63 -80 138 -122.5t176 -42.5q167 0 260 101.5t96 286.5v166q-56 -92 -151.5 -141.5t-216.5 -49.5q-188 0 -297 149t-109 409v14zM844 1488q0 -112 -75.5 -180t-202.5 -68q-128 0 -203.5 68t-75.5 180h54q0 -91 57 -141.5t168 -50.5q107 0 165.5 51.5t58.5 140.5h54z " horiz-adv-x="1123"/>
<glyph glyph-name="Gdotaccent" unicode="Ġ" d="M1226 156q-55 -76 -193 -126t-304 -50q-162 0 -289 79t-198.5 223t-73.5 326v250q0 179 69 321t194 219.5t281 77.5q217 0 353.5 -111t158.5 -303h-54q-27 174 -145 267t-313 93q-220 0 -355 -157t-135 -413v-232q0 -171 63.5 -305t179 -207.5t264.5 -73.5q146 0 271 43 t172 104v424h-445v55h499v-504zM655 1737q0 23 16 39.5t39 16.5t39.5 -16.5t16.5 -39.5t-16.5 -39t-39.5 -16t-39 16t-16 39z" horiz-adv-x="1406"/>
<glyph glyph-name="gdotaccent" unicode="ġ" d="M176 531q0 -232 92 -364.5t258 -132.5q137 0 233 63.5t136 178.5v491q-88 281 -367 281q-167 0 -259.5 -131t-92.5 -386zM121 552q0 259 109 404.5t299 145.5q121 0 215 -55.5t151 -162.5v198h55v-1063q0 -214 -110 -334.5t-299 -120.5q-109 0 -199.5 47t-154.5 135 l38 36q63 -80 138 -122.5t176 -42.5q167 0 260 101.5t96 286.5v166q-56 -92 -151.5 -141.5t-216.5 -49.5q-188 0 -297 149t-109 409v14zM519 1395q0 23 16 39.5t39 16.5t39.5 -16.5t16.5 -39.5t-16.5 -39t-39.5 -16t-39 16t-16 39z" horiz-adv-x="1123"/>
<glyph glyph-name="uni0122" unicode="Ģ" d="M1226 156q-55 -76 -193 -126t-304 -50q-162 0 -289 79t-198.5 223t-73.5 326v250q0 179 69 321t194 219.5t281 77.5q217 0 353.5 -111t158.5 -303h-54q-27 174 -145 267t-313 93q-220 0 -355 -157t-135 -413v-232q0 -171 63.5 -305t179 -207.5t264.5 -73.5q146 0 271 43 t172 104v424h-445v55h499v-504zM671 -417l-37 32q62 86 68 176l1 111h54v-79q-1 -143 -86 -240z" horiz-adv-x="1406"/>
<glyph glyph-name="uni0123" unicode="ģ" d="M176 531q0 -232 92 -364.5t258 -132.5q137 0 233 63.5t136 178.5v491q-88 281 -367 281q-167 0 -259.5 -131t-92.5 -386zM121 552q0 259 109 404.5t299 145.5q121 0 215 -55.5t151 -162.5v198h55v-1063q0 -214 -110 -334.5t-299 -120.5q-109 0 -199.5 47t-154.5 135 l38 36q63 -80 138 -122.5t176 -42.5q167 0 260 101.5t96 286.5v166q-56 -92 -151.5 -141.5t-216.5 -49.5q-188 0 -297 149t-109 409v14zM598 1590l44 -16q-47 -95 -49 -156v-144h-54v139q2 81 59 177z" horiz-adv-x="1123"/>
<glyph glyph-name="Hcircumflex" unicode="Ĥ" d="M1238 0h-54v722h-930v-722h-54v1456h54v-680h930v680h54v-1456zM970 1593v-10h-68l-187 196l-185 -196h-64v14l230 239h40z" horiz-adv-x="1438"/>
<glyph glyph-name="hcircumflex" unicode="ĥ" d="M226 830q53 126 156 199t228 73q174 0 258.5 -98.5t85.5 -297.5v-706h-54v708q-1 174 -71 257.5t-222 83.5q-140 0 -242.5 -99.5t-138.5 -256.5v-693h-54v1536h54v-706zM727 1592v-10h-68l-187 196l-185 -196h-64v14l230 239h40z"/>
<glyph glyph-name="Hbar" unicode="Ħ" d="M213 776h930v252h-930v-252zM1197 1081h155v-53h-155v-1028h-54v722h-930v-722h-54v1028h-139v53h139v375h54v-375h930v375h54v-375z" horiz-adv-x="1389"/>
<glyph glyph-name="hbar" unicode="ħ" d="M618 1281h-362v-451q53 126 156 199t228 73q174 0 258.5 -98.5t85.5 -297.5v-706h-54v708q-1 174 -71 257.5t-222 83.5q-140 0 -242.5 -99.5t-138.5 -256.5v-693h-54v1281h-171v54h171v201h54v-201h362v-54z" horiz-adv-x="1151"/>
<glyph glyph-name="Itilde" unicode="Ĩ" d="M294 0h-54v1456h54v-1456zM597 1806q0 -82 -50.5 -134t-125.5 -52q-81 0 -153 62.5t-134 62.5q-56 0 -88.5 -34t-32.5 -91h-55q0 80 50 129.5t126 49.5q78 0 153.5 -62t133.5 -62q54 0 87.5 36t33.5 95h55z" horiz-adv-x="534"/>
<glyph glyph-name="itilde" unicode="ĩ" d="M235 0h-54v1082h54v-1082zM538 1464q0 -82 -50.5 -134t-125.5 -52q-81 0 -153 62.5t-134 62.5q-56 0 -88.5 -34t-32.5 -91h-55q0 80 50 129.5t126 49.5q78 0 153.5 -62t133.5 -62q54 0 87.5 36t33.5 95h55z" horiz-adv-x="406"/>
<glyph glyph-name="Imacron" unicode="Ī" d="M294 0h-54v1456h54v-1456zM575 1733h-627v53h627v-53z" horiz-adv-x="534"/>
<glyph glyph-name="imacron" unicode="ī" d="M235 0h-54v1082h54v-1082zM516 1391h-627v53h627v-53z" horiz-adv-x="406"/>
<glyph glyph-name="Ibreve" unicode="Ĭ" d="M294 0h-54v1456h54v-1456zM546 1810q0 -112 -75.5 -180t-202.5 -68q-128 0 -203.5 68t-75.5 180h54q0 -91 57 -141.5t168 -50.5q107 0 165.5 51.5t58.5 140.5h54z" horiz-adv-x="534"/>
<glyph glyph-name="ibreve" unicode="ĭ" d="M235 0h-54v1082h54v-1082zM487 1468q0 -112 -75.5 -180t-202.5 -68q-128 0 -203.5 68t-75.5 180h54q0 -91 57 -141.5t168 -50.5q107 0 165.5 51.5t58.5 140.5h54z" horiz-adv-x="406"/>
<glyph glyph-name="Iogonek" unicode="Į" d="M294 0h-54v1456h54v-1456zM296 0q-112 -77 -150 -130.5t-38 -105.5q0 -95 93 -95q57 0 110 38l16 -48q-56 -44 -126 -44q-67 0 -107 36.5t-40 112.5q0 117 199 256z" horiz-adv-x="534"/>
<glyph glyph-name="iogonek" unicode="į" d="M157 1420q0 23 16 39.5t39 16.5t39.5 -16.5t16.5 -39.5t-16.5 -39t-39.5 -16t-39 16t-16 39zM239 0h-54v1082h54v-1082zM239 0q-112 -77 -150 -130.5t-38 -105.5q0 -95 93 -95q57 0 110 38l16 -48q-56 -44 -126 -44q-67 0 -107 36.5t-40 112.5q0 117 199 256z" horiz-adv-x="422"/>
<glyph glyph-name="Idotaccent" unicode="İ" d="M294 0h-54v1456h54v-1456zM220 1716q0 23 16 39.5t39 16.5t39.5 -16.5t16.5 -39.5t-16.5 -39t-39.5 -16t-39 16t-16 39z" horiz-adv-x="534"/>
<glyph glyph-name="dotlessi" unicode="ı" d="M235 0h-54v1082h54v-1082z" horiz-adv-x="406"/>
<glyph glyph-name="IJ" unicode="Ĳ" d="M294 0h-54v1456h54v-1456zM1410 1456h54v-1014q0 -211 -115 -336.5t-305 -125.5q-204 0 -312 109t-108 312h54q0 -178 91.5 -272.5t274.5 -94.5q160 0 261.5 107t104.5 291v1024z" horiz-adv-x="1659"/>
<glyph glyph-name="ij" unicode="ĳ" d="M157 1420q0 23 16 39.5t39 16.5t39.5 -16.5t16.5 -39.5t-16.5 -39t-39.5 -16t-39 16t-16 39zM239 0h-54v1082h54v-1082zM585 1420q0 23 16 39.5t39 16.5t39.5 -16.5t16.5 -39.5t-16.5 -39t-39.5 -16t-39 16t-16 39zM662 1082v-1211q0 -150 -75 -229t-210 -79 q-49 0 -98 20l3 52q48 -18 95 -18q112 0 171.5 66.5t59.5 187.5v1211h54z" horiz-adv-x="867"/>
<glyph glyph-name="Jcircumflex" unicode="Ĵ" d="M876 1456h54v-1014q0 -211 -115 -336.5t-305 -125.5q-204 0 -312 109t-108 312h54q0 -178 91.5 -272.5t274.5 -94.5q160 0 261.5 107t104.5 291v1024zM1156 1593v-10h-68l-187 196l-185 -196h-64v14l230 239h40z" horiz-adv-x="1125"/>
<glyph glyph-name="jcircumflex" unicode="ĵ" d="M240 1082v-1171q0 -170 -75 -259t-210 -89q-54 0 -112 20l13 52q48 -18 99 -18q112 0 171.5 76t59.5 218v1171h54zM464 1274v-10h-68l-187 196l-185 -196h-64v14l230 239h40z" horiz-adv-x="422"/>
<glyph glyph-name="uni0136" unicode="Ķ" d="M487 766l-233 -215v-551h-54v1456h54v-842l240 235l604 607h78l-649 -653l699 -803h-70zM565 -417l-37 32q62 86 68 176l1 111h54v-79q-1 -143 -86 -240z" horiz-adv-x="1300"/>
<glyph glyph-name="uni0137" unicode="ķ" d="M385 585l-2 -2l-157 -135v-448h-54v1536h54v-1029l127 120l492 455h77l-497 -461l528 -621h-70zM460 -417l-37 32q62 86 68 176l1 111h54v-79q-1 -143 -86 -240z" horiz-adv-x="969"/>
<glyph glyph-name="kgreenlandic" unicode="ĸ" d="M394 529h-168v-529h-55v1082h55v-500h178l489 500h69l-508 -529l571 -553h-71z" horiz-adv-x="1084"/>
<glyph glyph-name="Lacute" unicode="Ĺ" d="M255 54h747v-54h-802v1456h55v-1402zM381 1772h66l-195 -266h-60z" horiz-adv-x="1057"/>
<glyph glyph-name="lacute" unicode="ĺ" d="M239 0h-54v1536h54v-1536zM363 1896h66l-195 -266h-60z" horiz-adv-x="422"/>
<glyph glyph-name="uni013B" unicode="Ļ" d="M255 54h747v-54h-802v1456h55v-1402zM567 -417l-37 32q62 86 68 176l1 111h54v-79q-1 -143 -86 -240z" horiz-adv-x="1057"/>
<glyph glyph-name="uni013C" unicode="ļ" d="M239 0h-54v1536h54v-1536zM157 -417l-37 32q62 86 68 176l1 111h54v-79q-1 -143 -86 -240z" horiz-adv-x="422"/>
<glyph glyph-name="Lcaron" unicode="Ľ" d="M255 54h747v-54h-802v1456h55v-1402zM577 1136l-37 32q62 86 68 176l1 111h54v-79q-1 -143 -86 -240z" horiz-adv-x="1057"/>
<glyph glyph-name="lcaron" unicode="ľ" d="M239 0h-54v1536h54v-1536zM426 1217l-37 32q62 86 68 176l1 111h54v-79q-1 -143 -86 -240z" horiz-adv-x="572"/>
<glyph glyph-name="Ldot" unicode="Ŀ" d="M255 54h747v-54h-802v1456h55v-1402zM607 757q0 23 16 39.5t39 16.5t39.5 -16.5t16.5 -39.5t-16.5 -39t-39.5 -16t-39 16t-16 39z" horiz-adv-x="1057"/>
<glyph glyph-name="ldot" unicode="ŀ" d="M239 0h-54v1536h54v-1536zM403 796q0 23 16 39.5t39 16.5t39.5 -16.5t16.5 -39.5t-16.5 -39t-39.5 -16t-39 16t-16 39z" horiz-adv-x="642"/>
<glyph glyph-name="Lslash" unicode="Ł" d="M247 791l351 111v-57l-351 -111v-680h747v-54h-802v716l-184 -58v57l184 58v683h55v-665z" horiz-adv-x="1061"/>
<glyph glyph-name="lslash" unicode="ł" d="M286 850l201 80v-59l-201 -80v-791h-54v769l-215 -85v59l215 85v708h54v-686z" horiz-adv-x="505"/>
<glyph glyph-name="Nacute" unicode="Ń" d="M1249 0h-54l-940 1364v-1364h-55v1456h55l940 -1361v1361h54v-1456zM875 1835h66l-195 -266h-60z" horiz-adv-x="1449"/>
<glyph glyph-name="nacute" unicode="ń" d="M226 830q53 126 156 199t228 73q174 0 258.5 -98.5t85.5 -297.5v-706h-54v708q-1 174 -71 257.5t-222 83.5q-140 0 -242.5 -99.5t-138.5 -256.5v-693h-54v1082h54v-252zM727 1514h66l-195 -266h-60z"/>
<glyph glyph-name="uni0145" unicode="Ņ" d="M1249 0h-54l-940 1364v-1364h-55v1456h55l940 -1361v1361h54v-1456zM668 -417l-37 32q62 86 68 176l1 111h54v-79q-1 -143 -86 -240z" horiz-adv-x="1449"/>
<glyph glyph-name="uni0146" unicode="ņ" d="M226 830q53 126 156 199t228 73q174 0 258.5 -98.5t85.5 -297.5v-706h-54v708q-1 174 -71 257.5t-222 83.5q-140 0 -242.5 -99.5t-138.5 -256.5v-693h-54v1082h54v-252zM520 -417l-37 32q62 86 68 176l1 111h54v-79q-1 -143 -86 -240z"/>
<glyph glyph-name="Ncaron" unicode="Ň" d="M1249 0h-54l-940 1364v-1364h-55v1456h55l940 -1361v1361h54v-1456zM725 1613l194 217h53v-13l-218 -250h-59l-220 252v11h57z" horiz-adv-x="1449"/>
<glyph glyph-name="ncaron" unicode="ň" d="M226 830q53 126 156 199t228 73q174 0 258.5 -98.5t85.5 -297.5v-706h-54v708q-1 174 -71 257.5t-222 83.5q-140 0 -242.5 -99.5t-138.5 -256.5v-693h-54v1082h54v-252zM577 1291l194 217h53v-13l-218 -250h-59l-220 252v11h57z"/>
<glyph glyph-name="napostrophe" unicode="ŉ" d="M226 830q53 126 156 199t228 73q174 0 258.5 -98.5t85.5 -297.5v-706h-54v708q-1 174 -71 257.5t-222 83.5q-140 0 -242.5 -99.5t-138.5 -256.5v-693h-54v1082h54v-252zM10 1217l-37 32q62 86 68 176l1 111h54v-79q-1 -143 -86 -240z"/>
<glyph glyph-name="Eng" unicode="Ŋ" d="M1250 1456v-1545q0 -170 -75.5 -259t-209.5 -89q-54 0 -112 20l13 52q48 -18 99 -18q111 0 171 76t60 218v89l-942 1364v-1364h-54v1456h54l942 -1363v1363h54z" horiz-adv-x="1450"/>
<glyph glyph-name="eng" unicode="ŋ" d="M218 1082l6 -224q48 113 141 178.5t235 65.5q177 0 264.5 -109.5t89.5 -343.5v-738q0 -170 -75.5 -259t-209.5 -89q-65 0 -133 20l13 52q57 -19 120 -19q111 0 171 76.5t60 218.5v728q0 206 -72 307.5t-227 101.5q-158 0 -255 -95t-122 -273v-680h-54v1082h48z"/>
<glyph glyph-name="Omacron" unicode="Ō" d="M1177 839q0 264 -134 423.5t-362 159.5q-225 0 -359 -158.5t-134 -431.5v-213q0 -174 60.5 -307.5t172.5 -205.5t262 -72q228 0 361 159t133 434v212zM1231 619q0 -189 -67.5 -334.5t-192.5 -225t-288 -79.5q-246 0 -398 175t-152 472v210q0 188 67.5 334t193 225.5 t287.5 79.5q163 0 288.5 -79.5t193.5 -226t68 -333.5v-218zM982 1754h-627v53h627v-53z" horiz-adv-x="1364"/>
<glyph glyph-name="omacron" unicode="ō" d="M144 520q0 -135 53.5 -247.5t149 -175.5t218.5 -63q185 0 301.5 139t116.5 358v31q0 133 -54 246t-149.5 176.5t-216.5 63.5q-185 0 -302 -141t-117 -355v-32zM90 562q0 155 59.5 278.5t168 192.5t245.5 69q136 0 244 -67t168.5 -190t61.5 -277v-48q0 -156 -59 -279 t-167.5 -192t-245.5 -69t-245.5 68t-168.5 190.5t-61 275.5v48zM873 1411h-627v53h627v-53z" horiz-adv-x="1127"/>
<glyph glyph-name="Obreve" unicode="Ŏ" d="M1177 839q0 264 -134 423.5t-362 159.5q-225 0 -359 -158.5t-134 -431.5v-213q0 -174 60.5 -307.5t172.5 -205.5t262 -72q228 0 361 159t133 434v212zM1231 619q0 -189 -67.5 -334.5t-192.5 -225t-288 -79.5q-246 0 -398 175t-152 472v210q0 188 67.5 334t193 225.5 t287.5 79.5q163 0 288.5 -79.5t193.5 -226t68 -333.5v-218zM953 1831q0 -112 -75.5 -180t-202.5 -68q-128 0 -203.5 68t-75.5 180h54q0 -91 57 -141.5t168 -50.5q107 0 165.5 51.5t58.5 140.5h54z" horiz-adv-x="1364"/>
<glyph glyph-name="obreve" unicode="ŏ" d="M144 520q0 -135 53.5 -247.5t149 -175.5t218.5 -63q185 0 301.5 139t116.5 358v31q0 133 -54 246t-149.5 176.5t-216.5 63.5q-185 0 -302 -141t-117 -355v-32zM90 562q0 155 59.5 278.5t168 192.5t245.5 69q136 0 244 -67t168.5 -190t61.5 -277v-48q0 -156 -59 -279 t-167.5 -192t-245.5 -69t-245.5 68t-168.5 190.5t-61 275.5v48zM844 1488q0 -112 -75.5 -180t-202.5 -68q-128 0 -203.5 68t-75.5 180h54q0 -91 57 -141.5t168 -50.5q107 0 165.5 51.5t58.5 140.5h54z" horiz-adv-x="1127"/>
<glyph glyph-name="Ohungarumlaut" unicode="Ő" d="M1177 839q0 264 -134 423.5t-362 159.5q-225 0 -359 -158.5t-134 -431.5v-213q0 -174 60.5 -307.5t172.5 -205.5t262 -72q228 0 361 159t133 434v212zM1231 619q0 -189 -67.5 -334.5t-192.5 -225t-288 -79.5q-246 0 -398 175t-152 472v210q0 188 67.5 334t193 225.5 t287.5 79.5q163 0 288.5 -79.5t193.5 -226t68 -333.5v-218zM728 1876h76l-243 -304h-69zM1008 1876h80l-288 -304h-73z" horiz-adv-x="1364"/>
<glyph glyph-name="ohungarumlaut" unicode="ő" d="M144 520q0 -135 53.5 -247.5t149 -175.5t218.5 -63q185 0 301.5 139t116.5 358v31q0 133 -54 246t-149.5 176.5t-216.5 63.5q-185 0 -302 -141t-117 -355v-32zM90 562q0 155 59.5 278.5t168 192.5t245.5 69q136 0 244 -67t168.5 -190t61.5 -277v-48q0 -156 -59 -279 t-167.5 -192t-245.5 -69t-245.5 68t-168.5 190.5t-61 275.5v48zM619 1534h76l-243 -304h-69zM899 1534h80l-288 -304h-73z" horiz-adv-x="1127"/>
<glyph glyph-name="OE" unicode="Œ" d="M631 33q178 0 284 13v1363q-107 13 -286 13q-209 0 -336 -147.5t-127 -399.5v-299q0 -158 58.5 -282.5t164.5 -192.5t242 -68zM1801 0h-840q-199 -21 -330 -21q-150 0 -268 74.5t-183.5 209t-67.5 302.5v315q0 172 64.5 308.5t183.5 212t269 75.5q142 0 332 -20h840v-54 h-832v-626h730v-54h-730v-668h832v-54z" horiz-adv-x="1873"/>
<glyph glyph-name="oe" unicode="œ" d="M1441 1048q-158 0 -266.5 -116.5t-127.5 -300.5h754v33q0 169 -101.5 276.5t-258.5 107.5zM146 520q0 -135 53.5 -247.5t149 -175.5t218.5 -63q185 0 301.5 139t116.5 358v31q0 133 -54 246t-149.5 176.5t-216.5 63.5q-185 0 -302 -141t-117 -355v-32zM92 562 q0 155 59.5 278.5t168 192.5t245.5 69q166 0 284.5 -95t165.5 -260q46 161 161 258t265 97q185 0 299.5 -121t114.5 -325v-79h-811v-77q0 -126 52.5 -234t145.5 -170t202 -62q231 0 342 131l29 -42q-128 -143 -371 -143q-147 0 -266 97t-165 254q-48 -167 -167.5 -259 t-278.5 -92q-137 0 -245.5 68t-168.5 190.5t-61 275.5v48z" horiz-adv-x="1924"/>
<glyph glyph-name="Racute" unicode="Ŕ" d="M249 677h459q168 0 271.5 102t103.5 257q0 170 -114.5 268t-313.5 98h-406v-725zM754 623h-505v-623h-54v1456h464q219 0 348.5 -113t129.5 -307q0 -149 -92.5 -260.5t-235.5 -138.5l389 -623v-14h-57zM755 1835h66l-195 -266h-60z" horiz-adv-x="1340"/>
<glyph glyph-name="racute" unicode="ŕ" d="M649 1043l-70 6q-138 0 -231 -89.5t-122 -250.5v-709h-54v1082h54v-225q44 113 132 179t221 66q47 0 76 -11zM562 1514h66l-195 -266h-60z" horiz-adv-x="685"/>
<glyph glyph-name="uni0156" unicode="Ŗ" d="M249 677h459q168 0 271.5 102t103.5 257q0 170 -114.5 268t-313.5 98h-406v-725zM754 623h-505v-623h-54v1456h464q219 0 348.5 -113t129.5 -307q0 -149 -92.5 -260.5t-235.5 -138.5l389 -623v-14h-57zM548 -417l-37 32q62 86 68 176l1 111h54v-79q-1 -143 -86 -240z" horiz-adv-x="1340"/>
<glyph glyph-name="uni0157" unicode="ŗ" d="M649 1043l-70 6q-138 0 -231 -89.5t-122 -250.5v-709h-54v1082h54v-225q44 113 132 179t221 66q47 0 76 -11zM142 -417l-37 32q62 86 68 176l1 111h54v-79q-1 -143 -86 -240z" horiz-adv-x="685"/>
<glyph glyph-name="Rcaron" unicode="Ř" d="M249 677h459q168 0 271.5 102t103.5 257q0 170 -114.5 268t-313.5 98h-406v-725zM754 623h-505v-623h-54v1456h464q219 0 348.5 -113t129.5 -307q0 -149 -92.5 -260.5t-235.5 -138.5l389 -623v-14h-57zM605 1613l194 217h53v-13l-218 -250h-59l-220 252v11h57z" horiz-adv-x="1340"/>
<glyph glyph-name="rcaron" unicode="ř" d="M649 1043l-70 6q-138 0 -231 -89.5t-122 -250.5v-709h-54v1082h54v-225q44 113 132 179t221 66q47 0 76 -11zM412 1291l194 217h53v-13l-218 -250h-59l-220 252v11h57z" horiz-adv-x="685"/>
<glyph glyph-name="Sacute" unicode="Ś" d="M1072 349q0 93 -43.5 157.5t-137 114t-282.5 101.5t-283.5 105t-138.5 123t-44 170q0 159 134 257.5t349 98.5q140 0 251.5 -54.5t172.5 -153t61 -222.5h-54q0 163 -120 269.5t-311 106.5q-192 0 -310.5 -85.5t-118.5 -214.5q0 -131 103 -211t340 -141.5t347 -142.5 q140 -103 140 -276q0 -110 -62 -194.5t-176 -130.5t-256 -46q-158 0 -284 52.5t-189.5 149.5t-63.5 229h54q0 -179 134 -278t349 -99q191 0 315 87.5t124 227.5zM781 1856h66l-195 -266h-60z" horiz-adv-x="1211"/>
<glyph glyph-name="sacute" unicode="ś" d="M839 265q0 197 -336 268q-202 43 -281 110.5t-79 185.5q0 119 100.5 196t261.5 77q175 0 281 -83.5t106 -225.5h-55q0 109 -92 182t-240 73q-142 0 -225 -62t-83 -155q0 -73 31 -114.5t101 -75t204 -64.5t212 -73t113 -99.5t35 -140.5q0 -128 -105 -206t-275 -78 q-182 0 -293.5 82.5t-111.5 212.5h54q8 -114 100.5 -177.5t250.5 -63.5q145 0 235.5 67.5t90.5 163.5zM661 1514h66l-195 -266h-60z" horiz-adv-x="1019"/>
<glyph glyph-name="Scircumflex" unicode="Ŝ" d="M1072 349q0 93 -43.5 157.5t-137 114t-282.5 101.5t-283.5 105t-138.5 123t-44 170q0 159 134 257.5t349 98.5q140 0 251.5 -54.5t172.5 -153t61 -222.5h-54q0 163 -120 269.5t-311 106.5q-192 0 -310.5 -85.5t-118.5 -214.5q0 -131 103 -211t340 -141.5t347 -142.5 q140 -103 140 -276q0 -110 -62 -194.5t-176 -130.5t-256 -46q-158 0 -284 52.5t-189.5 149.5t-63.5 229h54q0 -179 134 -278t349 -99q191 0 315 87.5t124 227.5zM886 1593v-10h-68l-187 196l-185 -196h-64v14l230 239h40z" horiz-adv-x="1211"/>
<glyph glyph-name="scircumflex" unicode="ŝ" d="M839 265q0 197 -336 268q-202 43 -281 110.5t-79 185.5q0 119 100.5 196t261.5 77q175 0 281 -83.5t106 -225.5h-55q0 109 -92 182t-240 73q-142 0 -225 -62t-83 -155q0 -73 31 -114.5t101 -75t204 -64.5t212 -73t113 -99.5t35 -140.5q0 -128 -105 -206t-275 -78 q-182 0 -293.5 82.5t-111.5 212.5h54q8 -114 100.5 -177.5t250.5 -63.5q145 0 235.5 67.5t90.5 163.5zM766 1274v-10h-68l-187 196l-185 -196h-64v14l230 239h40z" horiz-adv-x="1019"/>
<glyph glyph-name="Scedilla" unicode="Ş" d="M1072 349q0 93 -43.5 157.5t-137 114t-282.5 101.5t-283.5 105t-138.5 123t-44 170q0 159 134 257.5t349 98.5q140 0 251.5 -54.5t172.5 -153t61 -222.5h-54q0 163 -120 269.5t-311 106.5q-192 0 -310.5 -85.5t-118.5 -214.5q0 -131 103 -211t340 -141.5t347 -142.5 q140 -103 140 -276q0 -110 -62 -194.5t-176 -130.5t-256 -46q-158 0 -284 52.5t-189.5 149.5t-63.5 229h54q0 -179 134 -278t349 -99q191 0 315 87.5t124 227.5zM660 -9l-11 -76q177 -16 177 -169q0 -85 -76 -137.5t-209 -52.5l-7 49q101 0 169 39.5t68 101.5q0 56 -38.5 84 t-150.5 40l25 121h53z" horiz-adv-x="1211"/>
<glyph glyph-name="scedilla" unicode="ş" d="M839 265q0 197 -336 268q-202 43 -281 110.5t-79 185.5q0 119 100.5 196t261.5 77q175 0 281 -83.5t106 -225.5h-55q0 109 -92 182t-240 73q-142 0 -225 -62t-83 -155q0 -73 31 -114.5t101 -75t204 -64.5t212 -73t113 -99.5t35 -140.5q0 -128 -105 -206t-275 -78 q-182 0 -293.5 82.5t-111.5 212.5h54q8 -114 100.5 -177.5t250.5 -63.5q145 0 235.5 67.5t90.5 163.5zM540 -4l-11 -76q177 -16 177 -169q0 -85 -76 -137.5t-209 -52.5l-7 49q101 0 169 39.5t68 101.5q0 56 -38.5 84t-150.5 40l25 121h53z" horiz-adv-x="1019"/>
<glyph glyph-name="Scaron" unicode="Š" d="M1072 349q0 93 -43.5 157.5t-137 114t-282.5 101.5t-283.5 105t-138.5 123t-44 170q0 159 134 257.5t349 98.5q140 0 251.5 -54.5t172.5 -153t61 -222.5h-54q0 163 -120 269.5t-311 106.5q-192 0 -310.5 -85.5t-118.5 -214.5q0 -131 103 -211t340 -141.5t347 -142.5 q140 -103 140 -276q0 -110 -62 -194.5t-176 -130.5t-256 -46q-158 0 -284 52.5t-189.5 149.5t-63.5 229h54q0 -179 134 -278t349 -99q191 0 315 87.5t124 227.5zM631 1634l194 217h53v-13l-218 -250h-59l-220 252v11h57z" horiz-adv-x="1211"/>
<glyph glyph-name="scaron" unicode="š" d="M839 265q0 197 -336 268q-202 43 -281 110.5t-79 185.5q0 119 100.5 196t261.5 77q175 0 281 -83.5t106 -225.5h-55q0 109 -92 182t-240 73q-142 0 -225 -62t-83 -155q0 -73 31 -114.5t101 -75t204 -64.5t212 -73t113 -99.5t35 -140.5q0 -128 -105 -206t-275 -78 q-182 0 -293.5 82.5t-111.5 212.5h54q8 -114 100.5 -177.5t250.5 -63.5q145 0 235.5 67.5t90.5 163.5zM511 1291l194 217h53v-13l-218 -250h-59l-220 252v11h57z" horiz-adv-x="1019"/>
<glyph glyph-name="uni0162" unicode="Ţ" d="M1169 1402h-530v-1402h-54v1402h-530v54h1114v-54zM640 0l-11 -76q177 -16 177 -169q0 -85 -76 -137.5t-209 -52.5l-7 49q101 0 169 39.5t68 101.5q0 56 -38.5 84t-150.5 40l25 121h53z" horiz-adv-x="1224"/>
<glyph glyph-name="uni0163" unicode="ţ" d="M293 1374v-292h246v-55h-246v-768q0 -115 37.5 -170t125.5 -55q44 0 107 9l9 -51q-33 -12 -113 -12q-118 0 -169 65.5t-52 206.5v775h-200v55h200v292h55zM441 0l-11 -76q177 -16 177 -169q0 -85 -76 -137.5t-209 -52.5l-7 49q101 0 169 39.5t68 101.5q0 56 -38.5 84 t-150.5 40l25 121h53z" horiz-adv-x="648"/>
<glyph glyph-name="Tcaron" unicode="Ť" d="M1169 1402h-530v-1402h-54v1402h-530v54h1114v-54zM608 1605l194 217h53v-13l-218 -250h-59l-220 252v11h57z" horiz-adv-x="1224"/>
<glyph glyph-name="tcaron" unicode="ť" d="M293 1374v-292h246v-55h-246v-768q0 -115 37.5 -170t125.5 -55q44 0 107 9l9 -51q-33 -12 -113 -12q-118 0 -169 65.5t-52 206.5v775h-200v55h200v292h55zM488 1241l-37 32q62 86 68 176l1 111h54v-79q-1 -143 -86 -240z" horiz-adv-x="688"/>
<glyph glyph-name="Tbar" unicode="Ŧ" d="M888 847h-249v-847h-54v847h-284v54h284v501h-530v54h1114v-54h-530v-501h249v-54z" horiz-adv-x="1224"/>
<glyph glyph-name="tbar" unicode="ŧ" d="M293 1374v-292h246v-55h-246v-339h335v-54h-335v-375q0 -115 37.5 -170t125.5 -55q44 0 107 9l9 -51q-33 -12 -113 -12q-116 0 -167 63t-54 199v392h-197v54h197v339h-200v55h200v292h55z" horiz-adv-x="648"/>
<glyph glyph-name="Utilde" unicode="Ũ" d="M1180 1456v-986q0 -231 -134 -360.5t-363 -129.5t-363 129.5t-135 356.5v990h54v-984q0 -202 121.5 -320t322.5 -118t322 118t121 321v983h54zM1025 1806q0 -82 -50.5 -134t-125.5 -52q-81 0 -153 62.5t-134 62.5q-56 0 -88.5 -34t-32.5 -91h-55q0 80 50 129.5t126 49.5 q78 0 153.5 -62t133.5 -62q54 0 87.5 36t33.5 95h55z" horiz-adv-x="1365"/>
<glyph glyph-name="utilde" unicode="ũ" d="M897 0v175q-48 -90 -140 -142.5t-233 -52.5q-177 0 -265.5 103.5t-90.5 301.5v697h54v-699q2 -172 78 -260.5t222 -88.5q155 0 252 73t123 214v761h55v-1082h-55zM908 1487q0 -82 -50.5 -134t-125.5 -52q-81 0 -153 62.5t-134 62.5q-56 0 -88.5 -34t-32.5 -91h-55 q0 80 50 129.5t126 49.5q78 0 153.5 -62t133.5 -62q54 0 87.5 36t33.5 95h55z"/>
<glyph glyph-name="Umacron" unicode="Ū" d="M1180 1456v-986q0 -231 -134 -360.5t-363 -129.5t-363 129.5t-135 356.5v990h54v-984q0 -202 121.5 -320t322.5 -118t322 118t121 321v983h54zM1003 1733h-627v53h627v-53z" horiz-adv-x="1365"/>
<glyph glyph-name="umacron" unicode="ū" d="M897 0v175q-48 -90 -140 -142.5t-233 -52.5q-177 0 -265.5 103.5t-90.5 301.5v697h54v-699q2 -172 78 -260.5t222 -88.5q155 0 252 73t123 214v761h55v-1082h-55zM886 1414h-627v53h627v-53z"/>
<glyph glyph-name="Ubreve" unicode="Ŭ" d="M1180 1456v-986q0 -231 -134 -360.5t-363 -129.5t-363 129.5t-135 356.5v990h54v-984q0 -202 121.5 -320t322.5 -118t322 118t121 321v983h54zM974 1810q0 -112 -75.5 -180t-202.5 -68q-128 0 -203.5 68t-75.5 180h54q0 -91 57 -141.5t168 -50.5q107 0 165.5 51.5 t58.5 140.5h54z" horiz-adv-x="1365"/>
<glyph glyph-name="ubreve" unicode="ŭ" d="M897 0v175q-48 -90 -140 -142.5t-233 -52.5q-177 0 -265.5 103.5t-90.5 301.5v697h54v-699q2 -172 78 -260.5t222 -88.5q155 0 252 73t123 214v761h55v-1082h-55zM857 1491q0 -112 -75.5 -180t-202.5 -68q-128 0 -203.5 68t-75.5 180h54q0 -91 57 -141.5t168 -50.5 q107 0 165.5 51.5t58.5 140.5h54z"/>
<glyph glyph-name="Uring" unicode="Ů" d="M1180 1456v-986q0 -231 -134 -360.5t-363 -129.5t-363 129.5t-135 356.5v990h54v-984q0 -202 121.5 -320t322.5 -118t322 118t121 321v983h54zM582 1701q0 -52 33 -84t84 -32t84 32t33 84q0 54 -33 87t-84 33t-84 -33t-33 -87zM699 1875q72 0 121.5 -51t49.5 -123 t-49.5 -121t-121.5 -49q-69 0 -120 47.5t-51 122.5t50.5 124.5t120.5 49.5z" horiz-adv-x="1365"/>
<glyph glyph-name="uring" unicode="ů" d="M897 0v175q-48 -90 -140 -142.5t-233 -52.5q-177 0 -265.5 103.5t-90.5 301.5v697h54v-699q2 -172 78 -260.5t222 -88.5q155 0 252 73t123 214v761h55v-1082h-55zM465 1382q0 -52 33 -84t84 -32t84 32t33 84q0 54 -33 87t-84 33t-84 -33t-33 -87zM582 1556 q72 0 121.5 -51t49.5 -123t-49.5 -121t-121.5 -49q-69 0 -120 47.5t-51 122.5t50.5 124.5t120.5 49.5z"/>
<glyph glyph-name="Uhungarumlaut" unicode="Ű" d="M1180 1456v-986q0 -231 -134 -360.5t-363 -129.5t-363 129.5t-135 356.5v990h54v-984q0 -202 121.5 -320t322.5 -118t322 118t121 321v983h54zM749 1855h76l-243 -304h-69zM1029 1855h80l-288 -304h-73z" horiz-adv-x="1365"/>
<glyph glyph-name="uhungarumlaut" unicode="ű" d="M897 0v175q-48 -90 -140 -142.5t-233 -52.5q-177 0 -265.5 103.5t-90.5 301.5v697h54v-699q2 -172 78 -260.5t222 -88.5q155 0 252 73t123 214v761h55v-1082h-55zM632 1536h76l-243 -304h-69zM912 1536h80l-288 -304h-73z"/>
<glyph glyph-name="Uogonek" unicode="Ų" d="M1180 1456v-987q0 -164 -66.5 -273t-177.5 -163q-112 -87 -150 -140.5t-38 -105.5q0 -95 93 -95q57 0 110 38l16 -48q-56 -44 -126 -44q-67 0 -107 36.5t-40 112.5q0 90 127 207q-68 -14 -138 -14q-229 0 -363 129.5t-135 356.5v990h54v-984q0 -202 121.5 -320 t322.5 -118t322 118t121 321v983h54z" horiz-adv-x="1365"/>
<glyph glyph-name="uogonek" unicode="ų" d="M951 0q-112 -87 -150 -140.5t-38 -105.5q0 -95 93 -95q57 0 110 38l16 -48q-56 -44 -126 -44q-67 0 -107 36.5t-40 112.5q0 112 188 257v164q-48 -90 -140 -142.5t-233 -52.5q-177 0 -265.5 103.5t-90.5 301.5v697h54v-699q2 -172 78 -260.5t222 -88.5q155 0 252 73 t123 214v761h55v-1082h-1z"/>
<glyph glyph-name="Wcircumflex" unicode="Ŵ" d="M489 90l66 240l344 1126h60l342 -1126l65 -240l68 240l300 1126h59l-392 -1456h-61l-361 1214l-51 154l-49 -154l-364 -1214h-61l-393 1456h60l302 -1126zM1180 1593v-10h-68l-187 196l-185 -196h-64v14l230 239h40z" horiz-adv-x="1855"/>
<glyph glyph-name="wcircumflex" unicode="ŵ" d="M366 313l59 -233l317 1002h55l315 -1002l61 233l220 769h63l-315 -1082h-54l-267 813l-51 194l-55 -194l-263 -813h-54l-314 1082h62zM1021 1274v-10h-68l-187 196l-185 -196h-64v14l230 239h40z" horiz-adv-x="1550"/>
<glyph glyph-name="Ycircumflex" unicode="Ŷ" d="M609 602l510 854h66l-549 -903v-553h-54v553l-549 903h72zM862 1593v-10h-68l-187 196l-185 -196h-64v14l230 239h40z" horiz-adv-x="1223"/>
<glyph glyph-name="ycircumflex" unicode="ŷ" d="M503 84l7 20l374 978h60l-484 -1270l-24 -60q-78 -189 -258 -189q-58 0 -80 11l-1 51q32 -9 73 -9q85 0 141 49.5t97 161.5l66 179l-431 1076h59zM773 1274v-10h-68l-187 196l-185 -196h-64v14l230 239h40z" horiz-adv-x="978"/>
<glyph glyph-name="Ydieresis" unicode="Ÿ" d="M609 602l510 854h66l-549 -903v-553h-54v553l-549 903h72zM787 1729q0 23 16 39.5t39 16.5t39.5 -16.5t16.5 -39.5t-16.5 -39t-39.5 -16t-39 16t-16 39zM342 1729q0 23 16 39.5t39 16.5t39.5 -16.5t16.5 -39.5t-16.5 -39t-39.5 -16t-39 16t-16 39z" horiz-adv-x="1223"/>
<glyph glyph-name="Zacute" unicode="Ź" d="M168 54h962v-54h-1036v44l929 1359h-889v53h964v-38zM758 1835h66l-195 -266h-60z" horiz-adv-x="1224"/>
<glyph glyph-name="zacute" unicode="ź" d="M160 54h770v-54h-843v44l711 983h-680v55h753v-48zM659 1516h66l-195 -266h-60z" horiz-adv-x="978"/>
<glyph glyph-name="Zdotaccent" unicode="Ż" d="M168 54h962v-54h-1036v44l929 1359h-889v53h964v-38zM561 1716q0 23 16 39.5t39 16.5t39.5 -16.5t16.5 -39.5t-16.5 -39t-39.5 -16t-39 16t-16 39z" horiz-adv-x="1224"/>
<glyph glyph-name="zdotaccent" unicode="ż" d="M160 54h770v-54h-843v44l711 983h-680v55h753v-48zM462 1397q0 23 16 39.5t39 16.5t39.5 -16.5t16.5 -39.5t-16.5 -39t-39.5 -16t-39 16t-16 39z" horiz-adv-x="978"/>
<glyph glyph-name="Zcaron" unicode="Ž" d="M168 54h962v-54h-1036v44l929 1359h-889v53h964v-38zM608 1613l194 217h53v-13l-218 -250h-59l-220 252v11h57z" horiz-adv-x="1224"/>
<glyph glyph-name="zcaron" unicode="ž" d="M160 54h770v-54h-843v44l711 983h-680v55h753v-48zM509 1294l194 217h53v-13l-218 -250h-59l-220 252v11h57z" horiz-adv-x="978"/>
<glyph glyph-name="longs" unicode="ſ" d="M174 0v1236q0 156 74.5 238.5t207.5 82.5q75 0 128 -17l-8 -52q-52 15 -119 15q-107 0 -168 -69.5t-61 -197.5v-1236h-54z" horiz-adv-x="422"/>
<glyph glyph-name="uni018F" unicode="Ə" d="M754 34q151 0 268 78t183.5 222.5t67.5 321.5h-1063v-72q0 -158 66 -284t190 -196t288 -70zM754 -20q-274 0 -436 165.5t-162 447.5v118h1117v124q0 275 -143.5 431t-401.5 156q-147 0 -260.5 -43t-194.5 -111l-30 43l63 49q165 116 422 116q276 0 437.5 -171.5 t161.5 -479.5v-162q0 -196 -73.5 -352.5t-205 -243.5t-294.5 -87z" horiz-adv-x="1452"/>
<glyph glyph-name="florin" unicode="ƒ" d="M593 1027h-286v-1116q0 -170 -75 -259t-210 -89q-54 0 -112 20l13 52q48 -18 99 -18q112 0 171.5 76t59.5 218v1116h-188v55h188v158q1 150 75.5 233.5t207.5 83.5q74 0 128 -17l-8 -52q-52 15 -119 15q-107 0 -168.5 -69.5t-61.5 -197.5v-154h286v-55z" horiz-adv-x="644"/>
<glyph glyph-name="Ohorn" unicode="Ơ" d="M1208 839q0 264 -134 423.5t-362 159.5q-225 0 -359 -158.5t-134 -431.5v-213q0 -174 60.5 -307.5t172.5 -205.5t262 -72q228 0 361 159t133 434v212zM1262 619q0 -189 -67.5 -334.5t-192.5 -225t-288 -79.5q-246 0 -398 175t-152 472v210q0 188 67.5 334t193 225.5 t287.5 79.5q148 0 260.5 -63t184.5 -175q130 2 189 67.5t59 235.5h54q0 -174 -65 -259.5t-207 -96.5q73 -149 75 -339v-227z" horiz-adv-x="1451"/>
<glyph glyph-name="ohorn" unicode="ơ" d="M141 520q0 -135 53.5 -247.5t149 -175.5t218.5 -63q185 0 301.5 139t116.5 358v31q0 133 -54 246t-149.5 176.5t-216.5 63.5q-185 0 -302 -141t-117 -355v-32zM87 562q0 155 59.5 278.5t168 192.5t245.5 69q209 0 341 -149q108 3 155 54.5t47 188.5h55 q0 -143 -51.5 -212.5t-166.5 -82.5q92 -140 94 -332v-49q0 -156 -59 -279t-167.5 -192t-245.5 -69t-245.5 68t-168.5 190.5t-61 275.5v48z" horiz-adv-x="1122"/>
<glyph glyph-name="Uhorn" unicode="Ư" d="M1180 1456v-208q122 5 178 72t56 231h54q0 -183 -70 -267t-218 -90v-724q0 -231 -134 -360.5t-363 -129.5t-363 129.5t-135 356.5v990h54v-984q0 -202 121.5 -320t322.5 -118t322 118t121 321v983h54z" horiz-adv-x="1365"/>
<glyph glyph-name="uhorn" unicode="ư" d="M1187 1190q0 -148 -56.5 -218t-178.5 -79v-893h-55v175q-48 -90 -140 -142.5t-233 -52.5q-177 0 -265.5 103.5t-90.5 301.5v697h54v-699q2 -172 78 -260.5t222 -88.5q155 0 252 73t123 214v761h55v-135q95 7 137.5 59t42.5 184h55z" horiz-adv-x="1133"/>
<glyph glyph-name="uni01F0" unicode="ǰ" d="M240 1082v-1171q0 -170 -75 -259t-210 -89q-54 0 -112 20l13 52q48 -18 99 -18q112 0 171.5 76t59.5 218v1171h54zM209 1251l194 217h53v-13l-218 -250h-59l-220 252v11h57z" horiz-adv-x="422"/>
<glyph glyph-name="Aringacute" unicode="Ǻ" d="M274 489h673l-336 902zM967 435h-713l-162 -435h-59l545 1456h66l545 -1456h-59zM525 1533q0 -38 26 -63t62 -25t61 25t25 63q0 40 -25 65.5t-61 25.5t-62 -25.5t-26 -65.5zM474 1533q0 58 40.5 100t98.5 42t97.5 -43t39.5 -99q0 -55 -39.5 -96.5t-97.5 -41.5 q-59 0 -99 41t-40 97zM758 1920h80l-184 -191h-66z" horiz-adv-x="1223"/>
<glyph glyph-name="aringacute" unicode="ǻ" d="M425 33q152 0 261.5 68t164.5 191v257h-250q-232 0 -355 -92q-100 -75 -100 -187q0 -99 79 -168t200 -69zM871 0q-20 69 -20 198q-64 -104 -175 -161t-251 -57q-150 0 -241.5 81.5t-91.5 212.5q0 149 134.5 238.5t357.5 91.5h267v158q0 136 -85.5 211t-244.5 75 q-148 0 -247 -76t-99 -188l-54 2q0 132 116 224t284 92q175 0 278 -87.5t106 -246.5v-517q0 -178 28 -242v-9h-62zM490 1214q0 -38 26 -63t62 -25t61 25t25 63q0 40 -25 65.5t-61 25.5t-62 -25.5t-26 -65.5zM439 1214q0 58 40.5 100t98.5 42t97.5 -43t39.5 -99 q0 -55 -39.5 -96.5t-97.5 -41.5q-59 0 -99 41t-40 97zM723 1601h80l-184 -191h-66z" horiz-adv-x="1081"/>
<glyph glyph-name="AEacute" unicode="Ǽ" d="M403 478h593l-39 920zM1768 0h-752l-18 425h-627l-256 -425h-65l881 1456h776v-54h-696l26 -616h588v-54h-586l28 -678h701v-54zM1120 1835h66l-195 -266h-60z" horiz-adv-x="1816"/>
<glyph glyph-name="aeacute" unicode="ǽ" d="M1253 1048q-153 0 -257 -113.5t-123 -302.5h730v32q0 174 -93.5 279t-256.5 105zM447 32q81 0 159 28.5t135.5 75.5t71.5 89v350h-301q-167 -3 -265.5 -83t-98.5 -212q0 -116 76.5 -182t222.5 -66zM1268 -20q-147 0 -247.5 67.5t-152.5 182.5v-12h1 q-48 -107 -162.5 -172.5t-258.5 -65.5q-168 0 -261.5 82t-93.5 222q0 158 110.5 251t312.5 95h297v90q0 156 -72 242t-220 86q-158 0 -252.5 -76t-94.5 -201l-53 7q0 145 111.5 234.5t288.5 89.5q141 0 228.5 -74t110.5 -214q56 137 159.5 212.5t233.5 75.5 q186 0 295 -116.5t109 -329.5v-79h-787v-77q0 -218 104.5 -342t293.5 -124q204 0 332 130l30 -42q-79 -79 -165.5 -110.5t-196.5 -31.5zM1008 1515h66l-195 -266h-60z" horiz-adv-x="1735"/>
<glyph glyph-name="Oslashacute" unicode="Ǿ" d="M1177 839q0 237 -107 388l-692 -1090q124 -103 305 -103q228 0 361 159t133 434v212zM188 619q0 -284 149 -443l696 1097q-132 149 -352 149q-225 0 -359 -158.5t-134 -431.5v-213zM1231 619q0 -189 -67.5 -334.5t-192.5 -225t-288 -79.5q-195 0 -334 112l-106 -167h-66 l130 205q-174 176 -174 499v208q0 188 67.5 334t193 225.5t287.5 79.5q231 0 382 -157l111 176h66l-140 -220q130 -172 131 -436v-220zM861 1897h66l-195 -266h-60z" horiz-adv-x="1364"/>
<glyph glyph-name="oslashacute" unicode="ǿ" d="M980 562q0 122 -45.5 228t-128.5 173l-430 -886q83 -43 186 -43q185 0 301.5 139t116.5 358v31zM141 520q0 -132 49.5 -240.5t136.5 -172.5l432 888q-88 53 -199 53q-185 0 -302 -141t-117 -355v-32zM87 562q0 155 59.5 278.5t168 192.5t245.5 69q120 0 224 -55l84 172 h63l-99 -203q95 -70 148.5 -187t53.5 -267v-42q0 -156 -59 -279t-167.5 -192t-245.5 -69q-112 0 -210 48l-84 -173h-63l98 201q-103 69 -159.5 191.5t-56.5 274.5v40zM659 1513h66l-195 -266h-60z"/>
<glyph glyph-name="uni0218" unicode="Ș" d="M1072 349q0 93 -43.5 157.5t-137 114t-282.5 101.5t-283.5 105t-138.5 123t-44 170q0 159 134 257.5t349 98.5q140 0 251.5 -54.5t172.5 -153t61 -222.5h-54q0 163 -120 269.5t-311 106.5q-192 0 -310.5 -85.5t-118.5 -214.5q0 -131 103 -211t340 -141.5t347 -142.5 q140 -103 140 -276q0 -110 -62 -194.5t-176 -130.5t-256 -46q-158 0 -284 52.5t-189.5 149.5t-63.5 229h54q0 -179 134 -278t349 -99q191 0 315 87.5t124 227.5zM574 -417l-37 32q62 86 68 176l1 111h54v-79q-1 -143 -86 -240z" horiz-adv-x="1211"/>
<glyph glyph-name="uni0219" unicode="ș" d="M839 265q0 197 -336 268q-202 43 -281 110.5t-79 185.5q0 119 100.5 196t261.5 77q175 0 281 -83.5t106 -225.5h-55q0 109 -92 182t-240 73q-142 0 -225 -62t-83 -155q0 -73 31 -114.5t101 -75t204 -64.5t212 -73t113 -99.5t35 -140.5q0 -128 -105 -206t-275 -78 q-182 0 -293.5 82.5t-111.5 212.5h54q8 -114 100.5 -177.5t250.5 -63.5q145 0 235.5 67.5t90.5 163.5zM454 -417l-37 32q62 86 68 176l1 111h54v-79q-1 -143 -86 -240z" horiz-adv-x="1019"/>
<glyph glyph-name="uni021A" unicode="Ț" d="M1169 1402h-530v-1402h-54v1402h-530v54h1114v-54zM554 -417l-37 32q62 86 68 176l1 111h54v-79q-1 -143 -86 -240z" horiz-adv-x="1224"/>
<glyph glyph-name="uni021B" unicode="ț" d="M293 1374v-292h246v-55h-246v-768q0 -115 37.5 -170t125.5 -55q44 0 107 9l9 -51q-33 -12 -113 -12q-118 0 -169 65.5t-52 206.5v775h-200v55h200v292h55zM355 -417l-37 32q62 86 68 176l1 111h54v-79q-1 -143 -86 -240z" horiz-adv-x="648"/>
<glyph glyph-name="uni0237" unicode="ȷ" d="M240 1082v-1171q0 -170 -75 -259t-210 -89q-54 0 -112 20l13 52q48 -18 99 -18q112 0 171.5 76t59.5 218v1171h54z" horiz-adv-x="422"/>
<glyph glyph-name="uni0259" unicode="ə" d="M894 450h-753v-33q0 -169 101.5 -276.5t258.5 -107.5t265.5 116.5t127.5 300.5zM498 1102q120 0 226 -69.5t167 -189t61 -260.5v-66q0 -151 -59.5 -275t-163 -193.5t-228.5 -69.5q-185 0 -299.5 121t-114.5 325v79h810l1 77q0 127 -52.5 234.5t-145 170t-202.5 62.5 q-112 0 -196 -30.5t-146 -101.5l-29 42q129 144 371 144z" horiz-adv-x="1032"/>
<glyph glyph-name="uni02BC" unicode="ʼ" d="M114 1151l-37 32q81 104 88 215l1 138h54v-117q-4 -159 -106 -268z" horiz-adv-x="320"/>
<glyph glyph-name="circumflex" unicode="ˆ" d="M656 1274v-10h-68l-187 196l-185 -196h-64v14l230 239h40z" horiz-adv-x="796"/>
<glyph glyph-name="caron" unicode="ˇ" d="M386 1289l194 217h53v-13l-218 -250h-59l-220 252v11h57z" horiz-adv-x="764"/>
<glyph glyph-name="uni02C9" unicode="ˉ" d="M719 1403h-627v53h627v-53z" horiz-adv-x="811"/>
<glyph glyph-name="breve" unicode="˘" d="M704 1486q0 -112 -75.5 -180t-202.5 -68q-128 0 -203.5 68t-75.5 180h54q0 -91 57 -141.5t168 -50.5q107 0 165.5 51.5t58.5 140.5h54z" horiz-adv-x="857"/>
<glyph glyph-name="dotaccent" unicode="˙" d="M156 1397q0 23 16 39.5t39 16.5t39.5 -16.5t16.5 -39.5t-16.5 -39t-39.5 -16t-39 16t-16 39z" horiz-adv-x="422"/>
<glyph glyph-name="ring" unicode="˚" d="M168 1382q0 -52 33 -84t84 -32t84 32t33 84q0 54 -33 87t-84 33t-84 -33t-33 -87zM285 1556q72 0 121.5 -51t49.5 -123t-49.5 -121t-121.5 -49q-69 0 -120 47.5t-51 122.5t50.5 124.5t120.5 49.5z" horiz-adv-x="586"/>
<glyph glyph-name="ogonek" unicode="˛" d="M313 0q-112 -77 -150 -130.5t-38 -105.5q0 -95 93 -95q57 0 110 38l16 -48q-56 -44 -126 -44q-67 0 -107 36.5t-40 112.5q0 117 199 256z" horiz-adv-x="471"/>
<glyph glyph-name="tilde" unicode="˜" d="M729 1472q0 -82 -50.5 -134t-125.5 -52q-81 0 -153 62.5t-134 62.5q-56 0 -88.5 -34t-32.5 -91h-55q0 80 50 129.5t126 49.5q78 0 153.5 -62t133.5 -62q54 0 87.5 36t33.5 95h55z" horiz-adv-x="817"/>
<glyph glyph-name="hungarumlaut" unicode="˝" d="M382 1536h76l-243 -304h-69zM662 1536h80l-288 -304h-73z" horiz-adv-x="783"/>
<glyph glyph-name="uni02F3" unicode="˳" d="M247 -219q0 -26 22 -43t54 -17t54 17t22 43q0 27 -22 44.5t-54 17.5t-54 -17.5t-22 -44.5zM189 -219q0 48 38.5 84t95.5 36q56 0 94.5 -36t38.5 -84q0 -49 -39.5 -82.5t-93.5 -33.5q-55 0 -94.5 33.5t-39.5 82.5z" horiz-adv-x="642"/>
<glyph glyph-name="gravecomb" unicode="̀" d="M-490 1250h-59l-195 266h66z" horiz-adv-x="0"/>
<glyph glyph-name="acutecomb" unicode="́" d="M-385 1516h66l-195 -266h-60z" horiz-adv-x="0"/>
<glyph glyph-name="tildecomb" unicode="̃" d="M-183 1472q0 -82 -50.5 -134t-125.5 -52q-81 0 -153 62.5t-134 62.5q-56 0 -88.5 -34t-32.5 -91h-55q0 80 50 129.5t126 49.5q78 0 153.5 -62t133.5 -62q54 0 87.5 36t33.5 95h55z" horiz-adv-x="0"/>
<glyph glyph-name="hookabovecomb" unicode="̉" d="M-598 1227v99q99 8 144 33t45 81q0 51 -64 80.5t-172 29.5l7 49q124 0 204.5 -42t80.5 -117q0 -70 -50 -111t-147 -48v-54h-48z" horiz-adv-x="0"/>
<glyph glyph-name="uni030F" unicode="̏" d="M-373 1252h-69l-253 266h76zM-598 1252h-73l-298 266h80z" horiz-adv-x="0"/>
<glyph glyph-name="dotbelowcomb" unicode="̣" d="M-632 -218q0 23 16 39.5t39 16.5t39.5 -16.5t16.5 -39.5t-16.5 -39t-39.5 -16t-39 16t-16 39z" horiz-adv-x="0"/>
<glyph glyph-name="tonos" unicode="΄" d="M309 1578h63l-103 -273h-53z" horiz-adv-x="514"/>
<glyph glyph-name="dieresistonos" unicode="΅" d="M639 1421q0 23 16 39.5t39 16.5t39.5 -16.5t16.5 -39.5t-16.5 -39t-39.5 -16t-39 16t-16 39zM194 1421q0 23 16 39.5t39 16.5t39.5 -16.5t16.5 -39.5t-16.5 -39t-39.5 -16t-39 16t-16 39zM466 1657h79l-43 -240h-59z" horiz-adv-x="928"/>
<glyph glyph-name="Alphatonos" unicode="Ά" d="M274 489h673l-336 902zM967 435h-713l-162 -435h-59l545 1456h66l545 -1456h-59zM272 1577h63l-103 -273h-53z" horiz-adv-x="1223"/>
<glyph glyph-name="anoteleia" unicode="·" d="M179 706q0 23 16 39.5t39 16.5t39.5 -16.5t16.5 -39.5t-16.5 -39t-39.5 -16t-39 16t-16 39z" horiz-adv-x="472"/>
<glyph glyph-name="Epsilontonos" unicode="Έ" d="M1084 722h-730v-668h832v-54h-886v1456h886v-54h-832v-626h730v-54zM21 1579h63l-103 -273h-53z" horiz-adv-x="1266"/>
<glyph glyph-name="Etatonos" unicode="Ή" d="M1338 0h-54v722h-930v-722h-54v1456h54v-680h930v680h54v-1456zM33 1579h63l-103 -273h-53z" horiz-adv-x="1538"/>
<glyph glyph-name="Iotatonos" unicode="Ί" d="M394 0h-54v1456h54v-1456zM59 1574h63l-103 -273h-53z" horiz-adv-x="634"/>
<glyph glyph-name="Omicrontonos" unicode="Ό" d="M1197 839q0 264 -134 423.5t-362 159.5q-225 0 -359 -158.5t-134 -431.5v-213q0 -174 60.5 -307.5t172.5 -205.5t262 -72q228 0 361 159t133 434v212zM1251 619q0 -189 -67.5 -334.5t-192.5 -225t-288 -79.5q-246 0 -398 175t-152 472v210q0 188 67.5 334t193 225.5 t287.5 79.5q163 0 288.5 -79.5t193.5 -226t68 -333.5v-218zM121 1577h63l-103 -273h-53z" horiz-adv-x="1384"/>
<glyph glyph-name="Upsilontonos" unicode="Ύ" d="M709 602l510 854h66l-549 -903v-553h-54v553l-549 903h72zM-81 1577h63l-103 -273h-53z" horiz-adv-x="1323"/>
<glyph glyph-name="Omegatonos" unicode="Ώ" d="M781 78q357 179 359 649v124q0 163 -59 294t-165 204t-241 73q-207 0 -335 -162t-128 -418v-110q0 -472 365 -654v-78h-435v54h366q-166 95 -256 264t-94 389v142q0 186 65 329t183 220.5t269 77.5t269.5 -78t184 -221t65.5 -327v-118q0 -228 -87.5 -402t-259.5 -276h368 v-54h-434v78zM141 1577h63l-103 -273h-53z" horiz-adv-x="1341"/>
<glyph glyph-name="iotadieresistonos" unicode="ΐ" d="M225 1082v-819q1 -110 38.5 -163.5t124.5 -53.5q44 0 107 9l9 -51q-33 -12 -113 -12q-118 0 -169 65.5t-52 206.5v818h55zM360 1398q0 23 16 39.5t39 16.5t39.5 -16.5t16.5 -39.5t-16.5 -39t-39.5 -16t-39 16t-16 39zM-85 1398q0 23 16 39.5t39 16.5t39.5 -16.5 t16.5 -39.5t-16.5 -39t-39.5 -16t-39 16t-16 39zM187 1634h79l-43 -240h-59z" horiz-adv-x="565"/>
<glyph glyph-name="Alpha" unicode="Α" d="M274 489h673l-336 902zM967 435h-713l-162 -435h-59l545 1456h66l545 -1456h-59z" horiz-adv-x="1223"/>
<glyph glyph-name="Beta" unicode="Β" d="M254 773h349q199 0 300 76.5t101 237.5q0 310 -409 315h-341v-629zM254 719v-665h421q185 0 290.5 91.5t105.5 253.5q0 138 -102 227.5t-273 92.5h-442zM200 0v1456h383q235 0 355.5 -95.5t120.5 -277.5q0 -132 -67 -219t-189 -111q138 -18 230 -119.5t92 -232.5 q0 -186 -120.5 -293.5t-335.5 -107.5h-469z" horiz-adv-x="1235"/>
<glyph glyph-name="Gamma" unicode="Γ" d="M1055 1402h-808v-1402h-54v1456h862v-54z" horiz-adv-x="1122"/>
<glyph glyph-name="uni0394" unicode="Δ" d="M140 54h1133l-537 1271l-30 80l-30 -80zM674 1456h65l617 -1456h-1298z" horiz-adv-x="1411"/>
<glyph glyph-name="uni0394" unicode="∆" d="M140 54h1133l-537 1271l-30 80l-30 -80zM674 1456h65l617 -1456h-1298z" horiz-adv-x="1411"/>
<glyph glyph-name="Epsilon" unicode="Ε" d="M984 722h-730v-668h832v-54h-886v1456h886v-54h-832v-626h730v-54z" horiz-adv-x="1166"/>
<glyph glyph-name="Zeta" unicode="Ζ" d="M168 54h962v-54h-1036v44l929 1359h-889v53h964v-38z" horiz-adv-x="1224"/>
<glyph glyph-name="Eta" unicode="Η" d="M1238 0h-54v722h-930v-722h-54v1456h54v-680h930v680h54v-1456z" horiz-adv-x="1438"/>
<glyph glyph-name="Theta" unicode="Θ" d="M1177 839q0 264 -134 423.5t-362 159.5q-225 0 -359 -158.5t-134 -431.5v-213q0 -174 60.5 -307.5t172.5 -205.5t262 -72q228 0 361 159t133 434v212zM1231 619q0 -189 -67.5 -334.5t-192.5 -225t-288 -79.5q-246 0 -398 175t-152 472v210q0 188 67.5 334t193 225.5 t287.5 79.5q163 0 288.5 -79.5t193.5 -226t68 -333.5v-218zM971 691h-591v53h591v-53z" horiz-adv-x="1364"/>
<glyph glyph-name="Iota" unicode="Ι" d="M294 0h-54v1456h54v-1456z" horiz-adv-x="534"/>
<glyph glyph-name="Kappa" unicode="Κ" d="M487 766l-233 -215v-551h-54v1456h54v-842l240 235l604 607h78l-649 -653l699 -803h-70z" horiz-adv-x="1300"/>
<glyph glyph-name="Lambda" unicode="Λ" d="M653 1386l-507 -1386h-59l534 1456h65l535 -1456h-59z" horiz-adv-x="1313"/>
<glyph glyph-name="Mu" unicode="Μ" d="M277 1456l599 -1377l601 1377h79v-1456h-54v1376l-604 -1376h-43l-601 1369v-1369h-54v1456h77z" horiz-adv-x="1756"/>
<glyph glyph-name="Nu" unicode="Ν" d="M1249 0h-54l-940 1364v-1364h-55v1456h55l940 -1361v1361h54v-1456z" horiz-adv-x="1449"/>
<glyph glyph-name="Xi" unicode="Ξ" d="M133 1456h845v-53h-845v53zM220 741h681v-54h-681v54zM112 54h905v-54h-905v54z"/>
<glyph glyph-name="Omicron" unicode="Ο" d="M1177 839q0 264 -134 423.5t-362 159.5q-225 0 -359 -158.5t-134 -431.5v-213q0 -174 60.5 -307.5t172.5 -205.5t262 -72q228 0 361 159t133 434v212zM1231 619q0 -189 -67.5 -334.5t-192.5 -225t-288 -79.5q-246 0 -398 175t-152 472v210q0 188 67.5 334t193 225.5 t287.5 79.5q163 0 288.5 -79.5t193.5 -226t68 -333.5v-218z" horiz-adv-x="1364"/>
<glyph glyph-name="Pi" unicode="Π" d="M1238 0h-54v1402h-930v-1402h-54v1456h1038v-1456z" horiz-adv-x="1438"/>
<glyph glyph-name="Rho" unicode="Ρ" d="M254 669h401q197 0 306.5 95t109.5 265q0 176 -109.5 274.5t-306.5 98.5h-401v-733zM254 615v-615h-54v1456h455q223 0 346.5 -112.5t123.5 -312.5q0 -198 -120.5 -306t-342.5 -110h-408z" horiz-adv-x="1230"/>
<glyph glyph-name="Sigma" unicode="Σ" d="M656 768l-523 -714h916v-54h-992v44l547 743l-547 625v44h37l2 -3v3h893v-53h-849l516 -588v-47z"/>
<glyph glyph-name="Tau" unicode="Τ" d="M1169 1402h-530v-1402h-54v1402h-530v54h1114v-54z" horiz-adv-x="1224"/>
<glyph glyph-name="Upsilon" unicode="Υ" d="M609 602l510 854h66l-549 -903v-553h-54v553l-549 903h72z" horiz-adv-x="1223"/>
<glyph glyph-name="Phi" unicode="Φ" d="M155 737q0 -136 67.5 -244.5t192 -168.5t287.5 -61v949q-161 -1 -285.5 -61.5t-193 -169.5t-68.5 -244zM1307 739q0 136 -69.5 245t-194.5 168.5t-286 59.5v-949q162 0 287 60t194 169.5t69 246.5zM757 1266q176 0 314 -68t214.5 -188.5t76.5 -270.5q0 -149 -75.5 -270.5 t-214 -190.5t-315.5 -69v-209h-55v209q-177 1 -313.5 68.5t-212.5 189t-76 270.5q0 147 75.5 269t213 190.5t313.5 69.5v190h55v-190z" horiz-adv-x="1462"/>
<glyph glyph-name="Chi" unicode="Χ" d="M611 785l470 671h68l-504 -713l523 -743h-67l-490 701l-492 -701h-65l523 743l-504 713h68z" horiz-adv-x="1223"/>
<glyph glyph-name="Psi" unicode="Ψ" d="M741 471q209 4 342.5 131.5t136.5 335.5v518h54v-517q-1 -155 -66.5 -273t-186.5 -182.5t-280 -67.5v-416h-55v416q-240 6 -384 147t-146 378v515h55v-505q0 -213 131 -343.5t344 -136.5v985h55v-985z" horiz-adv-x="1428"/>
<glyph glyph-name="uni03A9" unicode="Ω" d="M761 78q357 179 359 649v124q0 163 -59 294t-165 204t-241 73q-207 0 -335 -162t-128 -418v-110q0 -472 365 -654v-78h-435v54h366q-166 95 -256 264t-94 389v142q0 186 65 329t183 220.5t269 77.5t269.5 -78t184 -221t65.5 -327v-118q0 -228 -87.5 -402t-259.5 -276h368 v-54h-434v78z" horiz-adv-x="1321"/>
<glyph glyph-name="uni03A9" unicode="Ω" d="M761 78q357 179 359 649v124q0 163 -59 294t-165 204t-241 73q-207 0 -335 -162t-128 -418v-110q0 -472 365 -654v-78h-435v54h366q-166 95 -256 264t-94 389v142q0 186 65 329t183 220.5t269 77.5t269.5 -78t184 -221t65.5 -327v-118q0 -228 -87.5 -402t-259.5 -276h368 v-54h-434v78z" horiz-adv-x="1321"/>
<glyph glyph-name="Iotadieresis" unicode="Ϊ" d="M294 0h-54v1456h54v-1456zM448 1740q0 23 16 39.5t39 16.5t39.5 -16.5t16.5 -39.5t-16.5 -39t-39.5 -16t-39 16t-16 39zM3 1740q0 23 16 39.5t39 16.5t39.5 -16.5t16.5 -39.5t-16.5 -39t-39.5 -16t-39 16t-16 39z" horiz-adv-x="534"/>
<glyph glyph-name="Upsilondieresis" unicode="Ϋ" d="M609 602l510 854h66l-549 -903v-553h-54v553l-549 903h72zM787 1729q0 23 16 39.5t39 16.5t39.5 -16.5t16.5 -39.5t-16.5 -39t-39.5 -16t-39 16t-16 39zM342 1729q0 23 16 39.5t39 16.5t39.5 -16.5t16.5 -39.5t-16.5 -39t-39.5 -16t-39 16t-16 39z" horiz-adv-x="1223"/>
<glyph glyph-name="alphatonos" unicode="ά" d="M178 521q0 -229 90.5 -358.5t258.5 -129.5q141 0 235.5 81t133.5 229v351q-44 169 -140 261.5t-227 92.5q-165 0 -258 -135t-93 -392zM950 1082v-846q4 -204 123 -204q22 0 65 10l11 -49q-28 -14 -73 -14q-86 0 -130 55t-49 183q-54 -115 -150.5 -176.5t-218.5 -61.5 q-179 0 -287 132.5t-118 365.5l-1 65q0 261 109.5 410.5t298.5 149.5q124 0 217.5 -68t148.5 -197v17l6 228h48zM679 1496h63l-103 -273h-53z" horiz-adv-x="1149"/>
<glyph glyph-name="epsilontonos" unicode="έ" d="M116 290q0 210 249 264q-108 31 -169 97t-61 151q0 139 109 219.5t306 80.5q184 0 306.5 -86t122.5 -217h-54q0 108 -105.5 178.5t-269.5 70.5q-174 0 -266.5 -65t-92.5 -178q0 -225 367 -225h160v-55h-177q-180 -2 -275.5 -58t-95.5 -180q0 -118 100.5 -185t279.5 -67 q175 0 283.5 75.5t108.5 190.5h55q0 -145 -127.5 -233t-319.5 -88q-197 0 -315.5 85t-118.5 225zM605 1495h63l-103 -273h-53z" horiz-adv-x="1122"/>
<glyph glyph-name="etatonos" unicode="ή" d="M226 857q47 113 139 179t235 66q179 0 265.5 -101t88.5 -313v-1104h-54v1108q-2 178 -74 267t-225 89q-159 0 -255.5 -97t-119.5 -284v-667h-54v1082h54v-225zM632 1496h63l-103 -273h-53z"/>
<glyph glyph-name="iotatonos" unicode="ί" d="M225 1082v-819q1 -110 38.5 -163.5t124.5 -53.5q44 0 107 9l9 -51q-33 -12 -113 -12q-118 0 -169 65.5t-52 206.5v818h55zM251 1475h63l-103 -273h-53z" horiz-adv-x="565"/>
<glyph glyph-name="upsilondieresistonos" unicode="ΰ" d="M222 1082v-707q2 -167 74.5 -254t205.5 -87q173 0 273.5 132t100.5 354q0 287 -112 562h66q59 -167 79 -289t20 -270q0 -247 -113 -395t-312 -148q-165 0 -250.5 104t-85.5 303v695h54zM679 1398q0 23 16 39.5t39 16.5t39.5 -16.5t16.5 -39.5t-16.5 -39t-39.5 -16t-39 16 t-16 39zM234 1398q0 23 16 39.5t39 16.5t39.5 -16.5t16.5 -39.5t-16.5 -39t-39.5 -16t-39 16t-16 39zM506 1634h79l-43 -240h-59z" horiz-adv-x="1073"/>
<glyph glyph-name="alpha" unicode="α" d="M178 521q0 -229 90.5 -358.5t258.5 -129.5q141 0 235.5 81t133.5 229v351q-44 169 -140 261.5t-227 92.5q-165 0 -258 -135t-93 -392zM950 1082v-846q4 -204 123 -204q22 0 65 10l11 -49q-28 -14 -73 -14q-86 0 -130 55t-49 183q-54 -115 -150.5 -176.5t-218.5 -61.5 q-179 0 -287 132.5t-118 365.5l-1 65q0 261 109.5 410.5t298.5 149.5q124 0 217.5 -68t148.5 -197v17l6 228h48z" horiz-adv-x="1149"/>
<glyph glyph-name="beta" unicode="β" d="M920 1107q0 139 -92 227t-245 88q-142 0 -238 -105.5t-96 -267.5v-805q40 -94 146.5 -152.5t238.5 -58.5q187 0 288.5 91t101.5 257q0 167 -105 260t-297 94h-146v56h100q344 0 344 316zM583 1476q174 0 282.5 -103.5t108.5 -270.5q0 -111 -54.5 -199.5t-159.5 -132.5 q149 -31 234 -132.5t85 -252.5q0 -186 -119.5 -296t-325.5 -110q-116 0 -221.5 45.5t-163.5 123.5v-561h-54v697l-2 34l2 1v735q0 118 52.5 216t141.5 152t194 54z" horiz-adv-x="1213"/>
<glyph glyph-name="gamma" unicode="γ" d="M877 1082h58l-419 -1077v-420h-54v417l-419 1080h58l334 -853l54 -155l55 155z" horiz-adv-x="978"/>
<glyph glyph-name="delta" unicode="δ" d="M141 500q0 -129 53 -237t149 -168.5t219 -60.5q185 0 301.5 133t116.5 344v31q0 113 -52 209t-146 162.5t-199 83.5q-191 0 -316.5 -130.5t-125.5 -336.5v-30zM215 1309q0 107 100.5 180.5t252.5 73.5q181 0 307 -77l-18 -49l-72 33q-92 39 -216 39q-134 0 -217 -55 t-83 -145q0 -99 79 -156.5t239 -91.5q200 -42 323.5 -186.5t123.5 -342.5v-32q0 -150 -59 -268.5t-167.5 -185t-245.5 -66.5q-210 0 -342.5 145t-132.5 383v34q0 124 47.5 229.5t136 174.5t187.5 83v11q-243 94 -243 269z"/>
<glyph glyph-name="epsilon" unicode="ε" d="M116 290q0 210 249 264q-108 31 -169 97t-61 151q0 139 109 219.5t306 80.5q184 0 306.5 -86t122.5 -217h-54q0 108 -105.5 178.5t-269.5 70.5q-174 0 -266.5 -65t-92.5 -178q0 -225 367 -225h160v-55h-177q-180 -2 -275.5 -58t-95.5 -180q0 -118 100.5 -185t279.5 -67 q175 0 283.5 75.5t108.5 190.5h55q0 -145 -127.5 -233t-319.5 -88q-197 0 -315.5 85t-118.5 225z" horiz-adv-x="1122"/>
<glyph glyph-name="zeta" unicode="ζ" d="M887 1456v-37l-471 -617q-97 -131 -143.5 -242.5t-46.5 -218.5q0 -100 78.5 -161.5t267.5 -108.5l108 -29q109 -30 150 -71.5t41 -106.5q0 -80 -47.5 -155t-107.5 -101l-37 31q51 23 95 91t44 135q0 46 -30.5 73.5t-110.5 49.5l-162 43q-188 53 -265 125.5t-77 184.5 q0 216 184 471l449 591h-768v53h849z" horiz-adv-x="954"/>
<glyph glyph-name="eta" unicode="η" d="M226 857q47 113 139 179t235 66q179 0 265.5 -101t88.5 -313v-1104h-54v1108q-2 178 -74 267t-225 89q-159 0 -255.5 -97t-119.5 -284v-667h-54v1082h54v-225z"/>
<glyph glyph-name="theta" unicode="θ" d="M972 695h-763v-99q0 -264 101 -413t282 -149q182 0 281 149t99 418v94zM209 749h763v113q0 265 -99.5 413t-282.5 148q-184 0 -282.5 -148.5t-98.5 -417.5v-108zM1026 594q0 -293 -114 -453.5t-320 -160.5q-205 0 -321 162t-116 456v264q0 290 114.5 452.5t320.5 162.5 q207 0 321.5 -162.5t114.5 -456.5v-264z" horiz-adv-x="1181"/>
<glyph glyph-name="iota" unicode="ι" d="M225 1082v-819q1 -110 38.5 -163.5t124.5 -53.5q44 0 107 9l9 -51q-33 -12 -113 -12q-118 0 -169 65.5t-52 206.5v818h55z" horiz-adv-x="565"/>
<glyph glyph-name="kappa" unicode="κ" d="M394 529h-168v-529h-55v1082h55v-500h178l489 500h69l-508 -529l571 -553h-71z" horiz-adv-x="1084"/>
<glyph glyph-name="lambda" unicode="λ" d="M244 1518q154 0 223 -188l413 -1128q34 -87 68.5 -120.5t81.5 -33.5q29 0 48 7l9 -51q-18 -10 -57 -10q-129 0 -187 146l-23 60l-281 778l-9 23l-409 -1001h-59l441 1075l-97 259q-53 130 -161 130l-48 -6l-9 50q18 10 56 10z"/>
<glyph glyph-name="uni03BC" unicode="μ" d="M223 1082v-661q3 -189 79.5 -288t226.5 -99q176 0 265.5 90.5t104.5 289.5v668h54v-1082h-51l-3 203q-96 -223 -361 -223q-114 0 -193.5 50t-121.5 141v-587h-52v1498h52z"/>
<glyph glyph-name="nu" unicode="ν" d="M490 86l389 996h58l-421 -1082h-53l-420 1082h58z" horiz-adv-x="978"/>
<glyph glyph-name="xi" unicode="ξ" d="M923 1377q-126 46 -271 46q-178 0 -278 -71.5t-100 -203.5q0 -254 395 -257h130v-56h-114q-237 0 -365 -103.5t-128 -286.5q0 -103 40.5 -174.5t121.5 -122.5t246 -98l125 -34q105 -30 145 -67.5t40 -98.5q0 -63 -43 -124t-109 -96l-33 33q61 35 96.5 86t35.5 102 q0 41 -37 68t-172 63t-219 70q-292 117 -292 397q0 156 89 262.5t254 149.5q-124 35 -192.5 109t-68.5 174q0 158 114 245t321 87q148 0 275 -49z" horiz-adv-x="1006"/>
<glyph glyph-name="omicron" unicode="ο" d="M144 520q0 -135 53.5 -247.5t149 -175.5t218.5 -63q185 0 301.5 139t116.5 358v31q0 133 -54 246t-149.5 176.5t-216.5 63.5q-185 0 -302 -141t-117 -355v-32zM90 562q0 155 59.5 278.5t168 192.5t245.5 69q136 0 244 -67t168.5 -190t61.5 -277v-48q0 -156 -59 -279 t-167.5 -192t-245.5 -69t-245.5 68t-168.5 190.5t-61 275.5v48z" horiz-adv-x="1127"/>
<glyph glyph-name="pi" unicode="π" d="M1130 1027h-215v-756q0 -115 37.5 -170t125.5 -55q44 0 107 9l9 -51q-33 -12 -113 -12q-118 0 -169 65.5t-52 206.5v763h-549v-1027h-54v1027h-195v55h1068v-55z" horiz-adv-x="1219"/>
<glyph glyph-name="rho" unicode="ρ" d="M227 261q44 -108 138.5 -167.5t228.5 -59.5q167 0 258.5 128.5t91.5 363.5v16q0 235 -93 370.5t-259 135.5q-168 0 -265.5 -116t-98.5 -324zM592 1102q188 0 297.5 -149.5t109.5 -416.5v-15q0 -251 -108.5 -396t-297.5 -145q-258 0 -366 183l-1 -579h-54v1058 q2 212 116.5 336t303.5 124z"/>
<glyph glyph-name="sigma1" unicode="ς" d="M573 1102q174 0 283.5 -103t109.5 -279h-54q0 151 -93.5 239.5t-245.5 88.5q-182 0 -288.5 -132t-106.5 -362v-34q0 -192 113.5 -315t328.5 -170q117 -26 165 -67.5t48 -130.5q0 -58 -46 -127t-93 -89l-35 32q47 22 83.5 76.5t36.5 107.5q0 65 -34 94t-142 53 q-240 53 -359 186.5t-122 338.5v53q0 158 55.5 281t158.5 191t237 68z" horiz-adv-x="1089"/>
<glyph glyph-name="sigma" unicode="σ" d="M141 520q0 -135 53.5 -247.5t149 -175.5t218.5 -63q185 0 301.5 139t116.5 358v31q0 126 -53 234t-149 169.5t-218 61.5q-185 0 -302 -134t-117 -342v-31zM1117 1027h-345q124 -63 193 -184t69 -281v-41q0 -157 -59 -280t-167.5 -192t-245.5 -69t-245.5 68t-168.5 190.5 t-61 275.5v48q0 148 59.5 267t166.5 185.5t241 67.5h563v-55z" horiz-adv-x="1117"/>
<glyph glyph-name="tau" unicode="τ" d="M954 1027h-436v-748q0 -124 44 -185t141 -61q42 0 107 9l9 -50q-42 -13 -113 -13q-127 0 -184 70t-59 219v759h-390v55h881v-55z" horiz-adv-x="1027"/>
<glyph glyph-name="upsilon" unicode="υ" d="M222 1082v-707q2 -167 74.5 -254t205.5 -87q173 0 273.5 132t100.5 354q0 287 -112 562h66q59 -167 79 -289t20 -270q0 -247 -113 -395t-312 -148q-165 0 -250.5 104t-85.5 303v695h54z" horiz-adv-x="1073"/>
<glyph glyph-name="phi" unicode="φ" d="M707 33q142 4 248.5 70t165.5 182.5t59 258.5q0 129 -46.5 242t-127.5 177.5t-179 64.5q-50 0 -85 -37.5t-35 -98.5v-859zM653 -20q-249 9 -381 154t-132 412q0 170 70 314t193 223l25 -44q-107 -65 -171 -203t-64 -292q0 -243 118 -371.5t342 -138.5v860 q0 83 50.5 135.5t123.5 52.5q115 0 208 -68t145.5 -191.5t52.5 -276.5q0 -157 -65 -286t-183.5 -202t-277.5 -78v-459h-54v459z" horiz-adv-x="1365"/>
<glyph glyph-name="chi" unicode="χ" d="M489 602l345 480h68l-380 -527l400 -555h-67l-367 508l-366 -508h-67l400 555l-380 527h68z" horiz-adv-x="978"/>
<glyph glyph-name="psi" unicode="ψ" d="M707 1082v-1048q233 5 353 147t120 407q0 252 -152 494h67l49 -94q90 -176 90 -398q0 -290 -135.5 -447t-391.5 -162v-396h-54v396q-243 9 -373 162t-132 437v502h54v-508q3 -254 119 -392t332 -147v1047h54z" horiz-adv-x="1366"/>
<glyph glyph-name="omega" unicode="ω" d="M357 1082q-152 -290 -152 -582q0 -209 84.5 -337.5t229.5 -128.5q142 0 220 112.5t80 326.5v297h55v-302q3 -209 79.5 -321.5t220.5 -112.5t229 128t85 338q0 139 -35 280t-117 302h66l48 -108q91 -209 91 -471q0 -238 -98.5 -380.5t-267.5 -142.5q-128 0 -211 70 t-118 201q-35 -131 -118 -201t-211 -70q-171 0 -268 144t-97 379q0 259 90 470l49 109h66z" horiz-adv-x="1690"/>
<glyph glyph-name="iotadieresis" unicode="ϊ" d="M225 1082v-819q1 -110 38.5 -163.5t124.5 -53.5q44 0 107 9l9 -51q-33 -12 -113 -12q-118 0 -169 65.5t-52 206.5v818h55zM376 1398q0 23 16 39.5t39 16.5t39.5 -16.5t16.5 -39.5t-16.5 -39t-39.5 -16t-39 16t-16 39zM-69 1398q0 23 16 39.5t39 16.5t39.5 -16.5 t16.5 -39.5t-16.5 -39t-39.5 -16t-39 16t-16 39z" horiz-adv-x="565"/>
<glyph glyph-name="upsilondieresis" unicode="ϋ" d="M222 1082v-707q2 -167 74.5 -254t205.5 -87q173 0 273.5 132t100.5 354q0 287 -112 562h66q59 -167 79 -289t20 -270q0 -247 -113 -395t-312 -148q-165 0 -250.5 104t-85.5 303v695h54zM695 1398q0 23 16 39.5t39 16.5t39.5 -16.5t16.5 -39.5t-16.5 -39t-39.5 -16t-39 16 t-16 39zM250 1398q0 23 16 39.5t39 16.5t39.5 -16.5t16.5 -39.5t-16.5 -39t-39.5 -16t-39 16t-16 39z" horiz-adv-x="1073"/>
<glyph glyph-name="omicrontonos" unicode="ό" d="M144 520q0 -135 53.5 -247.5t149 -175.5t218.5 -63q185 0 301.5 139t116.5 358v31q0 133 -54 246t-149.5 176.5t-216.5 63.5q-185 0 -302 -141t-117 -355v-32zM90 562q0 155 59.5 278.5t168 192.5t245.5 69q136 0 244 -67t168.5 -190t61.5 -277v-48q0 -156 -59 -279 t-167.5 -192t-245.5 -69t-245.5 68t-168.5 190.5t-61 275.5v48zM621 1496h63l-103 -273h-53z" horiz-adv-x="1127"/>
<glyph glyph-name="upsilontonos" unicode="ύ" d="M222 1082v-707q2 -167 74.5 -254t205.5 -87q173 0 273.5 132t100.5 354q0 287 -112 562h66q59 -167 79 -289t20 -270q0 -247 -113 -395t-312 -148q-165 0 -250.5 104t-85.5 303v695h54zM570 1475h63l-103 -273h-53z" horiz-adv-x="1073"/>
<glyph glyph-name="omegatonos" unicode="ώ" d="M357 1082q-152 -290 -152 -582q0 -209 84.5 -337.5t229.5 -128.5q142 0 220 112.5t80 326.5v297h55v-302q3 -209 79.5 -321.5t220.5 -112.5t229 128t85 338q0 139 -35 280t-117 302h66l48 -108q91 -209 91 -471q0 -238 -98.5 -380.5t-267.5 -142.5q-128 0 -211 70 t-118 201q-35 -131 -118 -201t-211 -70q-171 0 -268 144t-97 379q0 259 90 470l49 109h66zM924 1475h63l-103 -273h-53z" horiz-adv-x="1690"/>
<glyph glyph-name="theta1" unicode="ϑ" d="M428 1154q0 -194 120.5 -299.5t347.5 -114.5v344q-1 177 -63 268t-192 91q-92 0 -151.5 -69.5t-61.5 -186.5v-33zM1137 720q-27 -11 -83 -22t-104 -13v-278q-3 -213 -102.5 -320t-300.5 -107q-184 0 -291 111.5t-110 318.5v336l54 2v-335q2 -186 92.5 -282.5t254.5 -96.5 q181 0 263 89.5t86 277.5v285q-248 9 -385 133.5t-137 341.5v17q0 139 75.5 229t191.5 90q147 0 228 -109.5t81 -313.5v-335q99 4 176 33z" horiz-adv-x="1165"/>
<glyph glyph-name="Upsilon1" unicode="ϒ" d="M1075 1467q57 0 102 -28l-23 -41q-37 22 -83 22q-69 0 -114.5 -44t-91.5 -141l-275 -618v-617h-55v623l-271 592q-51 110 -98 157.5t-116 47.5q-47 0 -84 -22l-23 41q48 28 103 28q88 0 146.5 -51t115.5 -177l199 -443l53 -127l54 127l198 443q59 129 117 178.5t146 49.5 z" horiz-adv-x="1106"/>
<glyph glyph-name="omega1" unicode="ϖ" d="M1447 500q0 264 -125 528h-1032q-125 -264 -125 -528q0 -209 84.5 -337.5t229.5 -128.5q144 0 220 112.5t79 321.5v304h56l-1 -319q5 -202 82 -310.5t218 -108.5q144 0 229 128t85 338zM1584 1028h-198l39 -92q75 -193 75 -433t-98 -381.5t-267 -141.5q-118 0 -204 64 t-125 205q-39 -141 -125 -205t-204 -64q-171 0 -268 144t-97 379q0 237 76 433l38 92h-187v55h1545v-55z" horiz-adv-x="1612"/>
<glyph glyph-name="uni0400" unicode="Ѐ" d="M984 722h-730v-668h832v-54h-886v1456h886v-54h-832v-626h730v-54zM662 1569h-59l-195 266h66z" horiz-adv-x="1166"/>
<glyph glyph-name="uni0401" unicode="Ё" d="M984 722h-730v-668h832v-54h-886v1456h886v-54h-832v-626h730v-54zM798 1740q0 23 16 39.5t39 16.5t39.5 -16.5t16.5 -39.5t-16.5 -39t-39.5 -16t-39 16t-16 39zM353 1740q0 23 16 39.5t39 16.5t39.5 -16.5t16.5 -39.5t-16.5 -39t-39.5 -16t-39 16t-16 39z" horiz-adv-x="1166"/>
<glyph glyph-name="uni0402" unicode="Ђ" d="M1180 1402h-610v-613q82 40 186 65.5t185 25.5q236 0 358 -119t122 -346q0 -117 -63.5 -220t-165.5 -154.5t-231 -51.5v51q121 0 212 49t142.5 136.5t51.5 189.5q0 198 -110.5 305t-315.5 107q-172 0 -371 -92v-735h-54v1402h-450v54h1114v-54z" horiz-adv-x="1513"/>
<glyph glyph-name="uni0403" unicode="Ѓ" d="M1055 1402h-808v-1402h-54v1456h862v-54zM759 1835h66l-195 -266h-60z" horiz-adv-x="1122"/>
<glyph glyph-name="uni0404" unicode="Є" d="M1190 446q-21 -225 -155 -345.5t-364 -120.5q-155 0 -274.5 78.5t-185.5 223t-67 330.5v225q0 186 65 332.5t185.5 226.5t276.5 80q228 0 363 -120t156 -344h-54q-23 201 -140 305.5t-325 104.5q-212 0 -342.5 -160t-130.5 -429v-67h644v-54h-644v-93q0 -172 58 -304.5 t166.5 -206.5t248.5 -74q209 0 326.5 103t138.5 309h54z" horiz-adv-x="1325"/>
<glyph glyph-name="uni0405" unicode="Ѕ" d="M1072 349q0 93 -43.5 157.5t-137 114t-282.5 101.5t-283.5 105t-138.5 123t-44 170q0 159 134 257.5t349 98.5q140 0 251.5 -54.5t172.5 -153t61 -222.5h-54q0 163 -120 269.5t-311 106.5q-192 0 -310.5 -85.5t-118.5 -214.5q0 -131 103 -211t340 -141.5t347 -142.5 q140 -103 140 -276q0 -110 -62 -194.5t-176 -130.5t-256 -46q-158 0 -284 52.5t-189.5 149.5t-63.5 229h54q0 -179 134 -278t349 -99q191 0 315 87.5t124 227.5z" horiz-adv-x="1211"/>
<glyph glyph-name="uni0406" unicode="І" d="M294 0h-54v1456h54v-1456z" horiz-adv-x="534"/>
<glyph glyph-name="uni0407" unicode="Ї" d="M294 0h-54v1456h54v-1456zM448 1740q0 23 16 39.5t39 16.5t39.5 -16.5t16.5 -39.5t-16.5 -39t-39.5 -16t-39 16t-16 39zM3 1740q0 23 16 39.5t39 16.5t39.5 -16.5t16.5 -39.5t-16.5 -39t-39.5 -16t-39 16t-16 39z" horiz-adv-x="534"/>
<glyph glyph-name="uni0408" unicode="Ј" d="M876 1456h54v-1014q0 -211 -115 -336.5t-305 -125.5q-204 0 -312 109t-108 312h54q0 -178 91.5 -272.5t274.5 -94.5q160 0 261.5 107t104.5 291v1024z" horiz-adv-x="1125"/>
<glyph glyph-name="uni0409" unicode="Љ" d="M1153 754v-700h369q195 0 306.5 95t111.5 257q0 155 -110 250.5t-299 97.5h-378zM1153 808h384q212 -4 334.5 -111.5t122.5 -292.5q0 -184 -124.5 -293.5t-344.5 -110.5h-426v1402h-609l-44 -668q-24 -327 -62 -468t-104.5 -202t-181.5 -64h-44v54h48q100 3 153.5 63.5 t85.5 204t52 425.5l47 709h713v-648z" horiz-adv-x="2129"/>
<glyph glyph-name="uni040A" unicode="Њ" d="M1233 756v-703h369q193 0 305.5 95t112.5 259q0 156 -109.5 250.5t-291.5 98.5h-386zM249 748h930v708h54v-646h384q212 -4 334.5 -111.5t122.5 -293.5q0 -184 -125 -294.5t-349 -110.5h-421v694h-930v-694h-54v1456h54v-708z" horiz-adv-x="2209"/>
<glyph glyph-name="uni040B" unicode="Ћ" d="M1160 1402h-590v-647q233 63 409 63q247 0 362 -107.5t117 -330.5v-380h-54v384q-3 193 -106.5 286.5t-318.5 93.5q-193 0 -409 -63v-701h-54v1402h-470v54h1114v-54z" horiz-adv-x="1629"/>
<glyph glyph-name="uni040C" unicode="Ќ" d="M487 766l-233 -215v-551h-54v1456h54v-842l240 235l604 607h78l-649 -653l699 -803h-70zM751 1835h66l-195 -266h-60z" horiz-adv-x="1300"/>
<glyph glyph-name="uni040D" unicode="Ѝ" d="M1195 1456h54v-1456h-54v1364l-941 -1364h-54v1456h54v-1361zM779 1569h-59l-195 266h66z" horiz-adv-x="1449"/>
<glyph glyph-name="uni040E" unicode="Ў" d="M668 451l497 1005h66l-598 -1197l-36 -68q-117 -212 -318 -212q-57 0 -87 13l15 51q28 -10 77 -10q87 0 155.5 52.5t130.5 174.5l68 133l-605 1063h67zM923 1810q0 -112 -75.5 -180t-202.5 -68q-128 0 -203.5 68t-75.5 180h54q0 -91 57 -141.5t168 -50.5 q107 0 165.5 51.5t58.5 140.5h54z" horiz-adv-x="1283"/>
<glyph glyph-name="uni040F" unicode="Џ" d="M195 1456h54v-1402h930v1402h54v-1456h-488v-349h-54v349h-496v1456z" horiz-adv-x="1428"/>
<glyph glyph-name="uni0410" unicode="А" d="M274 489h673l-336 902zM967 435h-713l-162 -435h-59l545 1456h66l545 -1456h-59z" horiz-adv-x="1223"/>
<glyph glyph-name="uni0411" unicode="Б" d="M247 734v-680h369q198 0 307 91.5t109 250.5q0 152 -107.5 244t-299.5 94h-378zM1055 1402h-808v-614h381q213 -3 336 -106.5t123 -287.5q0 -182 -123.5 -287.5t-343.5 -106.5h-427v1456h862v-54z" horiz-adv-x="1280"/>
<glyph glyph-name="uni0412" unicode="В" d="M254 773h349q199 0 300 76.5t101 237.5q0 310 -409 315h-341v-629zM254 719v-665h421q185 0 290.5 91.5t105.5 253.5q0 138 -102 227.5t-273 92.5h-442zM200 0v1456h383q235 0 355.5 -95.5t120.5 -277.5q0 -132 -67 -219t-189 -111q138 -18 230 -119.5t92 -232.5 q0 -186 -120.5 -293.5t-335.5 -107.5h-469z" horiz-adv-x="1235"/>
<glyph glyph-name="uni0413" unicode="Г" d="M1055 1402h-808v-1402h-54v1456h862v-54z" horiz-adv-x="1122"/>
<glyph glyph-name="uni0414" unicode="Д" d="M237 54h941v1348h-635l-18 -410q-15 -274 -88 -525t-182 -391zM1232 54h120v-403h-55v349h-1151v-349h-54v403h76q74 69 143.5 217.5t110 340t49.5 382.5l21 462h740v-1402z" horiz-adv-x="1425"/>
<glyph glyph-name="uni0415" unicode="Е" d="M984 722h-730v-668h832v-54h-886v1456h886v-54h-832v-626h730v-54z" horiz-adv-x="1166"/>
<glyph glyph-name="uni0416" unicode="Ж" d="M1066 720h-171v-720h-54v720h-173l-577 -720h-72l592 737l-557 719h71l529 -682h187v682h54v-682h186l529 682h70l-557 -719l593 -737h-72z" horiz-adv-x="1745"/>
<glyph glyph-name="uni0417" unicode="З" d="M1042 1087q0 161 -115 248t-324 87q-183 0 -305.5 -96t-122.5 -251h-54q0 116 62.5 207t175 142.5t244.5 51.5q235 0 364 -103.5t129 -289.5q0 -121 -78.5 -211t-212.5 -127q314 -66 314 -359q0 -186 -141 -296.5t-375 -110.5q-143 0 -260 55t-180 150t-63 220h55 q0 -161 124.5 -266t323.5 -105q219 0 340.5 92t121.5 257q0 167 -110 249t-344 84h-197v56h191q215 1 326 80t111 236z" horiz-adv-x="1221"/>
<glyph glyph-name="uni0418" unicode="И" d="M1195 1456h54v-1456h-54v1364l-941 -1364h-54v1456h54v-1361z" horiz-adv-x="1449"/>
<glyph glyph-name="uni0419" unicode="Й" d="M1195 1456h54v-1456h-54v1364l-941 -1364h-54v1456h54v-1361zM1013 1810q0 -112 -75.5 -180t-202.5 -68q-128 0 -203.5 68t-75.5 180h54q0 -91 57 -141.5t168 -50.5q107 0 165.5 51.5t58.5 140.5h54z" horiz-adv-x="1449"/>
<glyph glyph-name="uni041A" unicode="К" d="M477 711h-223v-711h-54v1456h54v-692h238l618 692h71l-644 -726l690 -730h-71z" horiz-adv-x="1300"/>
<glyph glyph-name="uni041B" unicode="Л" d="M1233 1456v-1456h-54v1402h-709l-44 -668q-24 -327 -62 -468t-104.5 -202t-181.5 -64h-44v54h48q100 3 153.5 63.5t85.5 204t52 425.5l47 709h813z" horiz-adv-x="1428"/>
<glyph glyph-name="uni041C" unicode="М" d="M277 1456l599 -1377l601 1377h79v-1456h-54v1376l-604 -1376h-43l-601 1369v-1369h-54v1456h77z" horiz-adv-x="1756"/>
<glyph glyph-name="uni041D" unicode="Н" d="M1238 0h-54v722h-930v-722h-54v1456h54v-680h930v680h54v-1456z" horiz-adv-x="1438"/>
<glyph glyph-name="uni041E" unicode="О" d="M1177 839q0 264 -134 423.5t-362 159.5q-225 0 -359 -158.5t-134 -431.5v-213q0 -174 60.5 -307.5t172.5 -205.5t262 -72q228 0 361 159t133 434v212zM1231 619q0 -189 -67.5 -334.5t-192.5 -225t-288 -79.5q-246 0 -398 175t-152 472v210q0 188 67.5 334t193 225.5 t287.5 79.5q163 0 288.5 -79.5t193.5 -226t68 -333.5v-218z" horiz-adv-x="1364"/>
<glyph glyph-name="uni041F" unicode="П" d="M1238 0h-54v1402h-930v-1402h-54v1456h1038v-1456z" horiz-adv-x="1438"/>
<glyph glyph-name="uni0420" unicode="Р" d="M254 669h401q197 0 306.5 95t109.5 265q0 176 -109.5 274.5t-306.5 98.5h-401v-733zM254 615v-615h-54v1456h455q223 0 346.5 -112.5t123.5 -312.5q0 -198 -120.5 -306t-342.5 -110h-408z" horiz-adv-x="1230"/>
<glyph glyph-name="uni0421" unicode="С" d="M1190 446q-21 -225 -155 -345.5t-364 -120.5q-155 0 -274.5 78.5t-185.5 223t-67 330.5v225q0 186 65 332.5t185.5 226.5t276.5 80q228 0 363 -120t156 -344h-54q-23 201 -140 305.5t-325 104.5q-212 0 -342.5 -160t-130.5 -429v-214q0 -172 58 -304.5t166.5 -206.5 t248.5 -74q209 0 326.5 103t138.5 309h54z" horiz-adv-x="1327"/>
<glyph glyph-name="uni0422" unicode="Т" d="M1169 1402h-530v-1402h-54v1402h-530v54h1114v-54z" horiz-adv-x="1224"/>
<glyph glyph-name="uni0423" unicode="У" d="M668 451l497 1005h66l-598 -1197l-36 -68q-117 -212 -318 -212q-57 0 -87 13l15 51q28 -10 77 -10q87 0 155.5 52.5t130.5 174.5l68 133l-605 1063h67z" horiz-adv-x="1283"/>
<glyph glyph-name="uni0424" unicode="Ф" d="M677 1252q-163 0 -289 -66t-194.5 -184.5t-68.5 -264.5q0 -147 67.5 -264.5t190.5 -182.5t283 -67h36v1029h-25zM757 1252v-1029h30q161 0 286 64.5t194.5 183.5t69.5 268q0 145 -67.5 262.5t-192 183.5t-283.5 67h-37zM757 1306h35q174 -1 311 -74t213 -203.5t76 -289.5 q0 -160 -76.5 -291.5t-215 -205t-314.5 -73.5h-29v-229h-55v229h-32q-175 1 -312 74t-212.5 203t-75.5 291q0 158 73.5 287.5t209.5 204t307 77.5h42v211h55v-211z" horiz-adv-x="1462"/>
<glyph glyph-name="uni0425" unicode="Х" d="M611 785l470 671h68l-504 -713l523 -743h-67l-490 701l-492 -701h-65l523 743l-504 713h68z" horiz-adv-x="1223"/>
<glyph glyph-name="uni0426" unicode="Ц" d="M184 1456h54v-1402h930v1402h54v-1402h133v-405h-54v351h-1117v1456z" horiz-adv-x="1426"/>
<glyph glyph-name="uni0427" unicode="Ч" d="M1130 1456v-1456h-54v719q-221 -61 -402 -61q-247 0 -362.5 107.5t-116.5 334.5v356h54v-364q3 -193 106.5 -286.5t318.5 -93.5q193 0 402 60v684h54z" horiz-adv-x="1325"/>
<glyph glyph-name="uni0428" unicode="Ш" d="M243 1456v-1402h663v1402h55v-1402h663v1402h54v-1456h-1490v1456h55z" horiz-adv-x="1866"/>
<glyph glyph-name="uni0429" unicode="Щ" d="M243 1456v-1402h663v1402h55v-1402h663v1402h54v-1402h129v-405h-54v351h-1565v1456h55z" horiz-adv-x="1877"/>
<glyph glyph-name="uni042A" unicode="Ъ" d="M584 734v-680h369q198 0 307 91.5t109 250.5q0 152 -107.5 244t-299.5 94h-378zM-37 1456h621v-668h381q213 -3 336 -106.5t123 -287.5q0 -182 -123.5 -287.5t-343.5 -106.5h-427v1402h-567v54z" horiz-adv-x="1617"/>
<glyph glyph-name="uni042B" unicode="Ы" d="M1447 0h-54v1456h54v-1456zM247 734v-680h369q198 0 307 91.5t109 250.5q0 152 -107.5 244t-299.5 94h-378zM247 788h381q213 -3 336 -106.5t123 -287.5q0 -182 -123.5 -287.5t-343.5 -106.5h-427v1456h54v-668z" horiz-adv-x="1648"/>
<glyph glyph-name="uni042C" unicode="Ь" d="M247 734v-680h369q198 0 307 91.5t109 250.5q0 152 -107.5 244t-299.5 94h-378zM247 788h381q213 -3 336 -106.5t123 -287.5q0 -182 -123.5 -287.5t-343.5 -106.5h-427v1456h54v-668z" horiz-adv-x="1223"/>
<glyph glyph-name="uni042D" unicode="Э" d="M189 446q21 -206 138.5 -309t326.5 -103q210 0 341.5 159.5t131.5 433.5v83h-642v54h642v75q0 263 -130.5 423t-342.5 160q-208 0 -325 -104.5t-140 -305.5h-54q21 224 156 344t363 120q155 0 274.5 -78.5t185 -222t67.5 -327.5v-229q0 -188 -65.5 -334t-186 -225.5 t-275.5 -79.5q-231 0 -364.5 121t-154.5 345h54z" horiz-adv-x="1325"/>
<glyph glyph-name="uni042E" unicode="Ю" d="M1661 839q0 264 -134 423.5t-362 159.5q-225 0 -359 -158.5t-134 -431.5v-213q0 -174 60.5 -307.5t172.5 -205.5t262 -72q228 0 361 159t133 434v212zM1715 619q0 -189 -67.5 -334.5t-192.5 -225t-288 -79.5q-246 0 -398 175t-152 472v106h-327v-733h-54v1456h54v-669 h327v41q0 299 151 473.5t397 174.5q163 0 288.5 -79.5t193.5 -226t68 -333.5v-218z" horiz-adv-x="1896"/>
<glyph glyph-name="uni042F" unicode="Я" d="M202 1020q0 -158 98.5 -252t261.5 -94h431v728h-371q-201 0 -310.5 -98t-109.5 -284zM993 0v619h-502l-334 -619h-62l347 632l-5 5q-137 41 -213 141t-76 240q0 207 125.5 322.5t352.5 115.5h422v-1456h-55z" horiz-adv-x="1200"/>
<glyph glyph-name="uni0430" unicode="а" d="M425 33q152 0 261.5 68t164.5 191v257h-250q-232 0 -355 -92q-100 -75 -100 -187q0 -99 79 -168t200 -69zM871 0q-20 69 -20 198q-64 -104 -175 -161t-251 -57q-150 0 -241.5 81.5t-91.5 212.5q0 149 134.5 238.5t357.5 91.5h267v158q0 136 -85.5 211t-244.5 75 q-148 0 -247 -76t-99 -188l-54 2q0 132 116 224t284 92q175 0 278 -87.5t106 -246.5v-517q0 -178 28 -242v-9h-62z" horiz-adv-x="1081"/>
<glyph glyph-name="uni0431" unicode="б" d="M570 948q-185 0 -302 -122.5t-117 -312.5v-33q0 -124 53.5 -227t149 -161t218.5 -58q184 0 301 127.5t117 328.5v32q0 117 -53 215.5t-149 154.5t-218 56zM570 1002q210 0 342.5 -133.5t132.5 -355.5v-33q0 -144 -60 -259t-168.5 -178t-244.5 -63q-137 0 -246.5 64 t-169 178t-59.5 258v112q0 326 128.5 531t356.5 237q158 22 229.5 67t71.5 126h54q0 -105 -87.5 -167t-255.5 -79.5t-280 -153.5t-149 -367q60 101 164 158.5t241 57.5z" horiz-adv-x="1122"/>
<glyph glyph-name="uni0432" unicode="в" d="M235 575h338q164 0 248 58t84 172q0 116 -90 169t-262 53h-318v-452zM235 521v-467h387q155 0 243 62t88 176q0 102 -89.5 165.5t-244.5 63.5h-384zM181 0v1082h372q197 0 301.5 -71.5t104.5 -208.5q0 -90 -55.5 -157t-158.5 -90h1q110 -12 185 -86t75 -176 q0 -139 -102.5 -216t-286.5 -77h-436z"/>
<glyph glyph-name="uni0433" unicode="г" d="M822 1027h-596v-1027h-54v1082h650v-55z" horiz-adv-x="867"/>
<glyph glyph-name="uni0434" unicode="д" d="M197 54h691v974h-476l-19 -358q-28 -407 -196 -616zM131 54l38 51q147 201 171 583l21 394h581v-1028h86v-372h-54v318h-871v-318h-44v372h72z" horiz-adv-x="1112"/>
<glyph glyph-name="uni0435" unicode="е" d="M541 1048q-158 0 -268 -117.5t-129 -299.5h754v13q0 110 -46.5 204.5t-128 147t-182.5 52.5zM561 -20q-131 0 -240.5 70.5t-171.5 193.5t-62 273v45q0 150 60 275t165 195t229 70q181 0 296 -129t115 -339v-57h-811v-59q0 -132 55.5 -244.5t153 -176.5t211.5 -64 q109 0 185.5 36.5t135.5 112.5l38 -27q-121 -175 -359 -175z" horiz-adv-x="1032"/>
<glyph glyph-name="uni0436" unicode="ж" d="M961 528h-156v-528h-54v528h-155l-498 -528h-71l511 552l-448 530h67l430 -500h164v500h54v-500h167l429 500h69l-451 -530l513 -552h-71z" horiz-adv-x="1574"/>
<glyph glyph-name="uni0437" unicode="з" d="M846 805q0 115 -84.5 179t-246.5 64q-140 0 -236.5 -71t-96.5 -178h-55q0 131 113.5 217t274.5 86q184 0 285 -79.5t101 -220.5q0 -85 -55 -151t-155 -97q229 -52 229 -264q0 -142 -109.5 -225.5t-294.5 -83.5q-108 0 -203 40t-149.5 112t-54.5 168h55q0 -112 100 -188.5 t252 -76.5q172 0 260.5 67.5t88.5 183.5q0 125 -86.5 181t-259.5 57h-151v55h162q316 5 316 225z" horiz-adv-x="1035"/>
<glyph glyph-name="uni0438" unicode="и" d="M895 1082h55v-1082h-55v986l-669 -986h-54v1082h54v-986z"/>
<glyph glyph-name="uni0439" unicode="й" d="M895 1082h55v-1082h-55v986l-669 -986h-54v1082h54v-986zM832 1468q0 -112 -75.5 -180t-202.5 -68q-128 0 -203.5 68t-75.5 180h54q0 -91 57 -141.5t168 -50.5q107 0 165.5 51.5t58.5 140.5h54z"/>
<glyph glyph-name="uni043A" unicode="к" d="M424 529h-198v-529h-55v1082h55v-500h208l429 500h78l-460 -530l523 -552h-81z" horiz-adv-x="1016"/>
<glyph glyph-name="uni043B" unicode="л" d="M950 1082v-1082h-55v1027h-518l-21 -506q-16 -289 -77.5 -404t-196.5 -117h-38v53h45q102 4 149.5 107t62.5 344l24 578h625z" horiz-adv-x="1122"/>
<glyph glyph-name="uni043C" unicode="м" d="M747 82l492 1000h65v-1082h-55v978l-481 -978h-42l-491 1002v-1002h-54v1082h74z" horiz-adv-x="1476"/>
<glyph glyph-name="uni043D" unicode="н" d="M950 0h-55v529h-669v-529h-54v1082h54v-499h669v499h55v-1082z"/>
<glyph glyph-name="uni043E" unicode="о" d="M144 520q0 -135 53.5 -247.5t149 -175.5t218.5 -63q185 0 301.5 139t116.5 358v31q0 133 -54 246t-149.5 176.5t-216.5 63.5q-185 0 -302 -141t-117 -355v-32zM90 562q0 155 59.5 278.5t168 192.5t245.5 69q136 0 244 -67t168.5 -190t61.5 -277v-48q0 -156 -59 -279 t-167.5 -192t-245.5 -69t-245.5 68t-168.5 190.5t-61 275.5v48z" horiz-adv-x="1127"/>
<glyph glyph-name="uni043F" unicode="п" d="M950 0h-55v1027h-669v-1027h-54v1082h778v-1082z"/>
<glyph glyph-name="uni0440" unicode="р" d="M944 552q0 233 -92.5 364.5t-259.5 131.5q-136 0 -231 -70.5t-137 -202.5v-506q42 -112 137.5 -173.5t232.5 -61.5q166 0 258 132t92 386zM999 531q0 -253 -109 -402t-297 -149q-123 0 -219 50t-150 138v-584h-54v1498h54v-193q56 103 151 158t216 55q190 0 299 -145.5 t109 -408.5v-17z"/>
<glyph glyph-name="uni0441" unicode="с" d="M539 34q147 0 242.5 78t104.5 216h54q-8 -157 -121 -252.5t-280 -95.5q-203 0 -322.5 147t-119.5 399v36q0 246 119.5 393t320.5 147q172 0 284 -103t119 -274h-54q-7 146 -102.5 234.5t-246.5 88.5q-181 0 -283.5 -130.5t-102.5 -362.5v-35q0 -227 103.5 -356.5 t284.5 -129.5z" horiz-adv-x="1039"/>
<glyph glyph-name="uni0442" unicode="т" d="M922 1027h-425v-1027h-54v1027h-403v55h882v-55z" horiz-adv-x="962"/>
<glyph glyph-name="uni0443" unicode="у" d="M503 84l7 20l374 978h60l-484 -1270l-24 -60q-78 -189 -258 -189q-58 0 -80 11l-1 51q32 -9 73 -9q85 0 141 49.5t97 161.5l66 179l-431 1076h59z" horiz-adv-x="978"/>
<glyph glyph-name="uni0444" unicode="ф" d="M1308 542q0 233 -87.5 369.5t-245.5 136.5q-150 0 -205 -83v-864q85 -68 207 -68q159 0 245 129t86 380zM178 521q0 -233 86.5 -360.5t242.5 -127.5q110 0 188 54l21 15v861q-57 85 -207 85q-154 0 -242.5 -134t-88.5 -393zM122 542q0 257 103 408.5t285 151.5 q124 0 206 -67v501h54v-500q79 66 204 66q179 0 282 -147.5t106 -399.5v-34q0 -252 -103.5 -397t-282.5 -145q-122 0 -206 62v-457h-54v457q-86 -62 -208 -62q-170 0 -273 132.5t-112 367.5z" horiz-adv-x="1484"/>
<glyph glyph-name="uni0445" unicode="х" d="M489 602l345 480h68l-380 -527l400 -555h-67l-367 508l-366 -508h-67l400 555l-380 527h68z" horiz-adv-x="978"/>
<glyph glyph-name="uni0446" unicode="ц" d="M172 1082h54v-1028h669v1028h55v-1028h91v-375h-54v321h-815v1082z" horiz-adv-x="1120"/>
<glyph glyph-name="uni0447" unicode="ч" d="M895 0h-54v522q-72 -35 -162.5 -57.5t-152.5 -22.5q-162 0 -246 38.5t-123.5 126t-39.5 239.5v236h54v-236q0 -133 34 -208.5t107.5 -108.5t213.5 -33q80 4 171.5 26.5t143.5 50.5v509h54v-1082z" horiz-adv-x="1067"/>
<glyph glyph-name="uni0448" unicode="ш" d="M226 1082v-1028h567v1028h55v-1028h558v1028h54v-1082h-1288v1082h54z" horiz-adv-x="1594"/>
<glyph glyph-name="uni0449" unicode="щ" d="M226 1082v-1028h567v1028h55v-1028h558v1028h54v-1028h108v-375h-54v321h-1342v1082h54z" horiz-adv-x="1592"/>
<glyph glyph-name="uni044A" unicode="ъ" d="M463 616v-562h345q156 0 244.5 76.5t88.5 206.5q0 124 -86.5 200.5t-238.5 78.5h-353zM40 1082h423v-412h355q173 -3 275 -93.5t102 -241.5q0 -150 -101 -241t-276 -94h-409v1028h-369v54z" horiz-adv-x="1309"/>
<glyph glyph-name="uni044B" unicode="ы" d="M1315 0h-54v1082h54v-1082zM235 616v-562h345q156 0 244.5 76.5t88.5 206.5q0 124 -86.5 200.5t-238.5 78.5h-353zM235 670h355q173 -3 275 -93.5t102 -241.5q0 -150 -101 -241t-276 -94h-409v1082h54v-412z" horiz-adv-x="1486"/>
<glyph glyph-name="uni044C" unicode="ь" d="M235 616v-562h345q156 0 244.5 76.5t88.5 206.5q0 124 -86.5 200.5t-238.5 78.5h-353zM235 670h355q173 -3 275 -93.5t102 -241.5q0 -150 -101 -241t-276 -94h-409v1082h54v-412z" horiz-adv-x="1080"/>
<glyph glyph-name="uni044D" unicode="э" d="M514 1048q-151 0 -243.5 -81t-92.5 -218h-56q0 156 113 254.5t279 98.5q204 0 328 -147.5t124 -399.5v-35q0 -245 -124 -392.5t-326 -147.5q-177 0 -285.5 104.5t-108.5 277.5h56q0 -150 92.5 -239t245.5 -89q180 0 287 130.5t109 351.5h-572v54h572q-2 217 -108 347.5 t-290 130.5z" horiz-adv-x="1089"/>
<glyph glyph-name="uni044E" unicode="ю" d="M647 520q0 -135 53.5 -247.5t149 -175.5t218.5 -63q185 0 301.5 139t116.5 358v31q0 133 -54 246t-149.5 176.5t-216.5 63.5q-185 0 -302 -141t-117 -355v-32zM235 557h358q0 244 132.5 394.5t340.5 150.5q136 0 244 -67t168.5 -190t61.5 -277v-48q0 -156 -59 -279 t-167.5 -192t-245.5 -69q-134 0 -241.5 65.5t-168.5 185t-65 272.5h-358v-503h-54v1082h54v-525z" horiz-adv-x="1659"/>
<glyph glyph-name="uni044F" unicode="я" d="M213 764q0 -117 70.5 -187t190.5 -72h396v522h-346q-146 0 -228.5 -70t-82.5 -193zM924 1082v-1082h-54v450h-396l-271 -450h-64l273 455q-117 19 -185 102t-68 209q0 141 95.5 227t259.5 89h410z" horiz-adv-x="1101"/>
<glyph glyph-name="uni0450" unicode="ѐ" d="M541 1048q-158 0 -268 -117.5t-129 -299.5h754v13q0 110 -46.5 204.5t-128 147t-182.5 52.5zM561 -20q-131 0 -240.5 70.5t-171.5 193.5t-62 273v45q0 150 60 275t165 195t229 70q181 0 296 -129t115 -339v-57h-811v-59q0 -132 55.5 -244.5t153 -176.5t211.5 -64 q109 0 185.5 36.5t135.5 112.5l38 -27q-121 -175 -359 -175zM610 1249h-59l-195 266h66z" horiz-adv-x="1032"/>
<glyph glyph-name="uni0451" unicode="ё" d="M541 1048q-158 0 -268 -117.5t-129 -299.5h754v13q0 110 -46.5 204.5t-128 147t-182.5 52.5zM561 -20q-131 0 -240.5 70.5t-171.5 193.5t-62 273v45q0 150 60 275t165 195t229 70q181 0 296 -129t115 -339v-57h-811v-59q0 -132 55.5 -244.5t153 -176.5t211.5 -64 q109 0 185.5 36.5t135.5 112.5l38 -27q-121 -175 -359 -175zM746 1420q0 23 16 39.5t39 16.5t39.5 -16.5t16.5 -39.5t-16.5 -39t-39.5 -16t-39 16t-16 39zM301 1420q0 23 16 39.5t39 16.5t39.5 -16.5t16.5 -39.5t-16.5 -39t-39.5 -16t-39 16t-16 39z" horiz-adv-x="1032"/>
<glyph glyph-name="uni0452" unicode="ђ" d="M558 1261h-332v-431q53 126 156 199t228 73q174 0 258.5 -98.5t85.5 -297.5v-795q0 -170 -75.5 -259t-210.5 -89q-64 0 -132 20l13 52q54 -18 119 -18q112 0 172 76t60 218v789q0 179 -69.5 264t-223.5 85q-140 0 -242.5 -99.5t-138.5 -256.5v-693h-54v1261h-201v54h201 v221h54v-221h332v-54z"/>
<glyph glyph-name="uni0453" unicode="ѓ" d="M822 1027h-596v-1027h-54v1082h650v-55zM571 1493h66l-195 -266h-60z" horiz-adv-x="867"/>
<glyph glyph-name="uni0454" unicode="є" d="M554 34q147 0 242.5 78t104.5 216h54q-8 -157 -121 -252.5t-280 -95.5q-203 0 -322.5 147t-119.5 399v36q0 246 119.5 393t320.5 147q172 0 284 -103t119 -274h-54q-7 146 -102.5 234.5t-246.5 88.5q-179 0 -281.5 -128t-104.5 -350h581v-54h-581q0 -222 102.5 -352 t285.5 -130z" horiz-adv-x="1089"/>
<glyph glyph-name="uni0455" unicode="ѕ" d="M839 265q0 197 -336 268q-202 43 -281 110.5t-79 185.5q0 119 100.5 196t261.5 77q175 0 281 -83.5t106 -225.5h-55q0 109 -92 182t-240 73q-142 0 -225 -62t-83 -155q0 -73 31 -114.5t101 -75t204 -64.5t212 -73t113 -99.5t35 -140.5q0 -128 -105 -206t-275 -78 q-182 0 -293.5 82.5t-111.5 212.5h54q8 -114 100.5 -177.5t250.5 -63.5q145 0 235.5 67.5t90.5 163.5z" horiz-adv-x="1019"/>
<glyph glyph-name="uni0456" unicode="і" d="M157 1420q0 23 16 39.5t39 16.5t39.5 -16.5t16.5 -39.5t-16.5 -39t-39.5 -16t-39 16t-16 39zM239 0h-54v1082h54v-1082z" horiz-adv-x="422"/>
<glyph glyph-name="uni0457" unicode="ї" d="M235 0h-54v1082h54v-1082zM389 1398q0 23 16 39.5t39 16.5t39.5 -16.5t16.5 -39.5t-16.5 -39t-39.5 -16t-39 16t-16 39zM-56 1398q0 23 16 39.5t39 16.5t39.5 -16.5t16.5 -39.5t-16.5 -39t-39.5 -16t-39 16t-16 39z" horiz-adv-x="406"/>
<glyph glyph-name="uni0458" unicode="ј" d="M163 1420q0 23 16 39.5t39 16.5t39.5 -16.5t16.5 -39.5t-16.5 -39t-39.5 -16t-39 16t-16 39zM240 1082v-1211q0 -150 -75 -229t-210 -79q-49 0 -98 20l3 52q48 -18 95 -18q112 0 171.5 66.5t59.5 187.5v1211h54z" horiz-adv-x="445"/>
<glyph glyph-name="uni0459" unicode="љ" d="M950 576v-522h345q158 0 245.5 71.5t87.5 191.5q0 115 -86 185.5t-235 73.5h-357zM950 630h356q172 -3 274 -88.5t102 -226.5q0 -140 -100.5 -226t-274.5 -89h-412v1027h-528l-21 -506q-16 -289 -77.5 -404t-196.5 -117h-38v53h45q102 4 149.5 107t62.5 344l24 578h635 v-452z" horiz-adv-x="1764"/>
<glyph glyph-name="uni045A" unicode="њ" d="M950 576v-522h345q158 0 245.5 71.5t87.5 191.5q0 115 -86 185.5t-235 73.5h-357zM226 632h669v450h55v-452h356q172 -3 274 -88.5t102 -226.5q0 -140 -100.5 -226t-274.5 -89h-412v578h-669v-578h-54v1082h54v-450z" horiz-adv-x="1764"/>
<glyph glyph-name="uni045B" unicode="ћ" d="M558 1280h-332v-450q53 126 156 199t228 73q174 0 258.5 -98.5t85.5 -297.5v-706h-54v708q-1 174 -71 257.5t-222 83.5q-140 0 -242.5 -99.5t-138.5 -256.5v-693h-54v1280h-201v54h201v202h54v-202h332v-54z"/>
<glyph glyph-name="uni045C" unicode="ќ" d="M424 529h-198v-529h-55v1082h55v-500h208l429 500h78l-460 -530l523 -552h-81zM688 1492h66l-195 -266h-60z" horiz-adv-x="1016"/>
<glyph glyph-name="uni045D" unicode="ѝ" d="M895 1082h55v-1082h-55v986l-669 -986h-54v1082h54v-986zM598 1227h-59l-195 266h66z"/>
<glyph glyph-name="uni045E" unicode="ў" d="M503 84l7 20l374 978h60l-484 -1270l-24 -60q-78 -189 -258 -189q-58 0 -80 11l-1 51q32 -9 73 -9q85 0 141 49.5t97 161.5l66 179l-431 1076h59zM796 1491q0 -112 -75.5 -180t-202.5 -68q-128 0 -203.5 68t-75.5 180h54q0 -91 57 -141.5t168 -50.5q107 0 165.5 51.5 t58.5 140.5h54z" horiz-adv-x="978"/>
<glyph glyph-name="uni045F" unicode="џ" d="M226 1082v-1028h669v1028h55v-1082h-358v-350h-54v350h-366v1082h54z"/>
<glyph glyph-name="uni0460" unicode="Ѡ" d="M1641 1456v-1035q-2 -205 -102 -323t-275 -118q-131 0 -222.5 68t-128.5 189q-37 -121 -129 -189t-221 -68q-173 0 -274.5 117t-103.5 324v1035h54v-1034q2 -179 90.5 -283.5t233.5 -104.5q146 0 234 106t89 286v1030h54v-1034q2 -178 89.5 -283t234.5 -105 q146 0 234 106t89 286v1030h54z" horiz-adv-x="1836"/>
<glyph glyph-name="uni0461" unicode="ѡ" d="M1561 1082v-678q-1 -196 -95.5 -310.5t-261.5 -114.5q-121 0 -207.5 62.5t-123.5 178.5q-40 -121 -127.5 -181t-202.5 -60q-165 0 -260.5 112.5t-97.5 309.5v681h54v-680q2 -168 84 -268.5t220 -100.5t220.5 101t82.5 277v671h54v-680q2 -168 84 -268.5t220 -100.5 t220.5 101t82.5 277v671h54z" horiz-adv-x="1794"/>
<glyph glyph-name="uni0462" unicode="Ѣ" d="M247 734v-680h369q198 0 307 91.5t109 250.5q0 152 -107.5 244t-299.5 94h-378zM625 1151h-378v-363h381q213 -3 336 -106.5t123 -287.5q0 -182 -123.5 -287.5t-343.5 -106.5h-427v1151h-155v54h155v251h54v-251h378v-54z" horiz-adv-x="1223"/>
<glyph glyph-name="uni0463" unicode="ѣ" d="M235 616v-562h345q156 0 244.5 76.5t88.5 206.5q0 124 -86.5 200.5t-238.5 78.5h-353zM564 1082h-329v-412h355q173 -3 275 -93.5t102 -241.5q0 -150 -101 -241t-276 -94h-409v1082h-204v54h204v402h54v-402h329v-54z" horiz-adv-x="1080"/>
<glyph glyph-name="uni0464" unicode="Ѥ" d="M291 794h320v50q1 185 66.5 330t185.5 224t275 79q228 0 363 -120t156 -344h-54q-23 201 -140 305.5t-325 104.5q-212 0 -342.5 -160t-130.5 -429v-40h520v-54h-520v-120q0 -172 58 -304.5t166.5 -206.5t248.5 -74q209 0 326.5 103t138.5 309h54q-21 -225 -155 -345.5 t-364 -120.5q-155 0 -274.5 78.5t-185.5 223t-67 330.5v127h-320v-740h-54v1456h54v-662z" horiz-adv-x="1825"/>
<glyph glyph-name="uni0465" unicode="ѥ" d="M233 588h306q6 235 124.5 374.5t315.5 139.5q172 0 284 -103t119 -274h-54q-7 146 -102.5 234.5t-246.5 88.5q-177 0 -278 -123t-108 -337h507v-54h-507v-14q0 -227 103.5 -356.5t284.5 -129.5q147 0 242.5 78t104.5 216h54q-8 -157 -121 -252.5t-280 -95.5 q-203 0 -322.5 147t-119.5 407h-306v-534h-54v1082h54v-494z" horiz-adv-x="1518"/>
<glyph glyph-name="uni0466" unicode="Ѧ" d="M303 562h616l-277 742l-31 94l-30 -94zM939 508h-307v-508h-54v508h-295l-190 -508h-59l544 1456h66l545 -1456h-59z" horiz-adv-x="1224"/>
<glyph glyph-name="uni0467" unicode="ѧ" d="M291 449h463l-177 404l-54 155l-55 -155zM778 395h-224v-395h-54v395h-233l-172 -395h-59l461 1080v2h52l461 -1082h-58z" horiz-adv-x="1067"/>
<glyph glyph-name="uni0468" unicode="Ѩ" d="M832 562h616l-277 742l-31 94l-30 -94zM309 562h464l334 894h66l545 -1456h-59l-191 508h-307v-508h-54v508h-295l-190 -508h-59l190 508h-444v-508h-54v1456h54v-894z" horiz-adv-x="1793"/>
<glyph glyph-name="uni0469" unicode="ѩ" d="M738 449h463l-177 404l-54 155l-55 -155zM268 449h406l270 631v2h52l461 -1082h-58l-174 395h-224v-395h-54v395h-233l-172 -395h-59l168 395h-383v-395h-54v1082h54v-633z" horiz-adv-x="1537"/>
<glyph glyph-name="uni046A" unicode="Ѫ" d="M1226 1402h-864l406 -619l21 -34h11l21 34zM167 0v400q3 173 102 261t305 88h161l-473 707h1066l-474 -707h166q204 0 303 -87t102 -262v-400h-54v395q-1 159 -81.5 229t-263.5 71h-204v-695h-54v695h-194q-189 0 -270.5 -71t-81.5 -233v-391h-55z" horiz-adv-x="1593"/>
<glyph glyph-name="uni046B" unicode="ѫ" d="M1035 1027h-677l322 -431l5 -11h22l6 12zM771 585h45q205 0 304 -87t102 -261v-237h-54v238q-3 151 -82 220.5t-258 71.5h-98l-7 -10v-520h-54v521l-6 9h-88q-187 0 -268.5 -69.5t-84.5 -222.5v-238h-55v237q3 173 101.5 260t301.5 88h52l-370 497h889z" horiz-adv-x="1389"/>
<glyph glyph-name="uni046C" unicode="Ѭ" d="M1751 1402h-864l406 -619l21 -34h11l21 34zM290 749h970l-473 707h1066l-474 -707h166q204 0 303 -87t102 -262v-400h-54v395q-1 159 -81.5 229t-263.5 71h-204v-695h-54v695h-194q-189 0 -270.5 -71t-81.5 -233v-391h-55v400q3 212 151 295h-553v-695h-54v1456h54v-707z " horiz-adv-x="2119"/>
<glyph glyph-name="uni046D" unicode="ѭ" d="M1441 1027h-677l322 -431l5 -11h22l6 12zM235 585h793l-370 497h889l-370 -497h45q205 0 304 -87t102 -261v-237h-54v238q-3 151 -82 220.5t-258 71.5h-98l-7 -10v-520h-54v521l-6 9h-106q-177 -4 -255 -73t-80 -222v-235h-55v242q5 205 148 288h-486v-530h-54v1082h54 v-497z" horiz-adv-x="1796"/>
<glyph glyph-name="uni046E" unicode="Ѯ" d="M595 1680l194 217h53v-13l-218 -250h-59l-220 252v11h57zM932 1087q0 148 -106 230.5t-302 84.5h-346v54h332q228 0 352.5 -98.5t124.5 -274.5q0 -120 -77 -210t-212 -128q312 -67 312 -359q0 -171 -147 -278t-392 -107h-72q-98 0 -145.5 -33.5t-47.5 -108.5 q0 -56 57 -111.5t123 -73.5l-15 -52q-84 24 -151 93t-67 143q0 93 62 144.5t184 51.5h78q220 0 349 88.5t129 239.5q0 167 -110 249t-343 84h-135v56h140q210 3 317.5 82t107.5 234z" horiz-adv-x="1049"/>
<glyph glyph-name="uni046F" unicode="ѯ" d="M434 1363l194 217h53v-13l-218 -250h-59l-220 252v11h57zM788 817q0 98 -91.5 153.5t-258.5 56.5h-289v55h290q193 -2 299 -72t106 -197q0 -84 -58 -151.5t-170 -102.5q250 -55 250 -255q0 -135 -130 -219t-344 -84h-34q-98 0 -145.5 -33.5t-47.5 -108.5q0 -56 57.5 -112 t123.5 -73l-16 -52q-83 24 -150.5 93.5t-67.5 142.5q0 196 260.5 196t369.5 97q69 61 69 149q0 123 -103.5 176t-300.5 53h-122v56h141q362 6 362 232z" horiz-adv-x="996"/>
<glyph glyph-name="uni0470" unicode="Ѱ" d="M741 471q209 4 342.5 131.5t136.5 335.5v518h54v-517q-1 -155 -66.5 -273t-186.5 -182.5t-280 -67.5v-416h-55v416q-240 6 -384 147t-146 378v515h55v-505q0 -213 131 -343.5t344 -136.5v985h55v-985z" horiz-adv-x="1428"/>
<glyph glyph-name="uni0471" unicode="ѱ" d="M707 1082v-1048q233 5 353 147t120 407q0 252 -152 494h67l49 -94q90 -176 90 -398q0 -290 -135.5 -447t-391.5 -162v-396h-54v396q-243 9 -373 162t-132 437v502h54v-508q3 -254 119 -392t332 -147v1047h54z" horiz-adv-x="1366"/>
<glyph glyph-name="uni0472" unicode="Ѳ" d="M1177 701h-989v-82q0 -174 60.5 -307.5t172.5 -205.5t262 -72q228 0 361 159t133 434v74zM188 755h989v84q0 264 -134 423.5t-362 159.5q-225 0 -359 -158.5t-134 -431.5v-77zM1231 619q0 -189 -67.5 -334.5t-192.5 -225t-288 -79.5q-246 0 -398 175t-152 472v210 q0 188 67.5 334t193 225.5t287.5 79.5q163 0 288.5 -79.5t193.5 -226t68 -333.5v-218z" horiz-adv-x="1364"/>
<glyph glyph-name="uni0473" unicode="ѳ" d="M562 34q120 0 215 62t148.5 173t54.5 244h-839q1 -132 54.5 -243t149 -173.5t217.5 -62.5zM141 567h839q-1 132 -54.5 243t-149 174.5t-216.5 63.5t-216 -63t-148.5 -174.5t-54.5 -243.5zM87 562q0 155 59.5 278.5t168 192.5t245.5 69q136 0 244 -67t168.5 -190 t61.5 -277v-48q0 -156 -59 -279t-167.5 -192t-245.5 -69t-245.5 68t-168.5 190.5t-61 275.5v48z" horiz-adv-x="1153"/>
<glyph glyph-name="uni0474" unicode="Ѵ" d="M539 56l30 89l351 1083q39 129 107.5 188.5t192.5 59.5l-1 -47l-59 -3q-127 -16 -189 -200l-399 -1226h-65l-472 1456h59z" horiz-adv-x="1233"/>
<glyph glyph-name="uni0475" unicode="ѵ" d="M447 73l56 156l236 702q32 95 78.5 132.5t114.5 37.5q49 0 83 -19l-13 -45q-30 17 -74 17q-55 0 -85 -33t-56 -103l-314 -918h-52v1l-378 1081h58z" horiz-adv-x="991"/>
<glyph glyph-name="uni0476" unicode="Ѷ" d="M539 56l30 89l351 1083q39 129 107.5 188.5t192.5 59.5l-1 -47l-59 -3q-127 -16 -189 -200l-399 -1226h-65l-472 1456h59zM717 1503h-69l-253 266h76zM492 1503h-73l-298 266h80z" horiz-adv-x="1233"/>
<glyph glyph-name="uni0477" unicode="ѷ" d="M447 73l56 156l236 702q32 95 78.5 132.5t114.5 37.5q49 0 83 -19l-13 -45q-30 17 -74 17q-55 0 -85 -33t-56 -103l-314 -918h-52v1l-378 1081h58zM621 1208h-69l-253 266h76zM396 1208h-73l-298 266h80z" horiz-adv-x="991"/>
<glyph glyph-name="uni0478" unicode="Ѹ" d="M1177 839q0 264 -134 423.5t-362 159.5q-225 0 -359 -158.5t-134 -431.5v-213q0 -174 60.5 -307.5t172.5 -205.5t262 -72q228 0 361 159t133 434v212zM1231 619q0 -189 -67.5 -334.5t-192.5 -225t-288 -79.5q-246 0 -398 175t-152 472v210q0 188 67.5 334t193 225.5 t287.5 79.5q163 0 288.5 -79.5t193.5 -226t68 -333.5v-218zM1867 84l7 20l374 978h60l-484 -1270l-24 -60q-78 -189 -258 -189q-58 0 -80 11l-1 51q32 -9 73 -9q85 0 141 49.5t97 161.5l66 179l-431 1076h59z" horiz-adv-x="2342"/>
<glyph glyph-name="uni0479" unicode="ѹ" d="M144 520q0 -135 53.5 -247.5t149 -175.5t218.5 -63q185 0 301.5 139t116.5 358v31q0 133 -54 246t-149.5 176.5t-216.5 63.5q-185 0 -302 -141t-117 -355v-32zM90 562q0 155 59.5 278.5t168 192.5t245.5 69q136 0 244 -67t168.5 -190t61.5 -277v-48q0 -156 -59 -279 t-167.5 -192t-245.5 -69t-245.5 68t-168.5 190.5t-61 275.5v48zM1630 84l7 20l374 978h60l-484 -1270l-24 -60q-78 -189 -258 -189q-58 0 -80 11l-1 51q32 -9 73 -9q85 0 141 49.5t97 161.5l66 179l-431 1076h59z" horiz-adv-x="2105"/>
<glyph glyph-name="uni047A" unicode="Ѻ" d="M1177 839q0 255 -126 413.5t-342 168.5v-130h-54v130q-217 -10 -342 -169t-125 -420v-213q0 -257 126 -415.5t341 -168.5v128h54v-129q216 10 342 167t126 426v212zM1231 619q0 -280 -142 -454t-380 -184v-125h-54v125q-236 10 -379 184.5t-143 461.5v210q0 280 142 454 t380 184v123h54v-123q237 -10 379.5 -184.5t142.5 -460.5v-211z" horiz-adv-x="1364"/>
<glyph glyph-name="uni047B" unicode="ѻ" d="M588 35q171 9 281.5 145.5t110.5 348.5v33q0 127 -50 237.5t-139 175.5t-203 72v-137h-54v137q-173 -11 -283 -148.5t-110 -347.5v-31q0 -130 49.5 -240t139 -174t204.5 -71v126h54v-126zM87 562q0 150 56 271.5t158 191t233 76.5v116h54v-116q202 -12 324 -161t122 -384 v-36q0 -151 -56 -272.5t-158.5 -191t-231.5 -75.5v-127h-54v127q-202 12 -324.5 161.5t-122.5 384.5v35z"/>
<glyph glyph-name="uni047C" unicode="Ѽ" d="M860 1380q70 46 72 128v107h54v-103q0 -51 -30 -98.5t-75 -71.5zM1384 1617v-44h-17q-132 0 -246.5 93.5t-194.5 93.5q-85 0 -135 -50.5t-50 -150.5h-55v22q0 102 65 167t171 65q52 0 99.5 -22t114 -75.5t120 -76t128.5 -22.5zM1263 1454q173 0 274.5 -117t103.5 -325 v-583q0 -212 -101.5 -331t-276.5 -119q-130 0 -221 67t-129 190q-37 -121 -129 -189t-221 -68q-173 0 -274.5 117t-103.5 325v583q0 212 101.5 331t276.5 119v-54q-146 0 -235 -107t-89 -291v-573q0 -182 89 -289t235 -107t234 106.5t89 285.5v514h54v-512q0 -120 41 -210 t114 -137t168 -47q146 0 235 107t89 291v573q0 182 -89 289t-235 107v54z" horiz-adv-x="1824"/>
<glyph glyph-name="uni047D" unicode="ѽ" d="M762 1067q70 46 72 128v107h54v-103q0 -51 -30 -98.5t-75 -71.5zM1305 1317v-44h-17q-132 0 -246.5 93.5t-194.5 93.5q-85 0 -135 -50.5t-50 -150.5h-55v22q0 102 65 167t171 65q52 0 99.5 -22t114 -75.5t120 -76t128.5 -22.5zM1174 1097q165 0 260.5 -112.5t97.5 -309.5 v-266q0 -200 -95.5 -315t-262.5 -115q-122 0 -208 63.5t-122 177.5q-40 -121 -127.5 -181t-202.5 -60q-165 0 -260.5 112.5t-97.5 309.5v266q0 200 95.5 315t262.5 115v-54q-138 0 -220.5 -101t-83.5 -271v-262q0 -172 82.5 -274t221.5 -102q138 0 220.5 101t82.5 277v252 h54v-265q3 -169 84.5 -267t218.5 -98q138 0 220.5 101t83.5 271v262q0 172 -82.5 274t-221.5 102v54z" horiz-adv-x="1699"/>
<glyph glyph-name="uni047E" unicode="Ѿ" d="M565 1705v56h699l2 -56h-332v-103h-54v103h-315zM1641 1456v-1035q-2 -205 -102 -323t-275 -118q-131 0 -222.5 68t-128.5 189q-37 -121 -129 -189t-221 -68q-173 0 -274.5 117t-103.5 324v1035h54v-1034q2 -179 90.5 -283.5t233.5 -104.5q146 0 234 106t89 286v1030h54 v-1034q2 -178 89.5 -283t234.5 -105q146 0 234 106t89 286v1030h54z" horiz-adv-x="1836"/>
<glyph glyph-name="uni047F" unicode="ѿ" d="M522 1400l3 56h699l2 -56h-333v-133h-54v133h-317zM1561 1082v-678q-1 -196 -95.5 -310.5t-261.5 -114.5q-121 0 -207.5 62.5t-123.5 178.5q-40 -121 -127.5 -181t-202.5 -60q-165 0 -260.5 112.5t-97.5 309.5v681h54v-680q2 -168 84 -268.5t220 -100.5t220.5 101 t82.5 277v671h54v-680q2 -168 84 -268.5t220 -100.5t220.5 101t82.5 277v671h54z" horiz-adv-x="1794"/>
<glyph glyph-name="uni0480" unicode="Ҁ" d="M717 -351h-55v330q-152 3 -269.5 91.5t-182.5 250.5t-66 370v86q0 205 68 365.5t192.5 247.5t286.5 87q219 0 346.5 -120t142.5 -345h-54q-23 201 -129.5 306t-305.5 105q-221 0 -357 -177t-136 -475v-72q0 -300 130.5 -483t346.5 -183h42v-384z" horiz-adv-x="1262"/>
<glyph glyph-name="uni0481" unicode="ҁ" d="M621 -351h-54v330q-198 2 -321.5 149.5t-123.5 397.5v36q0 158 55.5 281t158.5 191t237 68q174 0 283.5 -103t109.5 -279h-54q0 150 -92.5 239t-246.5 89q-182 0 -288.5 -132t-106.5 -362v-34q0 -219 103 -350.5t278 -136.5h62v-384z" horiz-adv-x="1048"/>
<glyph glyph-name="uni0482" unicode="҂" d="M554 419l289 -172l-39 -68l-291 170l-191 -349h-102l225 398l-289 171l38 68l293 -171l235 420l-290 171l40 70l291 -171l218 386h99l-251 -435l293 -171l-43 -67l-288 170z" horiz-adv-x="1221"/>
<glyph glyph-name="uni0483" unicode="҃" d="M-744 1362v-121h-58v173h481v108h55v-160h-478z" horiz-adv-x="0"/>
<glyph glyph-name="uni0484" unicode="҄" d="M-421 1557q105 0 170.5 -64.5t65.5 -168.5v-21h-55q0 100 -50 150.5t-135 50.5q-45 0 -88 -21t-104 -70.5t-121 -72.5t-145 -23v44q75 0 128.5 22.5t120 76t114 75.5t99.5 22z" horiz-adv-x="0"/>
<glyph glyph-name="uni0485" unicode="҅" d="M-638 1500v142h97v-139l64 -126l-36 -28z" horiz-adv-x="0"/>
<glyph glyph-name="uni0486" unicode="҆" d="M-562 1349l-36 28l64 126v139h97v-142z" horiz-adv-x="0"/>
<glyph glyph-name="uni0488" unicode="҈" d="M-1334 -32q0 85 58.5 136.5t151.5 51.5q95 0 153.5 -51.5t58.5 -136.5h-113q0 49 -26.5 75t-72.5 26q-45 0 -70.5 -26.5t-25.5 -74.5h-114zM-1500 487q0 85 58.5 136.5t151.5 51.5q95 0 153 -52t58 -136h-112q0 49 -26.5 75t-72.5 26t-71.5 -27.5t-25.5 -73.5h-113z M-1324 990q0 84 58 136t153 52t153 -52t58 -136h-112q0 46 -25.5 73.5t-73.5 27.5q-46 0 -71.5 -26.5t-25.5 -74.5h-114zM-746 -316q0 84 57.5 136t152.5 52t153 -52t58 -136h-112q0 46 -25.5 73.5t-73.5 27.5q-46 0 -71.5 -27.5t-25.5 -73.5h-113zM-170 -32 q0 85 58.5 136.5t151.5 51.5q95 0 153 -52t58 -136h-112q0 49 -26.5 75t-72.5 26t-71.5 -27.5t-25.5 -73.5h-113zM27 487q0 85 58.5 136.5t151.5 51.5q95 0 153 -52t58 -136h-112q0 49 -26.5 75t-72.5 26t-71.5 -27.5t-25.5 -73.5h-113zM-160 990q0 85 58.5 136.5 t151.5 51.5q95 0 153.5 -51.5t58.5 -136.5h-113q0 49 -26.5 75t-72.5 26q-45 0 -70.5 -26.5t-25.5 -74.5h-114zM-751 1267q0 84 57.5 136t152.5 52t153 -52t58 -136h-112q0 46 -25.5 73.5t-73.5 27.5q-46 0 -71.5 -26.5t-25.5 -74.5h-113z" horiz-adv-x="0"/>
<glyph glyph-name="uni0489" unicode="҉" d="M-92 161l17 -2l149 -325l-66 -71l-197 299zM-1054 860l-17 2l-148 326l65 69l198 -299zM-914 21l-2 -17l-320 -153l-69 69l294 200zM-230 1002l2 16l321 153l68 -68l-294 -200zM-1154 433l-13 -12l-333 124v98l346 -71v-139zM10 631l13 12l333 -124v-98l-346 71v139z M-668 1126l-12 14l122 338h96l-70 -352h-136zM-473 -60l11 -14l-122 -339h-96l70 353h137z" horiz-adv-x="0"/>
<glyph glyph-name="uni048A" unicode="Ҋ" d="M1195 1456h54v-1456h-54v1364l-941 -1364h-54v1456h54v-1361zM1013 1810q0 -112 -75.5 -180t-202.5 -68q-128 0 -203.5 68t-75.5 180h54q0 -91 57 -141.5t168 -50.5q107 0 165.5 51.5t58.5 140.5h54zM1196 -279l-37 32q81 104 88 215l1 167h54v-146q-4 -159 -106 -268z " horiz-adv-x="1449"/>
<glyph glyph-name="uni048B" unicode="ҋ" d="M895 1082h55v-1082h-55v986l-669 -986h-54v1082h54v-986zM832 1468q0 -112 -75.5 -180t-202.5 -68q-128 0 -203.5 68t-75.5 180h54q0 -91 57 -141.5t168 -50.5q107 0 165.5 51.5t58.5 140.5h54zM896 -279l-37 32q81 104 88 215l1 167h54v-146q-4 -159 -106 -268z"/>
<glyph glyph-name="uni048C" unicode="Ҍ" d="M247 734v-680h369q198 0 307 91.5t109 250.5q0 152 -107.5 244t-299.5 94h-378zM625 1151h-378v-363h381q213 -3 336 -106.5t123 -287.5q0 -182 -123.5 -287.5t-343.5 -106.5h-427v1151h-155v54h155v251h54v-251h378v-54z" horiz-adv-x="1223"/>
<glyph glyph-name="uni048D" unicode="ҍ" d="M235 616v-562h345q156 0 244.5 76.5t88.5 206.5q0 124 -86.5 200.5t-238.5 78.5h-353zM564 1402h-329v-732h355q173 -3 275 -93.5t102 -241.5q0 -150 -101 -241t-276 -94h-409v1402h-204v54h204v166h54v-166h329v-54z" horiz-adv-x="1080"/>
<glyph glyph-name="uni048E" unicode="Ҏ" d="M918 736q146 96 146 293q0 176 -109.5 274.5t-306.5 98.5h-401v-733h401q129 0 221 41l-126 149l41 35zM247 615v-615h-54v1456h455q223 0 346.5 -112.5t123.5 -312.5q0 -231 -162 -339l129 -151l-41 -35l-137 160q-106 -51 -259 -51h-401z" horiz-adv-x="1281"/>
<glyph glyph-name="uni048F" unicode="ҏ" d="M944 552q0 233 -92.5 364.5t-259.5 131.5q-136 0 -231 -70.5t-137 -202.5v-506q42 -112 137.5 -173.5t232.5 -61.5q110 0 187 59l-113 157l45 32l109 -152q122 130 122 407v15zM999 531q0 -146 -37.5 -259.5t-107.5 -185.5l108 -149l-44 -33l-106 146q-93 -70 -219 -70 q-123 0 -219 50t-150 138v-584h-54v1498h54v-193q56 103 151 158t216 55q190 0 299 -145.5t109 -408.5v-17z" horiz-adv-x="1151"/>
<glyph glyph-name="uni0490" unicode="Ґ" d="M1055 1401h-54v1h-754v-1402h-54v1456h808v372h54v-427z" horiz-adv-x="1122"/>
<glyph glyph-name="uni0491" unicode="ґ" d="M824 1027h-598v-1027h-54v1082h598v372h54v-427z" horiz-adv-x="881"/>
<glyph glyph-name="uni0492" unicode="Ғ" d="M670 731h-423v-731h-54v731h-110v54h110v671h862v-54h-808v-617h423v-54z" horiz-adv-x="1122"/>
<glyph glyph-name="uni0493" unicode="ғ" d="M591 526h-365v-526h-54v526h-168v54h168v502h650v-55h-596v-447h365v-54z" horiz-adv-x="867"/>
<glyph glyph-name="uni0494" unicode="Ҕ" d="M1055 1402h-808v-579h233q281 0 423 -144.5t142 -420.5q0 -144 -60 -274t-157.5 -196t-222.5 -66v51q113 0 200 63.5t136.5 178t49.5 243.5q0 247 -132 379.5t-381 132.5h-231v-770h-54v1456h862v-54z" horiz-adv-x="1120"/>
<glyph glyph-name="uni0495" unicode="ҕ" d="M822 1027h-596v-421h167q260 0 392.5 -113.5t132.5 -331.5l-1 -30q-11 -151 -108.5 -253.5t-254.5 -132.5l-16 42q147 29 233.5 125t92.5 249v15q0 177 -119 277t-354 100h-165v-553h-54v1082h650v-55z" horiz-adv-x="1009"/>
<glyph glyph-name="uni0496" unicode="Җ" d="M1066 720h-171v-720h-54v720h-173l-577 -720h-72l592 737l-557 719h71l529 -682h187v682h54v-682h186l529 682h70l-557 -719l593 -737h-72zM1728 -352h-54v447h54v-447z" horiz-adv-x="1745"/>
<glyph glyph-name="uni0497" unicode="җ" d="M961 528h-156v-528h-54v528h-155l-498 -528h-71l511 552l-448 530h67l430 -500h164v500h54v-500h167l429 500h69l-451 -530l513 -552h-71zM1530 -352h-54v447h54v-447z" horiz-adv-x="1574"/>
<glyph glyph-name="uni0498" unicode="Ҙ" d="M1042 1087q0 161 -115 248t-324 87q-183 0 -305.5 -96t-122.5 -251h-54q0 116 62.5 207t175 142.5t244.5 51.5q235 0 364 -103.5t129 -289.5q0 -121 -78.5 -211t-212.5 -127q314 -66 314 -359q0 -186 -141 -296.5t-375 -110.5q-143 0 -260 55t-180 150t-63 220h55 q0 -161 124.5 -266t323.5 -105q219 0 340.5 92t121.5 257q0 167 -110 249t-344 84h-197v56h191q215 1 326 80t111 236zM653 -431h-54v447h54v-447z" horiz-adv-x="1221"/>
<glyph glyph-name="uni0499" unicode="ҙ" d="M846 805q0 115 -84.5 179t-246.5 64q-140 0 -236.5 -71t-96.5 -178h-55q0 131 113.5 217t274.5 86q184 0 285 -79.5t101 -220.5q0 -85 -55 -151t-155 -97q229 -52 229 -264q0 -142 -109.5 -225.5t-294.5 -83.5q-108 0 -203 40t-149.5 112t-54.5 168h55q0 -112 100 -188.5 t252 -76.5q172 0 260.5 67.5t88.5 183.5q0 125 -86.5 181t-259.5 57h-151v55h162q316 5 316 225zM531 -430h-54v447h54v-447z" horiz-adv-x="1035"/>
<glyph glyph-name="uni049A" unicode="Қ" d="M477 711h-223v-711h-54v1456h54v-692h238l618 692h71l-644 -726l690 -730h-71zM1234 -386h-54v447h54v-447z" horiz-adv-x="1300"/>
<glyph glyph-name="uni049B" unicode="қ" d="M424 529h-198v-529h-55v1082h55v-500h208l429 500h78l-460 -530l523 -552h-81zM1001 -352h-54v447h54v-447z" horiz-adv-x="1016"/>
<glyph glyph-name="uni049C" unicode="Ҝ" d="M1117 1456l-470 -717l546 -739h-71l-530 721h-102v-324h-55v324h-185v-721h-54v1456h54v-682h185v307h55v-307h118l438 682h71z" horiz-adv-x="1223"/>
<glyph glyph-name="uni049D" unicode="ҝ" d="M960 1082l-353 -530l417 -552h-82l-388 529h-101v-279h-55v279h-172v-529h-55v1082h55v-500h172v268h55v-268h111l318 500h78z" horiz-adv-x="1063"/>
<glyph glyph-name="uni049E" unicode="Ҟ" d="M497 711h-223v-711h-54v1105h-237v54h237v297h54v-297h296v-54h-296v-341h238l618 692h71l-644 -726l690 -730h-71z" horiz-adv-x="1320"/>
<glyph glyph-name="uni049F" unicode="ҟ" d="M394 553h-148v-553h-54v1264h-149v54h149v218h54v-218h384v-54h-384v-657h127l492 475h71l-502 -493l539 -589h-70z" horiz-adv-x="989"/>
<glyph glyph-name="uni04A0" unicode="Ҡ" d="M872 711h-223v-711h-54v1402h-501v54h555v-692h238l618 692h71l-644 -726l690 -730h-71z" horiz-adv-x="1632"/>
<glyph glyph-name="uni04A1" unicode="ҡ" d="M682 529h-198v-529h-55v1028h-389v54h444v-500h208l429 500h78l-460 -530l523 -552h-81z" horiz-adv-x="1291"/>
<glyph glyph-name="uni04A2" unicode="Ң" d="M1238 0h-54v722h-930v-722h-54v1456h54v-680h930v680h54v-1456zM1292 -352h-54v447h54v-447z" horiz-adv-x="1438"/>
<glyph glyph-name="uni04A3" unicode="ң" d="M950 0h-55v529h-669v-529h-54v1082h54v-499h669v499h55v-1082zM1002 -352h-54v447h54v-447z"/>
<glyph glyph-name="uni04A4" unicode="Ҥ" d="M249 776h930v680h864v-54h-810v-1402h-54v722h-930v-722h-54v1456h54v-680z" horiz-adv-x="2128"/>
<glyph glyph-name="uni04A5" unicode="ҥ" d="M226 583h669v499h540v-55h-485v-1027h-55v529h-669v-529h-54v1082h54v-499z" horiz-adv-x="1505"/>
<glyph glyph-name="uni04A6" unicode="Ҧ" d="M1217 838h209q281 0 423 -144.5t142 -420.5q0 -144 -60 -274t-157.5 -196t-222.5 -66v51q113 0 200 63.5t136.5 178t49.5 243.5q0 247 -132 379.5t-381 132.5h-207v-785h-54v1402h-930v-1402h-54v1456h1038v-618z" horiz-adv-x="2079"/>
<glyph glyph-name="uni04A7" unicode="ҧ" d="M950 606h158q260 0 392.5 -113.5t132.5 -331.5l-1 -30q-11 -151 -108.5 -253.5t-254.5 -132.5l-16 42q147 29 233.5 125t92.5 249v15q0 177 -119 277t-354 100h-156v-553h-55v1027h-669v-1027h-54v1082h778v-476z" horiz-adv-x="1709"/>
<glyph glyph-name="uni04A8" unicode="Ҩ" d="M697 655q0 -186 94 -331.5t263 -220.5q142 75 221.5 217t81.5 327v293q0 209 -91 339t-244 130q-149 0 -237 -131t-88 -348v-275zM1425 -22q-197 0 -362 67q-142 -66 -316 -66q-280 0 -447 193t-167 516v231q0 157 57 284.5t161.5 200.5t235.5 73l4 -54 q-174 0 -288.5 -145t-114.5 -369v-232q0 -184 71 -333t198.5 -230t289.5 -81q137 0 248 43q-166 87 -259.5 240.5t-93.5 342.5v280q0 235 105 379.5t275 144.5q172 0 280.5 -146t108.5 -385v-277q0 -198 -76 -345.5t-214 -232.5q132 -46 304 -46v-53z" horiz-adv-x="1526"/>
<glyph glyph-name="uni04A9" unicode="ҩ" d="M570 545q0 -154 70.5 -268.5t198.5 -175.5q95 62 148 175.5t53 257.5v103q0 175 -67 292.5t-169 117.5q-106 0 -170 -106t-64 -290v-106zM1125 -12q-154 0 -283 54q-108 -63 -243 -63q-207 0 -339.5 157t-132.5 405v86q0 205 92.5 340t239.5 135v-54q-112 0 -193.5 -120 t-84.5 -288v-107q0 -224 115.5 -362t302.5 -138q101 0 184 37q-127 72 -197 194t-70 283v108q0 200 80.5 323t207.5 123t208.5 -132.5t81.5 -341.5v-95q0 -144 -52 -261.5t-146 -192.5q108 -36 229 -36v-54z" horiz-adv-x="1198"/>
<glyph glyph-name="uni04AA" unicode="Ҫ" d="M1190 446q-21 -225 -155 -345.5t-364 -120.5q-155 0 -274.5 78.5t-185.5 223t-67 330.5v225q0 186 65 332.5t185.5 226.5t276.5 80q228 0 363 -120t156 -344h-54q-23 201 -140 305.5t-325 104.5q-212 0 -342.5 -160t-130.5 -429v-214q0 -172 58 -304.5t166.5 -206.5 t248.5 -74q209 0 326.5 103t138.5 309h54zM705 -431h-54v447h54v-447z" horiz-adv-x="1327"/>
<glyph glyph-name="uni04AB" unicode="ҫ" d="M539 34q147 0 242.5 78t104.5 216h54q-8 -157 -121 -252.5t-280 -95.5q-203 0 -322.5 147t-119.5 399v36q0 246 119.5 393t320.5 147q172 0 284 -103t119 -274h-54q-7 146 -102.5 234.5t-246.5 88.5q-181 0 -283.5 -130.5t-102.5 -362.5v-35q0 -227 103.5 -356.5 t284.5 -129.5zM574 -431h-54v447h54v-447z" horiz-adv-x="1039"/>
<glyph glyph-name="uni04AC" unicode="Ҭ" d="M1169 1402h-530v-1402h-54v1402h-530v54h1114v-54zM693 -352h-54v447h54v-447z" horiz-adv-x="1224"/>
<glyph glyph-name="uni04AD" unicode="ҭ" d="M922 1027h-425v-1027h-54v1027h-403v55h882v-55zM553 -352h-54v447h54v-447z" horiz-adv-x="962"/>
<glyph glyph-name="uni04AE" unicode="Ү" d="M609 602l510 854h66l-549 -903v-553h-54v553l-549 903h72z" horiz-adv-x="1223"/>
<glyph glyph-name="uni04AF" unicode="ү" d="M877 1082h58l-419 -1077v-420h-54v417l-419 1080h58l334 -853l54 -155l55 155z" horiz-adv-x="978"/>
<glyph glyph-name="uni04B0" unicode="Ұ" d="M897 558h-258l-3 -5v-553h-54v553l-3 5h-269v54h236l-513 844h72l498 -844h12l504 844h66l-513 -844h225v-54z" horiz-adv-x="1223"/>
<glyph glyph-name="uni04B1" unicode="ұ" d="M778 6h-262v-421h-54v417l-2 4h-269v54h248l-396 1022h58l334 -853l54 -155l55 155l333 853h58l-398 -1022h241v-54z" horiz-adv-x="978"/>
<glyph glyph-name="uni04B2" unicode="Ҳ" d="M611 785l470 671h68l-504 -713l523 -743h-67l-490 701l-492 -701h-65l523 743l-504 713h68zM1174 -352h-54v447h54v-447z" horiz-adv-x="1223"/>
<glyph glyph-name="uni04B3" unicode="ҳ" d="M489 602l345 480h68l-380 -527l400 -555h-67l-367 508l-366 -508h-67l400 555l-380 527h68zM944 -352h-54v447h54v-447z" horiz-adv-x="978"/>
<glyph glyph-name="uni04B4" unicode="Ҵ" d="M440 1401h-422v54h422v1h54v-1h468v-54h-468v-1347h930v1402h54v-1402h133v-405h-54v351h-1117v1401z" horiz-adv-x="1720"/>
<glyph glyph-name="uni04B5" unicode="ҵ" d="M353 1028h-327v54h708v-54h-327v-974h669v1028h55v-1028h91v-375h-54v321h-815v1028z" horiz-adv-x="1305"/>
<glyph glyph-name="uni04B6" unicode="Ҷ" d="M1130 1456v-1456h-54v719q-221 -61 -402 -61q-247 0 -362.5 107.5t-116.5 334.5v356h54v-364q3 -193 106.5 -286.5t318.5 -93.5q193 0 402 60v684h54zM1183 -352h-54v447h54v-447z" horiz-adv-x="1325"/>
<glyph glyph-name="uni04B7" unicode="ҷ" d="M895 0h-54v522q-72 -35 -162.5 -57.5t-152.5 -22.5q-162 0 -246 38.5t-123.5 126t-39.5 239.5v236h54v-236q0 -133 34 -208.5t107.5 -108.5t213.5 -33q80 4 171.5 26.5t143.5 50.5v509h54v-1082zM948 -352h-54v447h54v-447z" horiz-adv-x="1067"/>
<glyph glyph-name="uni04B8" unicode="Ҹ" d="M249 1456v-356q1 -193 100 -288.5t306 -99.5v371h55v-371q183 6 366 60v684h54v-1456h-54v719q-209 -56 -366 -61v-257h-55v257q-235 4 -345.5 110t-114.5 320v368h54z" horiz-adv-x="1325"/>
<glyph glyph-name="uni04B9" unicode="ҹ" d="M950 0h-54v522q-126 -60 -255 -76v-203h-56v199q-166 0 -250 38.5t-123.5 126t-39.5 239.5v236h54v-236q0 -133 34 -208.5t107.5 -108.5t217.5 -33v303h56v-298q154 21 255 72v509h54v-1082z" horiz-adv-x="1122"/>
<glyph glyph-name="uni04BA" unicode="Һ" d="M195 0v1456h54v-719q221 61 402 61q247 0 362 -107.5t117 -330.5v-360h-54v364q-3 193 -106.5 286.5t-318.5 93.5q-193 0 -402 -60v-684h-54z" horiz-adv-x="1325"/>
<glyph glyph-name="uni04BB" unicode="һ" d="M226 830q53 126 156 199t228 73q174 0 258.5 -98.5t85.5 -297.5v-706h-54v708q-1 174 -71 257.5t-222 83.5q-140 0 -242.5 -99.5t-138.5 -256.5v-693h-54v1536h54v-706z"/>
<glyph glyph-name="uni04BC" unicode="Ҽ" d="M363 818h962v51q0 159 -59.5 286t-170 196t-254.5 69q-214 0 -346 -154.5t-132 -403.5v-44zM886 -20q-268 0 -422.5 156t-154.5 429v198q-143 11 -221 89.5t-78 221.5h55q0 -115 61.5 -180.5t182.5 -75.5v54q0 171 68 309.5t190.5 216t273.5 77.5q241 0 387 -159.5 t151 -432.5v-120h-1016v-204q0 -245 137 -385t386 -140q265 0 436 151l30 -43q-94 -86 -208.5 -124t-257.5 -38z" horiz-adv-x="1509"/>
<glyph glyph-name="uni04BD" unicode="ҽ" d="M296 631h742v13q0 110 -46.5 204.5t-128 147t-182.5 52.5q-155 0 -265 -115t-131 -298h11v-4zM701 -20q-131 0 -240.5 70.5t-171.5 193.5t-62 273v69q-101 17 -157 84t-56 182h55q0 -182 162 -212q24 204 150 333t300 129q181 0 296 -129t115 -339v-57h-811v-59 q0 -132 55.5 -244.5t153 -176.5t211.5 -64q109 0 185.5 36.5t135.5 112.5l38 -27q-121 -175 -359 -175z" horiz-adv-x="1203"/>
<glyph glyph-name="uni04BE" unicode="Ҿ" d="M363 818h962v51q0 159 -59.5 286t-170 196t-254.5 69q-214 0 -346 -154.5t-132 -403.5v-44zM886 -20q-268 0 -422.5 156t-154.5 429v198q-143 11 -221 89.5t-78 221.5h55q0 -115 61.5 -180.5t182.5 -75.5v54q0 171 68 309.5t190.5 216t273.5 77.5q241 0 387 -159.5 t151 -432.5v-120h-1016v-204q0 -245 137 -385t386 -140q265 0 436 151l30 -43q-94 -86 -208.5 -124t-257.5 -38zM913 -465h-54v447h54v-447z" horiz-adv-x="1509"/>
<glyph glyph-name="uni04BF" unicode="ҿ" d="M296 631h742v13q0 110 -46.5 204.5t-128 147t-182.5 52.5q-155 0 -265 -115t-131 -298h11v-4zM701 -20q-131 0 -240.5 70.5t-171.5 193.5t-62 273v69q-101 17 -157 84t-56 182h55q0 -182 162 -212q24 204 150 333t300 129q181 0 296 -129t115 -339v-57h-811v-59 q0 -132 55.5 -244.5t153 -176.5t211.5 -64q109 0 185.5 36.5t135.5 112.5l38 -27q-121 -175 -359 -175zM717 -421h-54v447h54v-447z" horiz-adv-x="1203"/>
<glyph glyph-name="uni04C0" unicode="Ӏ" d="M294 0h-54v1456h54v-1456z" horiz-adv-x="534"/>
<glyph glyph-name="uni04C1" unicode="Ӂ" d="M1066 720h-171v-720h-54v720h-173l-577 -720h-72l592 737l-557 719h71l529 -682h187v682h54v-682h186l529 682h70l-557 -719l593 -737h-72zM1144 1810q0 -112 -75.5 -180t-202.5 -68q-128 0 -203.5 68t-75.5 180h54q0 -91 57 -141.5t168 -50.5q107 0 165.5 51.5 t58.5 140.5h54z" horiz-adv-x="1745"/>
<glyph glyph-name="uni04C2" unicode="ӂ" d="M961 528h-156v-528h-54v528h-155l-498 -528h-71l511 552l-448 530h67l430 -500h164v500h54v-500h167l429 500h69l-451 -530l513 -552h-71zM1052 1468q0 -112 -75.5 -180t-202.5 -68q-128 0 -203.5 68t-75.5 180h54q0 -91 57 -141.5t168 -50.5q107 0 165.5 51.5 t58.5 140.5h54z" horiz-adv-x="1574"/>
<glyph glyph-name="uni04C3" unicode="Ӄ" d="M541 774h59q281 0 423 -144.5t142 -420.5q0 -144 -60 -274t-157.5 -196t-222.5 -66v51q113 0 200 63.5t136.5 178t49.5 243.5q0 247 -132 379.5t-381 132.5h-348v-721h-54v1456h54v-682h218l578 682h71z" horiz-adv-x="1223"/>
<glyph glyph-name="uni04C4" unicode="ӄ" d="M481 583q233 -11 354 -124.5t121 -322.5v-11q0 -89 -45.5 -179t-127 -147.5t-191.5 -78.5l-17 42q148 29 234.5 126t92.5 248v15q0 179 -120.5 279t-349.5 100l-1 -1h-205v-529h-55v1082h55v-498h180l457 498h78z" horiz-adv-x="1046"/>
<glyph glyph-name="uni04C5" unicode="Ӆ" d="M1233 1456v-1456h-54v1402h-709l-44 -668q-24 -327 -62 -468t-104.5 -202t-181.5 -64h-44v54h48q100 3 153.5 63.5t85.5 204t52 425.5l47 709h813zM1180 -279l-37 32q81 104 88 215l1 167h54v-146q-4 -159 -106 -268z" horiz-adv-x="1428"/>
<glyph glyph-name="uni04C6" unicode="ӆ" d="M950 1082v-1082h-55v1027h-518l-21 -506q-16 -289 -77.5 -404t-196.5 -117h-38v53h45q102 4 149.5 107t62.5 344l24 578h625zM896 -279l-37 32q81 104 88 215l1 167h54v-146q-4 -159 -106 -268z" horiz-adv-x="1122"/>
<glyph glyph-name="uni04C7" unicode="Ӈ" d="M249 1456v-707h930v707h54v-1545q0 -170 -75 -259t-209 -89q-55 0 -113 20l14 52q45 -18 99 -18q110 0 170 76t60 218v784h-930v-695h-54v1456h54z" horiz-adv-x="1428"/>
<glyph glyph-name="uni04C8" unicode="ӈ" d="M226 1082v-499h669v499h55v-1171q0 -170 -75.5 -259t-210.5 -89q-54 0 -112 20l13 52q45 -18 99 -18q112 0 171.5 76t59.5 218v618h-669v-529h-54v1082h54z"/>
<glyph glyph-name="uni04C9" unicode="Ӊ" d="M1238 0h-54v722h-930v-722h-54v1456h54v-680h930v680h54v-1456zM1185 -279l-37 32q81 104 88 215l1 167h54v-146q-4 -159 -106 -268z" horiz-adv-x="1438"/>
<glyph glyph-name="uni04CA" unicode="ӊ" d="M950 0h-55v529h-669v-529h-54v1082h54v-499h669v499h55v-1082zM895 -279l-37 32q81 104 88 215l1 167h54v-146q-4 -159 -106 -268z"/>
<glyph glyph-name="uni04CB" unicode="Ӌ" d="M1130 1456v-1456h-54v719q-221 -61 -402 -61q-247 0 -362.5 107.5t-116.5 334.5v356h54v-364q3 -193 106.5 -286.5t318.5 -93.5q193 0 402 60v684h54zM1075 -352h-54v447h54v-447z" horiz-adv-x="1325"/>
<glyph glyph-name="uni04CC" unicode="ӌ" d="M895 0h-54v522q-72 -35 -162.5 -57.5t-152.5 -22.5q-162 0 -246 38.5t-123.5 126t-39.5 239.5v236h54v-236q0 -133 34 -208.5t107.5 -108.5t213.5 -33q80 4 171.5 26.5t143.5 50.5v509h54v-1082zM842 -352h-54v447h54v-447z" horiz-adv-x="1067"/>
<glyph glyph-name="uni04CD" unicode="Ӎ" d="M277 1456l599 -1377l601 1377h79v-1456h-54v1376l-604 -1376h-43l-601 1369v-1369h-54v1456h77zM1503 -279l-37 32q81 104 88 215l1 167h54v-146q-4 -159 -106 -268z" horiz-adv-x="1756"/>
<glyph glyph-name="uni04CE" unicode="ӎ" d="M747 82l492 1000h65v-1082h-55v978l-481 -978h-42l-491 1002v-1002h-54v1082h74zM1252 -279l-37 32q81 104 88 215l1 167h54v-146q-4 -159 -106 -268z" horiz-adv-x="1476"/>
<glyph glyph-name="uni04CF" unicode="ӏ" d="M294 0h-54v1456h54v-1456z" horiz-adv-x="534"/>
<glyph glyph-name="uni04D0" unicode="Ӑ" d="M274 489h673l-336 902zM967 435h-713l-162 -435h-59l545 1456h66l545 -1456h-59zM889 1810q0 -112 -75.5 -180t-202.5 -68q-128 0 -203.5 68t-75.5 180h54q0 -91 57 -141.5t168 -50.5q107 0 165.5 51.5t58.5 140.5h54z" horiz-adv-x="1223"/>
<glyph glyph-name="uni04D1" unicode="ӑ" d="M425 33q152 0 261.5 68t164.5 191v257h-250q-232 0 -355 -92q-100 -75 -100 -187q0 -99 79 -168t200 -69zM871 0q-20 69 -20 198q-64 -104 -175 -161t-251 -57q-150 0 -241.5 81.5t-91.5 212.5q0 149 134.5 238.5t357.5 91.5h267v158q0 136 -85.5 211t-244.5 75 q-148 0 -247 -76t-99 -188l-54 2q0 132 116 224t284 92q175 0 278 -87.5t106 -246.5v-517q0 -178 28 -242v-9h-62zM854 1490q0 -112 -75.5 -180t-202.5 -68q-128 0 -203.5 68t-75.5 180h54q0 -91 57 -141.5t168 -50.5q107 0 165.5 51.5t58.5 140.5h54z" horiz-adv-x="1081"/>
<glyph glyph-name="uni04D2" unicode="Ӓ" d="M274 489h673l-336 902zM967 435h-713l-162 -435h-59l545 1456h66l545 -1456h-59zM791 1740q0 23 16 39.5t39 16.5t39.5 -16.5t16.5 -39.5t-16.5 -39t-39.5 -16t-39 16t-16 39zM346 1740q0 23 16 39.5t39 16.5t39.5 -16.5t16.5 -39.5t-16.5 -39t-39.5 -16t-39 16t-16 39z " horiz-adv-x="1223"/>
<glyph glyph-name="uni04D3" unicode="ӓ" d="M425 33q152 0 261.5 68t164.5 191v257h-250q-232 0 -355 -92q-100 -75 -100 -187q0 -99 79 -168t200 -69zM871 0q-20 69 -20 198q-64 -104 -175 -161t-251 -57q-150 0 -241.5 81.5t-91.5 212.5q0 149 134.5 238.5t357.5 91.5h267v158q0 136 -85.5 211t-244.5 75 q-148 0 -247 -76t-99 -188l-54 2q0 132 116 224t284 92q175 0 278 -87.5t106 -246.5v-517q0 -178 28 -242v-9h-62zM756 1421q0 23 16 39.5t39 16.5t39.5 -16.5t16.5 -39.5t-16.5 -39t-39.5 -16t-39 16t-16 39zM311 1421q0 23 16 39.5t39 16.5t39.5 -16.5t16.5 -39.5 t-16.5 -39t-39.5 -16t-39 16t-16 39z" horiz-adv-x="1081"/>
<glyph glyph-name="uni04D4" unicode="Ӕ" d="M403 478h593l-39 920zM1768 0h-752l-18 425h-627l-256 -425h-65l881 1456h776v-54h-696l26 -616h588v-54h-586l28 -678h701v-54z" horiz-adv-x="1816"/>
<glyph glyph-name="uni04D5" unicode="ӕ" d="M1253 1048q-153 0 -257 -113.5t-123 -302.5h730v32q0 174 -93.5 279t-256.5 105zM447 32q81 0 159 28.5t135.5 75.5t71.5 89v350h-301q-167 -3 -265.5 -83t-98.5 -212q0 -116 76.5 -182t222.5 -66zM1268 -20q-147 0 -247.5 67.5t-152.5 182.5v-12h1 q-48 -107 -162.5 -172.5t-258.5 -65.5q-168 0 -261.5 82t-93.5 222q0 158 110.5 251t312.5 95h297v90q0 156 -72 242t-220 86q-158 0 -252.5 -76t-94.5 -201l-53 7q0 145 111.5 234.5t288.5 89.5q141 0 228.5 -74t110.5 -214q56 137 159.5 212.5t233.5 75.5 q186 0 295 -116.5t109 -329.5v-79h-787v-77q0 -218 104.5 -342t293.5 -124q204 0 332 130l30 -42q-79 -79 -165.5 -110.5t-196.5 -31.5z" horiz-adv-x="1735"/>
<glyph glyph-name="uni04D6" unicode="Ӗ" d="M984 722h-730v-668h832v-54h-886v1456h886v-54h-832v-626h730v-54zM896 1810q0 -112 -75.5 -180t-202.5 -68q-128 0 -203.5 68t-75.5 180h54q0 -91 57 -141.5t168 -50.5q107 0 165.5 51.5t58.5 140.5h54z" horiz-adv-x="1166"/>
<glyph glyph-name="uni04D7" unicode="ӗ" d="M541 1048q-158 0 -268 -117.5t-129 -299.5h754v13q0 110 -46.5 204.5t-128 147t-182.5 52.5zM561 -20q-131 0 -240.5 70.5t-171.5 193.5t-62 273v45q0 150 60 275t165 195t229 70q181 0 296 -129t115 -339v-57h-811v-59q0 -132 55.5 -244.5t153 -176.5t211.5 -64 q109 0 185.5 36.5t135.5 112.5l38 -27q-121 -175 -359 -175zM844 1489q0 -112 -75.5 -180t-202.5 -68q-128 0 -203.5 68t-75.5 180h54q0 -91 57 -141.5t168 -50.5q107 0 165.5 51.5t58.5 140.5h54z" horiz-adv-x="1032"/>
<glyph glyph-name="uni04D8" unicode="Ә" d="M754 34q151 0 268 78t183.5 222.5t67.5 321.5h-1063v-72q0 -158 66 -284t190 -196t288 -70zM728 1476q276 0 437.5 -171.5t161.5 -479.5v-162q0 -196 -73.5 -352.5t-205 -243.5t-294.5 -87q-274 0 -436 165.5t-162 447.5v118h1117v124q0 275 -143.5 431t-401.5 156 q-147 0 -260.5 -43t-194.5 -111l-30 43l63 49q165 116 422 116z" horiz-adv-x="1452"/>
<glyph glyph-name="uni04D9" unicode="ә" d="M894 450h-753v-33q0 -169 101.5 -276.5t258.5 -107.5t265.5 116.5t127.5 300.5zM498 1102q120 0 226 -69.5t167 -189t61 -260.5v-66q0 -151 -59.5 -275t-163 -193.5t-228.5 -69.5q-185 0 -299.5 121t-114.5 325v79h810l1 77q0 127 -52.5 234.5t-145 170t-202.5 62.5 q-112 0 -196 -30.5t-146 -101.5l-29 42q129 144 371 144z" horiz-adv-x="1032"/>
<glyph glyph-name="uni04DA" unicode="Ӛ" d="M754 34q151 0 268 78t183.5 222.5t67.5 321.5h-1063v-72q0 -158 66 -284t190 -196t288 -70zM728 1476q276 0 437.5 -171.5t161.5 -479.5v-162q0 -196 -73.5 -352.5t-205 -243.5t-294.5 -87q-274 0 -436 165.5t-162 447.5v118h1117v124q0 275 -143.5 431t-401.5 156 q-147 0 -260.5 -43t-194.5 -111l-30 43l63 49q165 116 422 116zM872 1694q0 23 16 39.5t39 16.5t39.5 -16.5t16.5 -39.5t-16.5 -39t-39.5 -16t-39 16t-16 39zM427 1694q0 23 16 39.5t39 16.5t39.5 -16.5t16.5 -39.5t-16.5 -39t-39.5 -16t-39 16t-16 39z" horiz-adv-x="1452"/>
<glyph glyph-name="uni04DB" unicode="ӛ" d="M894 450h-753v-33q0 -169 101.5 -276.5t258.5 -107.5t265.5 116.5t127.5 300.5zM498 1102q120 0 226 -69.5t167 -189t61 -260.5v-66q0 -151 -59.5 -275t-163 -193.5t-228.5 -69.5q-185 0 -299.5 121t-114.5 325v79h810l1 77q0 127 -52.5 234.5t-145 170t-202.5 62.5 q-112 0 -196 -30.5t-146 -101.5l-29 42q129 144 371 144zM746 1420q0 23 16 39.5t39 16.5t39.5 -16.5t16.5 -39.5t-16.5 -39t-39.5 -16t-39 16t-16 39zM301 1420q0 23 16 39.5t39 16.5t39.5 -16.5t16.5 -39.5t-16.5 -39t-39.5 -16t-39 16t-16 39z" horiz-adv-x="1032"/>
<glyph glyph-name="uni04DC" unicode="Ӝ" d="M1066 720h-171v-720h-54v720h-173l-577 -720h-72l592 737l-557 719h71l529 -682h187v682h54v-682h186l529 682h70l-557 -719l593 -737h-72zM1046 1740q0 23 16 39.5t39 16.5t39.5 -16.5t16.5 -39.5t-16.5 -39t-39.5 -16t-39 16t-16 39zM601 1740q0 23 16 39.5t39 16.5 t39.5 -16.5t16.5 -39.5t-16.5 -39t-39.5 -16t-39 16t-16 39z" horiz-adv-x="1745"/>
<glyph glyph-name="uni04DD" unicode="ӝ" d="M961 528h-156v-528h-54v528h-155l-498 -528h-71l511 552l-448 530h67l430 -500h164v500h54v-500h167l429 500h69l-451 -530l513 -552h-71zM954 1398q0 23 16 39.5t39 16.5t39.5 -16.5t16.5 -39.5t-16.5 -39t-39.5 -16t-39 16t-16 39zM509 1398q0 23 16 39.5t39 16.5 t39.5 -16.5t16.5 -39.5t-16.5 -39t-39.5 -16t-39 16t-16 39z" horiz-adv-x="1574"/>
<glyph glyph-name="uni04DE" unicode="Ӟ" d="M1042 1087q0 161 -115 248t-324 87q-183 0 -305.5 -96t-122.5 -251h-54q0 116 62.5 207t175 142.5t244.5 51.5q235 0 364 -103.5t129 -289.5q0 -121 -78.5 -211t-212.5 -127q314 -66 314 -359q0 -186 -141 -296.5t-375 -110.5q-143 0 -260 55t-180 150t-63 220h55 q0 -161 124.5 -266t323.5 -105q219 0 340.5 92t121.5 257q0 167 -110 249t-344 84h-197v56h191q215 1 326 80t111 236zM805 1761q0 23 16 39.5t39 16.5t39.5 -16.5t16.5 -39.5t-16.5 -39t-39.5 -16t-39 16t-16 39zM360 1761q0 23 16 39.5t39 16.5t39.5 -16.5t16.5 -39.5 t-16.5 -39t-39.5 -16t-39 16t-16 39z" horiz-adv-x="1221"/>
<glyph glyph-name="uni04DF" unicode="ӟ" d="M846 805q0 115 -84.5 179t-246.5 64q-140 0 -236.5 -71t-96.5 -178h-55q0 131 113.5 217t274.5 86q184 0 285 -79.5t101 -220.5q0 -85 -55 -151t-155 -97q229 -52 229 -264q0 -142 -109.5 -225.5t-294.5 -83.5q-108 0 -203 40t-149.5 112t-54.5 168h55q0 -112 100 -188.5 t252 -76.5q172 0 260.5 67.5t88.5 183.5q0 125 -86.5 181t-259.5 57h-151v55h162q316 5 316 225zM683 1418q0 23 16 39.5t39 16.5t39.5 -16.5t16.5 -39.5t-16.5 -39t-39.5 -16t-39 16t-16 39zM238 1418q0 23 16 39.5t39 16.5t39.5 -16.5t16.5 -39.5t-16.5 -39t-39.5 -16 t-39 16t-16 39z" horiz-adv-x="1035"/>
<glyph glyph-name="uni04E0" unicode="Ӡ" d="M1012 1456l3 -68l-481 -561h46q217 -2 322 -116t105 -325q0 -187 -120 -297t-314 -110q-126 0 -230.5 53t-162.5 148t-58 224h56q0 -162 108.5 -266.5t286.5 -104.5q179 0 279.5 92.5t100.5 256.5q0 201 -93.5 299t-290.5 98h-101v55l486 568h-811v54h869z" horiz-adv-x="1166"/>
<glyph glyph-name="uni04E1" unicode="ӡ" d="M955 1027h-812v55h869l3 -68l-482 -562q232 0 353 -115.5t121 -325.5q0 -185 -119.5 -295.5t-314.5 -110.5q-126 0 -230.5 53t-162.5 148t-58 223h56q0 -161 108.5 -265.5t286.5 -104.5q179 0 279.5 92.5t100.5 255.5q0 193 -104.5 295t-312.5 102h-68v56z" horiz-adv-x="1166"/>
<glyph glyph-name="uni04E2" unicode="Ӣ" d="M1195 1456h54v-1456h-54v1364l-941 -1364h-54v1456h54v-1361zM1042 1733h-627v53h627v-53z" horiz-adv-x="1449"/>
<glyph glyph-name="uni04E3" unicode="ӣ" d="M895 1082h55v-1082h-55v986l-669 -986h-54v1082h54v-986zM861 1391h-627v53h627v-53z"/>
<glyph glyph-name="uni04E4" unicode="Ӥ" d="M1195 1456h54v-1456h-54v1364l-941 -1364h-54v1456h54v-1361zM915 1740q0 23 16 39.5t39 16.5t39.5 -16.5t16.5 -39.5t-16.5 -39t-39.5 -16t-39 16t-16 39zM470 1740q0 23 16 39.5t39 16.5t39.5 -16.5t16.5 -39.5t-16.5 -39t-39.5 -16t-39 16t-16 39z" horiz-adv-x="1449"/>
<glyph glyph-name="uni04E5" unicode="ӥ" d="M895 1082h55v-1082h-55v986l-669 -986h-54v1082h54v-986zM734 1398q0 23 16 39.5t39 16.5t39.5 -16.5t16.5 -39.5t-16.5 -39t-39.5 -16t-39 16t-16 39zM289 1398q0 23 16 39.5t39 16.5t39.5 -16.5t16.5 -39.5t-16.5 -39t-39.5 -16t-39 16t-16 39z"/>
<glyph glyph-name="uni04E6" unicode="Ӧ" d="M1177 839q0 264 -134 423.5t-362 159.5q-225 0 -359 -158.5t-134 -431.5v-213q0 -174 60.5 -307.5t172.5 -205.5t262 -72q228 0 361 159t133 434v212zM1231 619q0 -189 -67.5 -334.5t-192.5 -225t-288 -79.5q-246 0 -398 175t-152 472v210q0 188 67.5 334t193 225.5 t287.5 79.5q163 0 288.5 -79.5t193.5 -226t68 -333.5v-218zM855 1761q0 23 16 39.5t39 16.5t39.5 -16.5t16.5 -39.5t-16.5 -39t-39.5 -16t-39 16t-16 39zM410 1761q0 23 16 39.5t39 16.5t39.5 -16.5t16.5 -39.5t-16.5 -39t-39.5 -16t-39 16t-16 39z" horiz-adv-x="1364"/>
<glyph glyph-name="uni04E7" unicode="ӧ" d="M144 520q0 -135 53.5 -247.5t149 -175.5t218.5 -63q185 0 301.5 139t116.5 358v31q0 133 -54 246t-149.5 176.5t-216.5 63.5q-185 0 -302 -141t-117 -355v-32zM90 562q0 155 59.5 278.5t168 192.5t245.5 69q136 0 244 -67t168.5 -190t61.5 -277v-48q0 -156 -59 -279 t-167.5 -192t-245.5 -69t-245.5 68t-168.5 190.5t-61 275.5v48zM746 1419q0 23 16 39.5t39 16.5t39.5 -16.5t16.5 -39.5t-16.5 -39t-39.5 -16t-39 16t-16 39zM301 1419q0 23 16 39.5t39 16.5t39.5 -16.5t16.5 -39.5t-16.5 -39t-39.5 -16t-39 16t-16 39z" horiz-adv-x="1127"/>
<glyph glyph-name="uni04E8" unicode="Ө" d="M1177 701h-989v-82q0 -174 60.5 -307.5t172.5 -205.5t262 -72q228 0 361 159t133 434v74zM188 755h989v84q0 264 -134 423.5t-362 159.5q-225 0 -359 -158.5t-134 -431.5v-77zM1231 619q0 -189 -67.5 -334.5t-192.5 -225t-288 -79.5q-246 0 -398 175t-152 472v210 q0 188 67.5 334t193 225.5t287.5 79.5q163 0 288.5 -79.5t193.5 -226t68 -333.5v-218z" horiz-adv-x="1364"/>
<glyph glyph-name="uni04E9" unicode="ө" d="M562 34q120 0 215 62t148.5 173t54.5 244h-839q1 -132 54.5 -243t149 -173.5t217.5 -62.5zM141 567h839q-1 132 -54.5 243t-149 174.5t-216.5 63.5t-216 -63t-148.5 -174.5t-54.5 -243.5zM87 562q0 155 59.5 278.5t168 192.5t245.5 69q136 0 244 -67t168.5 -190 t61.5 -277v-48q0 -156 -59 -279t-167.5 -192t-245.5 -69t-245.5 68t-168.5 190.5t-61 275.5v48z" horiz-adv-x="1153"/>
<glyph glyph-name="uni04EA" unicode="Ӫ" d="M1177 701h-989v-82q0 -174 60.5 -307.5t172.5 -205.5t262 -72q228 0 361 159t133 434v74zM188 755h989v84q0 264 -134 423.5t-362 159.5q-225 0 -359 -158.5t-134 -431.5v-77zM1231 619q0 -189 -67.5 -334.5t-192.5 -225t-288 -79.5q-246 0 -398 175t-152 472v210 q0 188 67.5 334t193 225.5t287.5 79.5q163 0 288.5 -79.5t193.5 -226t68 -333.5v-218zM889 1735q0 23 16 39.5t39 16.5t39.5 -16.5t16.5 -39.5t-16.5 -39t-39.5 -16t-39 16t-16 39zM444 1735q0 23 16 39.5t39 16.5t39.5 -16.5t16.5 -39.5t-16.5 -39t-39.5 -16t-39 16t-16 39 z" horiz-adv-x="1364"/>
<glyph glyph-name="uni04EB" unicode="ӫ" d="M562 34q120 0 215 62t148.5 173t54.5 244h-839q1 -132 54.5 -243t149 -173.5t217.5 -62.5zM141 567h839q-1 132 -54.5 243t-149 174.5t-216.5 63.5t-216 -63t-148.5 -174.5t-54.5 -243.5zM87 562q0 155 59.5 278.5t168 192.5t245.5 69q136 0 244 -67t168.5 -190 t61.5 -277v-48q0 -156 -59 -279t-167.5 -192t-245.5 -69t-245.5 68t-168.5 190.5t-61 275.5v48zM738 1446q0 23 16 39.5t39 16.5t39.5 -16.5t16.5 -39.5t-16.5 -39t-39.5 -16t-39 16t-16 39zM293 1446q0 23 16 39.5t39 16.5t39.5 -16.5t16.5 -39.5t-16.5 -39t-39.5 -16 t-39 16t-16 39z" horiz-adv-x="1153"/>
<glyph glyph-name="uni04EC" unicode="Ӭ" d="M189 446q21 -206 138.5 -309t326.5 -103q210 0 341.5 159.5t131.5 433.5v83h-642v54h642v75q0 263 -130.5 423t-342.5 160q-208 0 -325 -104.5t-140 -305.5h-54q21 224 156 344t363 120q155 0 274.5 -78.5t185 -222t67.5 -327.5v-229q0 -188 -65.5 -334t-186 -225.5 t-275.5 -79.5q-231 0 -364.5 121t-154.5 345h54zM871 1762q0 23 16 39.5t39 16.5t39.5 -16.5t16.5 -39.5t-16.5 -39t-39.5 -16t-39 16t-16 39zM426 1762q0 23 16 39.5t39 16.5t39.5 -16.5t16.5 -39.5t-16.5 -39t-39.5 -16t-39 16t-16 39z" horiz-adv-x="1325"/>
<glyph glyph-name="uni04ED" unicode="ӭ" d="M514 1048q-151 0 -243.5 -81t-92.5 -218h-56q0 156 113 254.5t279 98.5q204 0 328 -147.5t124 -399.5v-35q0 -245 -124 -392.5t-326 -147.5q-177 0 -285.5 104.5t-108.5 277.5h56q0 -150 92.5 -239t245.5 -89q180 0 287 130.5t109 351.5h-572v54h572q-2 217 -108 347.5 t-290 130.5zM726 1419q0 23 16 39.5t39 16.5t39.5 -16.5t16.5 -39.5t-16.5 -39t-39.5 -16t-39 16t-16 39zM281 1419q0 23 16 39.5t39 16.5t39.5 -16.5t16.5 -39.5t-16.5 -39t-39.5 -16t-39 16t-16 39z" horiz-adv-x="1089"/>
<glyph glyph-name="uni04EE" unicode="Ӯ" d="M668 451l497 1005h66l-598 -1197l-36 -68q-117 -212 -318 -212q-57 0 -87 13l15 51q28 -10 77 -10q87 0 155.5 52.5t130.5 174.5l68 133l-605 1063h67zM952 1733h-627v53h627v-53z" horiz-adv-x="1283"/>
<glyph glyph-name="uni04EF" unicode="ӯ" d="M503 84l7 20l374 978h60l-484 -1270l-24 -60q-78 -189 -258 -189q-58 0 -80 11l-1 51q32 -9 73 -9q85 0 141 49.5t97 161.5l66 179l-431 1076h59zM825 1414h-627v53h627v-53z" horiz-adv-x="978"/>
<glyph glyph-name="uni04F0" unicode="Ӱ" d="M668 451l497 1005h66l-598 -1197l-36 -68q-117 -212 -318 -212q-57 0 -87 13l15 51q28 -10 77 -10q87 0 155.5 52.5t130.5 174.5l68 133l-605 1063h67zM825 1740q0 23 16 39.5t39 16.5t39.5 -16.5t16.5 -39.5t-16.5 -39t-39.5 -16t-39 16t-16 39zM380 1740q0 23 16 39.5 t39 16.5t39.5 -16.5t16.5 -39.5t-16.5 -39t-39.5 -16t-39 16t-16 39z" horiz-adv-x="1283"/>
<glyph glyph-name="uni04F1" unicode="ӱ" d="M503 84l7 20l374 978h60l-484 -1270l-24 -60q-78 -189 -258 -189q-58 0 -80 11l-1 51q32 -9 73 -9q85 0 141 49.5t97 161.5l66 179l-431 1076h59zM698 1421q0 23 16 39.5t39 16.5t39.5 -16.5t16.5 -39.5t-16.5 -39t-39.5 -16t-39 16t-16 39zM253 1421q0 23 16 39.5 t39 16.5t39.5 -16.5t16.5 -39.5t-16.5 -39t-39.5 -16t-39 16t-16 39z" horiz-adv-x="978"/>
<glyph glyph-name="uni04F2" unicode="Ӳ" d="M668 451l497 1005h66l-598 -1197l-36 -68q-117 -212 -318 -212q-57 0 -87 13l15 51q28 -10 77 -10q87 0 155.5 52.5t130.5 174.5l68 133l-605 1063h67zM698 1855h76l-243 -304h-69zM978 1855h80l-288 -304h-73z" horiz-adv-x="1283"/>
<glyph glyph-name="uni04F3" unicode="ӳ" d="M503 84l7 20l374 978h60l-484 -1270l-24 -60q-78 -189 -258 -189q-58 0 -80 11l-1 51q32 -9 73 -9q85 0 141 49.5t97 161.5l66 179l-431 1076h59zM571 1536h76l-243 -304h-69zM851 1536h80l-288 -304h-73z" horiz-adv-x="978"/>
<glyph glyph-name="uni04F4" unicode="Ӵ" d="M1130 1456v-1456h-54v719q-221 -61 -402 -61q-247 0 -362.5 107.5t-116.5 334.5v356h54v-364q3 -193 106.5 -286.5t318.5 -93.5q193 0 402 60v684h54zM867 1740q0 23 16 39.5t39 16.5t39.5 -16.5t16.5 -39.5t-16.5 -39t-39.5 -16t-39 16t-16 39zM422 1740q0 23 16 39.5 t39 16.5t39.5 -16.5t16.5 -39.5t-16.5 -39t-39.5 -16t-39 16t-16 39z" horiz-adv-x="1325"/>
<glyph glyph-name="uni04F5" unicode="ӵ" d="M895 0h-54v522q-72 -35 -162.5 -57.5t-152.5 -22.5q-162 0 -246 38.5t-123.5 126t-39.5 239.5v236h54v-236q0 -133 34 -208.5t107.5 -108.5t213.5 -33q80 4 171.5 26.5t143.5 50.5v509h54v-1082zM676 1398q0 23 16 39.5t39 16.5t39.5 -16.5t16.5 -39.5t-16.5 -39 t-39.5 -16t-39 16t-16 39zM231 1398q0 23 16 39.5t39 16.5t39.5 -16.5t16.5 -39.5t-16.5 -39t-39.5 -16t-39 16t-16 39z" horiz-adv-x="1067"/>
<glyph glyph-name="uni04F6" unicode="Ӷ" d="M1055 1402h-808v-1402h-54v1456h862v-54zM302 -352h-54v447h54v-447z" horiz-adv-x="1122"/>
<glyph glyph-name="uni04F7" unicode="ӷ" d="M822 1027h-596v-1027h-54v1082h650v-55zM279 -352h-54v447h54v-447z" horiz-adv-x="867"/>
<glyph glyph-name="uni04F8" unicode="Ӹ" d="M247 734v-680h369q198 0 307 91.5t109 250.5q0 152 -107.5 244t-299.5 94h-378zM247 788h381q213 -3 336 -106.5t123 -287.5q0 -182 -123.5 -287.5t-343.5 -106.5h-427v1456h54v-668zM1447 0h-54v1456h54v-1456zM1054 1740q0 23 16 39.5t39 16.5t39.5 -16.5t16.5 -39.5 t-16.5 -39t-39.5 -16t-39 16t-16 39zM609 1740q0 23 16 39.5t39 16.5t39.5 -16.5t16.5 -39.5t-16.5 -39t-39.5 -16t-39 16t-16 39z" horiz-adv-x="1648"/>
<glyph glyph-name="uni04F9" unicode="ӹ" d="M235 616v-562h345q156 0 244.5 76.5t88.5 206.5q0 124 -86.5 200.5t-238.5 78.5h-353zM235 670h355q173 -3 275 -93.5t102 -241.5q0 -150 -101 -241t-276 -94h-409v1082h54v-412zM1315 0h-54v1082h54v-1082zM983 1398q0 23 16 39.5t39 16.5t39.5 -16.5t16.5 -39.5 t-16.5 -39t-39.5 -16t-39 16t-16 39zM538 1398q0 23 16 39.5t39 16.5t39.5 -16.5t16.5 -39.5t-16.5 -39t-39.5 -16t-39 16t-16 39z" horiz-adv-x="1486"/>
<glyph glyph-name="uni04FA" unicode="Ӻ" d="M1055 1402h-808v-1402h-54v1456h862v-54zM580 793h-587v54h587v-54zM287 118v-212q-1 -167 -76 -255t-209 -88q-54 0 -112 20l13 52q51 -19 99 -19q112 0 171.5 76.5t59.5 218.5v207h54z" horiz-adv-x="1122"/>
<glyph glyph-name="uni04FB" unicode="ӻ" d="M822 1027h-596v-1027h-54v1082h650v-55zM588 589h-587v54h587v-54zM279 118v-212q-1 -167 -76 -255t-209 -88q-54 0 -112 20l13 52q51 -19 99 -19q112 0 171.5 76.5t59.5 218.5v207h54z" horiz-adv-x="843"/>
<glyph glyph-name="uni04FC" unicode="Ӽ" d="M611 785l470 671h68l-504 -713l523 -743h-67l-490 701l-492 -701h-65l523 743l-504 713h68zM1174 118v-212q-1 -167 -76 -255t-209 -88q-54 0 -112 20l13 52q51 -19 99 -19q112 0 171.5 76.5t59.5 218.5v207h54z" horiz-adv-x="1223"/>
<glyph glyph-name="uni04FD" unicode="ӽ" d="M489 602l345 480h68l-380 -527l400 -555h-67l-367 508l-366 -508h-67l400 555l-380 527h68zM944 118v-212q-1 -167 -76 -255t-209 -88q-54 0 -112 20l13 52q51 -19 99 -19q112 0 171.5 76.5t59.5 218.5v207h54z" horiz-adv-x="978"/>
<glyph glyph-name="uni04FE" unicode="Ӿ" d="M900 723h-241l509 -723h-67l-490 701l-492 -701h-65l509 723h-250v54h240l-480 679h68l470 -671l470 671h68l-480 -679h231v-54z" horiz-adv-x="1223"/>
<glyph glyph-name="uni04FF" unicode="ӿ" d="M787 528h-246l381 -528h-67l-367 508l-366 -508h-67l380 528h-235v54h235l-360 500h68l346 -480l345 480h68l-361 -500h246v-54z" horiz-adv-x="978"/>
<glyph glyph-name="uni0500" unicode="Ԁ" d="M904 54v700h-370q-193 0 -304.5 -95.5t-111.5 -252.5t106 -252.5t293 -99.5h387zM904 808v648h54v-1456h-424q-220 0 -345.5 109.5t-125.5 294.5q0 186 124.5 294t339.5 110h377z" horiz-adv-x="1077"/>
<glyph glyph-name="uni0501" unicode="ԁ" d="M178 531q0 -230 91 -363.5t258 -133.5q134 0 229 59.5t141 174.5v507q-93 273 -368 273q-166 0 -258.5 -131t-92.5 -386zM122 552q0 259 109 404.5t299 145.5q122 0 215.5 -55t151.5 -164v653h54v-1536h-54v173q-55 -92 -151 -142.5t-218 -50.5q-188 0 -297 149t-109 409 v14z"/>
<glyph glyph-name="uni0502" unicode="Ԃ" d="M904 54v700h-370q-193 0 -304.5 -95.5t-111.5 -252.5t106 -252.5t293 -99.5h387zM534 0q-220 0 -345.5 109.5t-125.5 294.5q0 186 124.5 294t339.5 110h377v648h54v-1405l158 1q138 2 210.5 90t76.5 240v20q0 164 -61 343h50q26 -88 45.5 -175.5t19.5 -171.5v-16 q-4 -175 -97 -278.5t-252 -103.5h-574z" horiz-adv-x="1514"/>
<glyph glyph-name="uni0503" unicode="ԃ" d="M894 773q-42 135 -135 205t-230 70q-165 0 -258 -135t-93 -392q0 -229 90.5 -358.5t258.5 -129.5q139 0 234.5 64.5t136.5 185.5l-4 46v444zM122 542q0 261 109.5 410.5t298.5 149.5q122 0 214.5 -54.5t149.5 -159.5v672h55v-1207q0 -320 227 -320q162 2 253 131.5 t95 364.5v18q0 91 -19.5 187.5t-48.5 196.5l56 1q26 -98 46.5 -194.5t20.5 -190.5v-18q-4 -264 -111.5 -407t-291.5 -143h-7q-205 0 -257 221q-51 -104 -152 -162.5t-232 -58.5q-179 0 -287 132.5t-118 365.5z" horiz-adv-x="1754"/>
<glyph glyph-name="uni0504" unicode="Ԅ" d="M254 715v55h191q401 0 401 336q0 147 -110 221t-321 75h-366v54h374q233 -3 355 -92t122 -260q0 -146 -84 -247.5t-225 -125.5q214 -54 221 -320v-103q0 -126 62.5 -200.5t165.5 -74.5q105 2 187.5 65t131.5 180t51 251v17q0 92 -20.5 189t-50.5 197h57l23 -88 q45 -176 45 -300v-15q-3 -156 -57 -282t-150.5 -197t-216.5 -71h-12q-124 0 -194 79t-76 246v79q0 332 -320 332h-184z" horiz-adv-x="1612"/>
<glyph glyph-name="uni0505" unicode="ԅ" d="M681 213q0 -99 45.5 -139.5t142.5 -40.5q142 2 222.5 100.5t84.5 285.5v15q0 155 -78 304h65q27 -81 47 -157t20 -148v-14q-4 -204 -102.5 -322t-258.5 -118h-15q-108 0 -165.5 55t-61.5 180v86q0 99 -69.5 154t-202.5 58h-224l-2 51h224q131 0 212.5 61.5t81.5 159.5 q0 106 -92 177t-247 71h-258l-6 50h280q177 -3 277.5 -82t100.5 -216q0 -83 -49.5 -150.5t-143.5 -99.5q166 -48 172 -219v-102z" horiz-adv-x="1313"/>
<glyph glyph-name="uni0506" unicode="Ԇ" d="M227 683v54h177q198 2 310 89t112 239q0 163 -104.5 249.5t-318.5 86.5h-289v54h298q224 -2 346 -100t122 -290q0 -126 -80 -225t-212 -129q284 -48 292 -324v-161q1 -79 23 -129h54v-132q0 -169 -106 -282l-37 32q81 104 88 215l1 69h-4q-72 87 -73 235v133 q0 151 -102 233.5t-289 82.5h-208z" horiz-adv-x="1087"/>
<glyph glyph-name="uni0507" unicode="ԇ" d="M204 494l-2 54h248q163 2 240 59.5t77 178.5q0 124 -79.5 182t-244.5 59h-339l4 55h329q187 0 285.5 -75t98.5 -222q0 -103 -50.5 -170.5t-146.5 -95.5q192 -45 194 -243v-149h52v-132q0 -169 -106 -282l-37 32q45 58 67 114.5t22 140.5h-36q-14 36 -16 124v145 q0 106 -74.5 165.5t-216.5 59.5h-269z" horiz-adv-x="1021"/>
<glyph glyph-name="uni0508" unicode="Ԉ" d="M1153 1402h-653l-44 -668q-24 -327 -62 -468t-104.5 -202t-181.5 -64h-44v54h48q100 3 153.5 63.5t85.5 204t52 425.5l47 709h757v-1111q0 -161 60.5 -236.5t163.5 -75.5h3q162 2 253 131.5t95 364.5v9q0 160 -68 393l56 1q41 -153 54 -237t13 -155v-11 q-4 -260 -110.5 -405t-292.5 -145q-138 0 -209.5 92t-71.5 273v1058z" horiz-adv-x="1975"/>
<glyph glyph-name="uni0509" unicode="ԉ" d="M865 1027h-493l-21 -506q-16 -289 -77.5 -404t-196.5 -117h-38v53h45q102 4 149.5 107t62.5 344l24 578h599v-737q0 -161 55.5 -236.5t149.5 -75.5h2q152 2 238 108t90 303v17q0 87 -19.5 178t-48.5 186l55 1q46 -165 57 -237t11 -134v-11q-4 -220 -105 -342.5 t-278 -122.5q-127 0 -193.5 90.5t-67.5 268.5v689z" horiz-adv-x="1643"/>
<glyph glyph-name="uni050A" unicode="Ԋ" d="M1123 1456v-1117q1 -148 59 -227t169 -79q162 2 253 131.5t95 364.5v9q0 157 -69 393l56 1l23 -89q44 -172 44 -298v-16q-4 -264 -111.5 -407t-290.5 -143h-11q-127 0 -196 90t-75 276v348h-805v-693h-54v1456h54v-709h805v709h54z" horiz-adv-x="1947"/>
<glyph glyph-name="uni050B" unicode="ԋ" d="M865 519h-654v-519h-54v1082h54v-510h654v510h54v-730q0 -319 207 -319q153 2 238.5 109t89.5 302v17q0 87 -20 178t-49 186l56 1q46 -165 57 -237t11 -134v-11q-4 -224 -106 -344.5t-277 -120.5h-10q-116 0 -180.5 89.5t-70.5 276.5v174z" horiz-adv-x="1687"/>
<glyph glyph-name="uni050C" unicode="Ԍ" d="M692 -21q-153 0 -276 78t-192 219t-70 316v267q0 176 68.5 318t192 221t277.5 79q195 0 317 -65l-21 -57q-134 68 -296 68q-214 0 -349 -157t-135 -415v-254q0 -160 59.5 -289t170.5 -202t254 -73q193 2 299.5 105t110.5 287v16q0 142 -50 345h58q20 -93 33 -176.5 t13 -162.5v-22q-2 -136 -61.5 -237t-165 -155t-237.5 -54z" horiz-adv-x="1260"/>
<glyph glyph-name="uni050D" unicode="ԍ" d="M588 33q154 2 235.5 70.5t83.5 197.5q0 130 -28 236h55q27 -145 27 -230v-6q-4 -153 -102 -237.5t-271 -84.5q-204 0 -329 153.5t-125 398.5v31q0 152 53.5 275.5t152.5 194t227 70.5q185 0 261 -59l-24 -49q-92 54 -237 54q-172 0 -275.5 -135t-103.5 -365v-28 q0 -134 50 -246.5t141 -176.5t209 -64z" horiz-adv-x="1043"/>
<glyph glyph-name="uni050E" unicode="Ԏ" d="M582 1402h-551v54h1152v-54h-545v-1057v-10q0 -142 57 -222t170 -80q162 2 253 131.5t95 364.5v9q0 157 -69 393l56 1q26 -98 46.5 -194.5t20.5 -190.5v-18q-4 -260 -110.5 -405t-291.5 -145h-11q-126 0 -196 90.5t-76 275.5v1057z" horiz-adv-x="1443"/>
<glyph glyph-name="uni050F" unicode="ԏ" d="M481 1029h-416v53h907v-53h-436v-684q0 -156 59 -234t169 -78q151 2 237.5 108.5t90.5 305.5v8q0 147 -69 375l56 1q45 -161 56 -233t11 -139v-12q-4 -222 -105 -345t-277 -123h-11q-126 0 -196 90.5t-76 275.5v684z" horiz-adv-x="1302"/>
<glyph glyph-name="uni0510" unicode="Ԑ" d="M138 386q0 293 337 359q-146 38 -230.5 127.5t-84.5 210.5q0 189 142.5 291.5t391.5 102.5q141 0 260 -51t185.5 -143t66.5 -208h-54q0 155 -128.5 251.5t-329.5 96.5q-233 0 -356.5 -88.5t-123.5 -247.5q0 -155 118.5 -234t347.5 -82h202v-56h-197q-255 -2 -374 -84 t-119 -249q0 -165 132.5 -256.5t369.5 -91.5q213 0 345.5 103.5t132.5 266.5h54q0 -121 -62.5 -216t-188.5 -151.5t-281 -56.5q-253 0 -404.5 109.5t-151.5 296.5z" horiz-adv-x="1325"/>
<glyph glyph-name="uni0511" unicode="ԑ" d="M116 290q0 210 249 264q-108 31 -169 97t-61 151q0 139 109 219.5t306 80.5q184 0 306.5 -86t122.5 -217h-54q0 108 -105.5 178.5t-269.5 70.5q-174 0 -266.5 -65t-92.5 -178q0 -225 367 -225h160v-55h-177q-180 -2 -275.5 -58t-95.5 -180q0 -118 100.5 -185t279.5 -67 q175 0 283.5 75.5t108.5 190.5h55q0 -145 -127.5 -233t-319.5 -88q-197 0 -315.5 85t-118.5 225z" horiz-adv-x="1122"/>
</font>
</defs>
</svg>
